<svg xmlns="http://www.w3.org/2000/svg" xmlns:xlink="http://www.w3.org/1999/xlink" width="600" zoomAndPan="magnify" viewBox="0 0 450 412.499988" height="550" preserveAspectRatio="xMidYMid meet" version="1.0"><defs><clipPath id="8f2bdf278e"><path d="M 0.273438 0 L 449.726562 0 L 449.726562 412 L 0.273438 412 Z M 0.273438 0 " clip-rule="nonzero"/></clipPath><clipPath id="b0604e11f7"><path d="M 119 132.21875 L 331 132.21875 L 331 279.792969 L 119 279.792969 Z M 119 132.21875 " clip-rule="nonzero"/></clipPath></defs><g clip-path="url(#8f2bdf278e)"><path fill="#ffffff" d="M 0.273438 0 L 449.726562 0 L 449.726562 412 L 0.273438 412 Z M 0.273438 0 " fill-opacity="1" fill-rule="nonzero"/><path fill="#ffffff" d="M 0.273438 0 L 449.726562 0 L 449.726562 412 L 0.273438 412 Z M 0.273438 0 " fill-opacity="1" fill-rule="nonzero"/><path fill="#b1d4e0" d="M 584.109375 222.234375 C 584.109375 227.871094 583.972656 233.503906 583.695312 239.136719 C 583.417969 244.765625 583.003906 250.386719 582.449219 255.996094 C 581.898438 261.609375 581.207031 267.199219 580.382812 272.777344 C 579.554688 278.355469 578.589844 283.90625 577.492188 289.4375 C 576.390625 294.964844 575.15625 300.464844 573.785156 305.933594 C 572.417969 311.402344 570.914062 316.832031 569.277344 322.226562 C 567.640625 327.621094 565.871094 332.972656 563.972656 338.28125 C 562.074219 343.589844 560.046875 348.847656 557.886719 354.054688 C 555.730469 359.265625 553.445312 364.417969 551.035156 369.511719 C 548.625 374.609375 546.09375 379.644531 543.433594 384.617188 C 540.777344 389.585938 538 394.492188 535.101562 399.328125 C 532.203125 404.160156 529.1875 408.921875 526.054688 413.609375 C 522.921875 418.296875 519.679688 422.90625 516.320312 427.433594 C 512.960938 431.960938 509.496094 436.40625 505.917969 440.761719 C 502.339844 445.121094 498.660156 449.386719 494.875 453.566406 C 491.089844 457.742188 487.203125 461.824219 483.214844 465.8125 C 479.230469 469.796875 475.148438 473.683594 470.972656 477.46875 C 466.792969 481.253906 462.527344 484.9375 458.167969 488.511719 C 453.8125 492.089844 449.367188 495.554688 444.839844 498.914062 C 440.3125 502.273438 435.703125 505.519531 431.015625 508.648438 C 426.328125 511.78125 421.566406 514.796875 416.730469 517.695312 C 411.894531 520.59375 406.992188 523.371094 402.019531 526.027344 C 397.050781 528.6875 392.015625 531.21875 386.917969 533.632812 C 381.824219 536.042969 376.671875 538.324219 371.460938 540.484375 C 366.253906 542.640625 360.996094 544.667969 355.6875 546.566406 C 350.378906 548.464844 345.027344 550.234375 339.632812 551.871094 C 334.238281 553.507812 328.804688 555.011719 323.339844 556.378906 C 317.871094 557.75 312.371094 558.984375 306.839844 560.085938 C 301.3125 561.183594 295.757812 562.148438 290.183594 562.976562 C 284.605469 563.804688 279.011719 564.492188 273.402344 565.046875 C 267.792969 565.597656 262.171875 566.011719 256.539062 566.289062 C 250.910156 566.566406 245.277344 566.703125 239.636719 566.703125 C 234 566.703125 228.367188 566.566406 222.734375 566.289062 C 217.105469 566.011719 211.484375 565.597656 205.875 565.046875 C 200.265625 564.492188 194.671875 563.804688 189.09375 562.976562 C 183.515625 562.148438 177.964844 561.183594 172.433594 560.085938 C 166.90625 558.984375 161.40625 557.75 155.9375 556.378906 C 150.46875 555.011719 145.039062 553.507812 139.644531 551.871094 C 134.25 550.234375 128.898438 548.464844 123.589844 546.566406 C 118.28125 544.667969 113.023438 542.640625 107.816406 540.484375 C 102.605469 538.324219 97.453125 536.042969 92.359375 533.632812 C 87.261719 531.21875 82.226562 528.6875 77.257812 526.03125 C 72.285156 523.371094 67.378906 520.59375 62.542969 517.695312 C 57.710938 514.796875 52.949219 511.78125 48.261719 508.648438 C 43.574219 505.519531 38.964844 502.273438 34.4375 498.914062 C 29.910156 495.554688 25.464844 492.089844 21.109375 488.511719 C 16.75 484.9375 12.484375 481.253906 8.304688 477.46875 C 4.128906 473.683594 0.046875 469.796875 -3.9375 465.8125 C -7.925781 461.824219 -11.8125 457.742188 -15.597656 453.566406 C -19.382812 449.386719 -23.066406 445.121094 -26.640625 440.761719 C -30.21875 436.40625 -33.683594 431.960938 -37.042969 427.433594 C -40.402344 422.90625 -43.648438 418.296875 -46.777344 413.609375 C -49.910156 408.921875 -52.925781 404.160156 -55.824219 399.328125 C -58.722656 394.492188 -61.5 389.585938 -64.15625 384.617188 C -66.816406 379.644531 -69.347656 374.609375 -71.757812 369.511719 C -74.171875 364.417969 -76.453125 359.265625 -78.613281 354.054688 C -80.769531 348.847656 -82.796875 343.589844 -84.695312 338.28125 C -86.59375 332.972656 -88.363281 327.621094 -90 322.226562 C -91.636719 316.832031 -93.140625 311.402344 -94.507812 305.933594 C -95.878906 300.464844 -97.113281 294.964844 -98.214844 289.4375 C -99.3125 283.90625 -100.277344 278.355469 -101.105469 272.777344 C -101.929688 267.199219 -102.621094 261.605469 -103.175781 255.996094 C -103.726562 250.386719 -104.140625 244.765625 -104.417969 239.136719 C -104.695312 233.503906 -104.832031 227.871094 -104.832031 222.234375 C -104.832031 216.59375 -104.695312 210.960938 -104.417969 205.332031 C -104.140625 199.699219 -103.726562 194.078125 -103.175781 188.46875 C -102.621094 182.859375 -101.929688 177.265625 -101.105469 171.6875 C -100.277344 166.113281 -99.3125 160.558594 -98.214844 155.03125 C -97.113281 149.5 -95.878906 144 -94.507812 138.535156 C -93.140625 133.066406 -91.636719 127.632812 -90 122.238281 C -88.363281 116.84375 -86.59375 111.492188 -84.695312 106.183594 C -82.796875 100.875 -80.769531 95.617188 -78.613281 90.410156 C -76.453125 85.203125 -74.171875 80.050781 -71.757812 74.953125 C -69.347656 69.855469 -66.816406 64.824219 -64.15625 59.851562 C -61.5 54.878906 -58.722656 49.976562 -55.824219 45.140625 C -52.925781 40.304688 -49.910156 35.542969 -46.777344 30.855469 C -43.648438 26.167969 -40.402344 21.558594 -37.042969 17.03125 C -33.683594 12.503906 -30.21875 8.0625 -26.640625 3.703125 C -23.066406 -0.65625 -19.382812 -4.921875 -15.597656 -9.101562 C -11.8125 -13.277344 -7.925781 -17.359375 -3.9375 -21.34375 C 0.046875 -25.332031 4.128906 -29.21875 8.304688 -33.003906 C 12.484375 -36.789062 16.75 -40.46875 21.109375 -44.046875 C 25.464844 -47.625 29.910156 -51.089844 34.4375 -54.449219 C 38.964844 -57.808594 43.574219 -61.050781 48.261719 -64.183594 C 52.949219 -67.316406 57.710938 -70.332031 62.542969 -73.230469 C 67.378906 -76.128906 72.285156 -78.90625 77.257812 -81.5625 C 82.226562 -84.222656 87.261719 -86.753906 92.359375 -89.164062 C 97.453125 -91.574219 102.605469 -93.859375 107.816406 -96.015625 C 113.023438 -98.175781 118.28125 -100.203125 123.589844 -102.101562 C 128.898438 -104 134.25 -105.769531 139.644531 -107.40625 C 145.039062 -109.042969 150.46875 -110.546875 155.9375 -111.914062 C 161.40625 -113.285156 166.90625 -114.519531 172.433594 -115.621094 C 177.964844 -116.71875 183.515625 -117.683594 189.09375 -118.507812 C 194.671875 -119.335938 200.265625 -120.027344 205.875 -120.578125 C 211.484375 -121.132812 217.105469 -121.546875 222.734375 -121.824219 C 228.367188 -122.101562 234 -122.238281 239.636719 -122.238281 C 245.277344 -122.238281 250.910156 -122.101562 256.539062 -121.824219 C 262.171875 -121.546875 267.792969 -121.132812 273.402344 -120.578125 C 279.011719 -120.027344 284.605469 -119.335938 290.183594 -118.507812 C 295.757812 -117.683594 301.3125 -116.71875 306.839844 -115.621094 C 312.371094 -114.519531 317.871094 -113.285156 323.339844 -111.914062 C 328.804688 -110.546875 334.238281 -109.042969 339.632812 -107.40625 C 345.027344 -105.769531 350.378906 -104 355.6875 -102.101562 C 360.996094 -100.203125 366.253906 -98.175781 371.460938 -96.015625 C 376.671875 -93.859375 381.824219 -91.574219 386.917969 -89.164062 C 392.015625 -86.753906 397.050781 -84.222656 402.019531 -81.5625 C 406.992188 -78.90625 411.898438 -76.128906 416.730469 -73.230469 C 421.566406 -70.332031 426.328125 -67.316406 431.015625 -64.183594 C 435.703125 -61.050781 440.3125 -57.808594 444.839844 -54.449219 C 449.367188 -51.089844 453.8125 -47.625 458.167969 -44.046875 C 462.527344 -40.46875 466.792969 -36.789062 470.972656 -33.003906 C 475.148438 -29.21875 479.230469 -25.332031 483.214844 -21.34375 C 487.203125 -17.359375 491.089844 -13.277344 494.875 -9.101562 C 498.660156 -4.921875 502.339844 -0.65625 505.917969 3.703125 C 509.496094 8.0625 512.960938 12.503906 516.320312 17.03125 C 519.679688 21.558594 522.921875 26.167969 526.054688 30.855469 C 529.1875 35.542969 532.203125 40.304688 535.101562 45.140625 C 538 49.976562 540.777344 54.878906 543.433594 59.851562 C 546.09375 64.820312 548.625 69.855469 551.035156 74.953125 C 553.445312 80.050781 555.730469 85.199219 557.886719 90.410156 C 560.046875 95.617188 562.074219 100.875 563.972656 106.183594 C 565.871094 111.492188 567.640625 116.84375 569.277344 122.238281 C 570.914062 127.632812 572.417969 133.066406 573.785156 138.535156 C 575.15625 144 576.390625 149.5 577.492188 155.03125 C 578.589844 160.558594 579.554688 166.113281 580.382812 171.6875 C 581.207031 177.265625 581.898438 182.859375 582.449219 188.46875 C 583.003906 194.078125 583.417969 199.699219 583.695312 205.332031 C 583.972656 210.960938 584.109375 216.59375 584.109375 222.234375 Z M 584.109375 222.234375 " fill-opacity="1" fill-rule="nonzero"/></g><g clip-path="url(#b0604e11f7)"><path fill="#1e3f48" d="M 329.984375 223.046875 C 328.746094 222.113281 327.507812 221.195312 326.003906 220.722656 C 325.511719 220.566406 325.015625 220.457031 325.140625 219.671875 C 325.441406 217.722656 325.609375 215.75 325.898438 213.796875 C 326.449219 210.105469 327.160156 206.433594 327.300781 202.6875 C 327.351562 201.21875 326.710938 200.164062 325.285156 199.617188 C 323.992188 199.121094 322.710938 198.628906 321.359375 198.304688 C 318.480469 197.609375 315.589844 197.019531 312.242188 196.96875 C 314.6875 194.363281 316.824219 192.003906 319.058594 189.738281 C 320.488281 188.296875 322.0625 187 323.242188 185.328125 C 323.972656 184.289062 323.855469 183.492188 322.617188 182.902344 C 320.546875 181.917969 318.40625 181.121094 316.242188 180.378906 C 310.476562 178.40625 304.507812 177.417969 298.511719 176.503906 C 294.882812 175.949219 291.296875 175.171875 287.621094 174.910156 C 279.65625 174.339844 271.890625 175.988281 264.101562 177.101562 C 259.285156 177.792969 254.511719 179.003906 249.953125 180.835938 C 248.59375 181.382812 247.585938 181.382812 246.710938 179.886719 C 244.757812 176.558594 242.101562 173.738281 239.648438 170.785156 C 238.859375 169.835938 238.789062 169.175781 239.246094 168.128906 C 240.566406 165.105469 241.910156 162.082031 243.011719 158.976562 C 244.035156 156.09375 243.429688 153.804688 241.453125 152.886719 C 235.433594 150.09375 229.519531 147.042969 223.023438 145.390625 C 220.492188 144.746094 218.511719 145.242188 217.023438 147.40625 C 216.695312 147.878906 216.429688 148.105469 215.90625 147.644531 C 212.726562 144.863281 208.765625 143.445312 205.089844 141.550781 C 202.304688 140.117188 199.613281 138.472656 196.652344 137.382812 C 192.128906 135.71875 187.644531 133.953125 182.980469 132.660156 C 181.378906 132.214844 180.539062 132.339844 179.535156 133.695312 C 173.039062 142.5 166.34375 151.152344 159.675781 159.828125 C 155.421875 165.367188 151.566406 171.1875 147.132812 176.621094 C 139.851562 185.550781 132.605469 194.523438 125.785156 203.828125 C 124.644531 205.386719 123.988281 206.964844 124.476562 208.878906 C 124.945312 210.714844 124.417969 212.222656 123.097656 213.527344 C 121.953125 214.664062 120.988281 215.949219 120.265625 217.390625 C 118.65625 220.605469 118.871094 222.128906 122.59375 224.199219 C 122.964844 224.402344 123.378906 224.523438 123.769531 224.691406 C 127.046875 226.089844 130.652344 226.734375 133.78125 228.347656 C 137.6875 230.355469 141.671875 232.082031 145.804688 233.480469 C 151.351562 235.363281 156.488281 238.25 162.109375 239.96875 C 167.589844 241.648438 173.175781 243.007812 178.367188 245.597656 C 185.039062 248.929688 192.425781 250.472656 199.171875 253.65625 C 200.023438 254.0625 200.976562 254.269531 201.890625 254.53125 C 206.996094 255.980469 212.214844 257.117188 217.179688 258.945312 C 221.933594 260.695312 226.757812 262.160156 231.609375 263.515625 C 238.414062 265.414062 245.320312 266.902344 251.988281 269.324219 C 259.925781 272.203125 268.351562 273.566406 276.113281 277.027344 C 277.753906 277.761719 279.492188 278.335938 281.242188 278.757812 C 285.5 279.789062 286.378906 279.417969 287.9375 277.304688 C 289.769531 274.8125 291.621094 272.332031 293.566406 269.929688 C 296.929688 265.773438 300.628906 261.910156 303.976562 257.742188 C 307.589844 253.242188 311.09375 248.660156 315.117188 244.496094 C 320.738281 238.679688 325.195312 231.902344 330.308594 225.664062 C 331.089844 224.710938 331 223.808594 329.984375 223.046875 Z M 329.984375 223.046875 " fill-opacity="1" fill-rule="nonzero"/></g><path fill="#e28b7a" d="M 229.8125 159.371094 C 229.671875 160.441406 229.773438 161.21875 231.574219 160.882812 C 232.863281 160.640625 233.5625 161.976562 233.949219 163.085938 C 234.34375 164.21875 233.675781 164.914062 232.609375 165.222656 C 231.242188 165.621094 230.71875 166.152344 231.753906 167.566406 C 232.585938 168.703125 231.933594 169.902344 231.203125 170.941406 C 230.546875 171.871094 229.855469 172.910156 228.542969 172.582031 C 227.195312 172.242188 226.75 172.851562 226.382812 173.972656 C 225.625 176.296875 224.292969 177.222656 222.449219 176.84375 C 220.902344 176.523438 220.324219 175.644531 220.632812 174.066406 C 220.949219 172.453125 220.839844 172.347656 219.199219 172.65625 C 217.597656 172.960938 216.503906 172.277344 215.917969 170.605469 C 215.453125 169.285156 215.945312 167.898438 217.492188 167.4375 C 219.515625 166.832031 218.933594 166.03125 218.097656 164.867188 C 216.867188 163.152344 217.011719 161.449219 218.378906 159.742188 C 219.792969 157.980469 220.789062 157.90625 222.457031 159.433594 C 222.839844 159.785156 223.152344 160.476562 223.664062 160.367188 C 224.335938 160.222656 223.96875 159.457031 224.074219 158.96875 C 224.699219 156.054688 226.507812 155.183594 228.871094 156.613281 C 229.90625 157.242188 229.863281 158.152344 229.8125 159.371094 Z M 221.457031 167.460938 C 221.457031 169.609375 222.519531 170.789062 224.4375 170.765625 C 226.527344 170.738281 228.835938 168.382812 228.847656 166.265625 C 228.855469 164.507812 226.523438 162.453125 224.574219 162.5 C 222.976562 162.539062 221.453125 164.957031 221.457031 167.460938 Z M 209.84375 181.945312 C 206.683594 186.011719 206.128906 192.492188 208.664062 196.691406 C 209.828125 191.664062 210.851562 187.003906 209.84375 181.945312 Z M 216.582031 202.433594 C 220.921875 200.023438 222.789062 197.695312 223.695312 193.445312 C 220.335938 195.828125 217.777344 198.472656 216.582031 202.433594 Z M 216.582031 202.433594 " fill-opacity="1" fill-rule="nonzero"/><path fill="#b9bba3" d="M 241.667969 156.769531 C 241.667969 157.746094 241.414062 158.667969 241.027344 159.554688 C 234.503906 174.371094 228.488281 189.378906 223.683594 204.859375 C 222.378906 209.066406 220.945312 213.253906 218.945312 217.21875 C 218.199219 218.703125 217.371094 219.160156 215.714844 218.75 C 212.351562 217.921875 209.101562 216.734375 205.863281 215.578125 C 202.496094 214.378906 199.078125 213.421875 195.625 212.574219 C 194.066406 212.195312 193.492188 211.554688 193.878906 209.933594 C 194.601562 206.871094 195.398438 203.855469 196.722656 200.976562 C 197.742188 198.757812 198.535156 196.429688 199.378906 194.132812 C 202.8125 184.78125 206.546875 175.558594 210.726562 166.515625 C 211.882812 164.007812 212.84375 161.398438 213.710938 158.773438 C 214.855469 155.324219 216.5625 152.128906 217.960938 148.792969 C 218.941406 146.457031 220.148438 146.019531 222.539062 146.691406 C 228.8125 148.460938 234.558594 151.519531 240.515625 154.0625 C 241.445312 154.460938 241.707031 155.195312 241.667969 156.769531 Z M 235.460938 163.648438 C 235.3125 162.214844 234.683594 160.898438 233.519531 160.277344 C 231.996094 159.464844 230.945312 158.570312 230.808594 156.757812 C 230.761719 156.164062 230.15625 155.8125 229.648438 155.503906 C 226.6875 153.707031 224.839844 154.265625 223.273438 157.472656 C 223.023438 157.980469 222.929688 158.167969 222.339844 157.765625 C 221.617188 157.277344 220.816406 156.8125 219.816406 157.179688 C 217.421875 158.050781 214.675781 162.003906 216.738281 165.050781 C 217.378906 165.996094 217.117188 166.253906 216.308594 166.796875 C 213.71875 168.542969 213.984375 172.59375 216.902344 173.59375 C 218.476562 174.128906 219.164062 174.667969 219.667969 176.289062 C 220.039062 177.46875 220.449219 178.285156 219.664062 179.371094 C 219.371094 179.777344 219.300781 180.363281 219.191406 180.878906 C 218.59375 183.71875 217.492188 186.355469 216.019531 188.847656 C 215.335938 189.996094 214.882812 191.246094 214.398438 192.484375 C 212.957031 196.183594 212.257812 200.03125 211.8125 203.960938 C 211.5 206.714844 210.261719 209.25 209.472656 211.890625 C 209.335938 212.351562 209.023438 212.867188 209.660156 213.097656 C 210.246094 213.3125 210.503906 212.808594 210.65625 212.324219 C 211.511719 209.59375 212.789062 206.992188 213.15625 204.113281 C 213.648438 200.253906 214.265625 196.402344 215.824219 192.816406 C 217.722656 188.441406 220.167969 184.292969 221.039062 179.515625 C 221.097656 179.210938 221.339844 178.941406 221.417969 178.636719 C 221.546875 178.136719 221.894531 178.15625 222.285156 178.175781 C 224.878906 178.308594 226.515625 177.347656 227.453125 174.96875 C 227.726562 174.28125 227.929688 173.972656 228.746094 173.945312 C 231.621094 173.863281 234.089844 170.277344 233.160156 167.476562 C 232.902344 166.695312 233.042969 166.511719 233.703125 166.253906 C 234.871094 165.796875 235.351562 164.816406 235.460938 163.648438 Z M 211.539062 186.09375 C 211.722656 184.191406 211.5 182.367188 210.582031 180.671875 C 210.363281 180.265625 210.214844 179.734375 209.605469 179.769531 C 209.03125 179.800781 208.851562 180.28125 208.632812 180.707031 C 207.527344 182.882812 206.53125 185.121094 205.867188 187.457031 C 204.898438 190.855469 205.902344 194.050781 207.335938 197.121094 C 207.574219 197.632812 208.003906 198.152344 208.703125 198.027344 C 209.328125 197.914062 209.425781 197.308594 209.605469 196.820312 C 210.855469 193.351562 211.472656 189.769531 211.539062 186.09375 Z M 215.40625 204.453125 C 221.605469 201.828125 224.335938 198.355469 225.417969 192.886719 C 225.519531 192.367188 225.546875 191.953125 225.136719 191.582031 C 224.636719 191.125 224.238281 191.527344 223.851562 191.757812 C 220.910156 193.519531 218.523438 195.863281 216.808594 198.828125 C 215.828125 200.523438 215.261719 202.378906 215.40625 204.453125 Z M 231.511719 217.886719 C 236.035156 216.941406 240.390625 215.394531 244.839844 214.1875 C 246.054688 213.859375 247.402344 213.464844 248.179688 212.421875 C 251.152344 208.453125 254.117188 204.480469 256.691406 200.230469 C 257.257812 199.296875 256.933594 199.074219 255.96875 198.992188 C 254.234375 198.847656 252.605469 199.328125 250.953125 199.671875 C 245.378906 200.832031 240.488281 203.066406 237.371094 208.203125 C 236.546875 209.5625 235.4375 210.75 234.457031 212.011719 C 233.03125 213.855469 231.390625 215.546875 230.347656 217.960938 C 230.886719 217.929688 231.207031 217.949219 231.511719 217.886719 Z M 224.867188 164.308594 C 223.648438 164.261719 222.796875 165.507812 222.808594 167.4375 C 222.8125 168.5 223.21875 169.300781 224.46875 169.300781 C 225.789062 169.296875 227.226562 167.753906 227.246094 166.3125 C 227.261719 165.152344 226.320312 164.363281 224.867188 164.308594 Z M 224.867188 164.308594 " fill-opacity="1" fill-rule="nonzero"/><path fill="#106585" d="M 124.554688 214.164062 C 124.585938 214.671875 124.652344 214.929688 124.613281 215.167969 C 124.097656 218.203125 125.574219 219.726562 128.332031 220.730469 C 138.160156 224.316406 147.964844 227.960938 157.710938 231.757812 C 166.921875 235.347656 176.160156 238.902344 185.011719 243.335938 C 188.871094 245.273438 193.027344 246.4375 196.945312 248.242188 C 199.152344 249.257812 201.976562 249.042969 204.472656 249.75 C 212.3125 251.972656 220.402344 252.957031 228.371094 254.550781 C 244.066406 257.695312 259.378906 262.0625 274.0625 268.503906 C 276.441406 269.546875 278.597656 271.054688 281.179688 271.695312 C 282.339844 271.980469 283.203125 271.996094 284.039062 271.070312 C 287.414062 267.355469 290.621094 263.496094 293.863281 259.667969 C 299.527344 252.984375 305.34375 246.433594 311.113281 239.839844 C 314.136719 236.382812 317.144531 232.902344 320.542969 229.796875 C 322.628906 227.886719 324.191406 225.625 324.757812 222.804688 C 324.949219 221.847656 325.386719 221.894531 326.046875 222.257812 C 326.140625 222.3125 326.234375 222.367188 326.328125 222.414062 C 329.53125 223.972656 329.523438 224.0625 327.316406 226.765625 C 323.324219 231.644531 319.90625 236.988281 315.5625 241.574219 C 307.355469 250.234375 300.417969 259.96875 292.421875 268.808594 C 290.355469 271.089844 288.648438 273.703125 286.828125 276.203125 C 285.792969 277.632812 284.386719 278.171875 282.289062 277.492188 C 279.457031 276.578125 276.613281 275.65625 273.894531 274.46875 C 268.152344 271.96875 261.925781 271.078125 256.097656 268.953125 C 245.234375 264.988281 233.808594 262.984375 222.914062 259.230469 C 215.519531 256.679688 207.914062 254.886719 200.53125 252.359375 C 194.210938 250.195312 187.90625 247.90625 181.789062 245.226562 C 175.578125 242.507812 169.25 240.242188 162.746094 238.402344 C 157.398438 236.890625 152.558594 234.097656 147.339844 232.246094 C 142.933594 230.6875 138.519531 229.148438 134.457031 226.710938 C 132.953125 225.804688 131.066406 225.515625 129.335938 224.996094 C 126.882812 224.257812 124.5625 223.199219 122.253906 222.105469 C 121.027344 221.527344 120.515625 220.710938 121.058594 219.28125 C 121.789062 217.347656 123.007812 215.816406 124.554688 214.164062 Z M 124.554688 214.164062 " fill-opacity="1" fill-rule="nonzero"/><path fill="#e3d8d6" d="M 191.898438 210.835938 C 188.917969 208.878906 186.199219 206.730469 183.265625 204.890625 C 173.125 198.539062 162.574219 193.035156 151.246094 189.105469 C 150.746094 188.933594 150.21875 188.832031 149.714844 188.667969 C 149.210938 188.507812 148.585938 188.152344 148.332031 188.84375 C 148.007812 189.71875 148.921875 189.707031 149.386719 189.902344 C 153.214844 191.492188 157.148438 192.859375 160.878906 194.644531 C 170.5 199.253906 179.960938 204.167969 188.558594 210.574219 C 191.34375 212.644531 194.132812 214.714844 196.941406 216.753906 C 199.734375 218.785156 202.0625 221.265625 204.089844 224.042969 C 204.183594 224.171875 204.25 224.324219 204.347656 224.445312 C 204.746094 224.925781 205.242188 225.375 205.835938 224.910156 C 206.371094 224.492188 206.03125 223.960938 205.722656 223.492188 C 204.125 221.070312 202.179688 218.953125 200.023438 217.023438 C 199.363281 216.429688 198.65625 215.882812 198.042969 215.164062 C 204.707031 216.402344 210.757812 219.714844 217.65625 220.695312 C 211.242188 228.859375 204.769531 236.851562 198.320312 244.625 C 192.941406 237.46875 186.371094 231.554688 178.570312 226.808594 C 169.714844 221.421875 160.027344 217.980469 150.542969 214.117188 C 142.640625 210.902344 134.363281 208.613281 126.042969 205.847656 C 127.3125 204.199219 128.625 202.605469 129.820312 200.925781 C 135.734375 192.613281 142.386719 184.871094 148.777344 176.9375 C 153.078125 171.601562 156.796875 165.882812 160.949219 160.460938 C 167.503906 151.90625 174.167969 143.429688 180.402344 134.628906 C 180.996094 133.789062 181.441406 133.6875 182.417969 133.945312 C 187.097656 135.179688 191.574219 136.960938 196.082031 138.679688 C 198.636719 139.652344 200.972656 141.042969 203.382812 142.28125 C 207.257812 144.269531 211.367188 145.816406 214.914062 148.457031 C 215.847656 149.152344 215.96875 149.632812 215.460938 150.617188 C 214.007812 153.433594 212.707031 156.324219 211.785156 159.410156 C 203.289062 152.578125 193.703125 148.28125 183.800781 144.609375 C 183.320312 144.429688 182.429688 143.488281 182.089844 144.519531 C 181.792969 145.417969 182.917969 145.5625 183.570312 145.839844 C 188.652344 148.019531 193.757812 150.144531 198.621094 152.796875 C 202.226562 154.761719 205.847656 156.714844 209.0625 159.308594 C 211.066406 160.929688 211.054688 160.941406 210.214844 163.273438 C 209.054688 166.488281 207.464844 169.515625 206.097656 172.636719 C 205.726562 173.484375 205.476562 173.632812 204.71875 172.960938 C 202.070312 170.628906 199.179688 168.601562 196.359375 166.488281 C 190.453125 162.0625 183.722656 159.214844 177.03125 156.292969 C 176.359375 156 175.65625 155.777344 175.078125 155.25 C 174.648438 154.863281 174.042969 154.839844 173.714844 155.433594 C 173.414062 155.976562 173.800781 156.367188 174.25 156.589844 C 175.875 157.382812 177.484375 158.222656 179.15625 158.902344 C 188.246094 162.597656 196.257812 168.019531 203.792969 174.21875 C 204.582031 174.867188 204.90625 175.449219 204.445312 176.507812 C 203.191406 179.386719 202.039062 182.3125 200.890625 185.238281 C 200.539062 186.125 200.265625 186.132812 199.457031 185.59375 C 191.398438 180.1875 183.566406 174.417969 174.917969 169.941406 C 172.414062 168.644531 169.871094 167.429688 167.082031 166.820312 C 166.511719 166.699219 165.933594 166.550781 165.75 167.203125 C 165.558594 167.890625 166.199219 168.046875 166.726562 168.195312 C 170.449219 169.238281 173.816406 171.0625 177.144531 172.972656 C 184.417969 177.148438 191.160156 182.140625 198.191406 186.6875 C 199.335938 187.429688 199.746094 188.074219 199.128906 189.476562 C 198.097656 191.808594 197.308594 194.25 196.488281 196.671875 C 196.195312 197.546875 195.917969 197.472656 195.292969 196.984375 C 184.949219 188.960938 173.300781 183.425781 161.046875 179.050781 C 159.933594 178.65625 158.800781 178.394531 157.609375 178.441406 C 157.226562 178.457031 156.800781 178.464844 156.734375 178.941406 C 156.664062 179.484375 157.082031 179.625 157.523438 179.753906 C 167.296875 182.546875 176.496094 186.660156 185.089844 192.070312 C 188.335938 194.117188 191.707031 195.996094 194.636719 198.515625 C 195.039062 198.863281 195.679688 199.058594 195.253906 199.898438 C 193.539062 203.300781 192.675781 206.984375 191.898438 210.835938 Z M 142.015625 198.109375 C 141.675781 198.074219 141.328125 198.152344 141.289062 198.535156 C 141.238281 199.046875 141.582031 199.25 142.066406 199.355469 C 143.621094 199.6875 145.195312 199.980469 146.71875 200.4375 C 158.972656 204.117188 169.945312 210.46875 180.808594 217.015625 C 187.648438 221.136719 194.109375 225.757812 199.191406 232.058594 C 199.542969 232.496094 200 233.09375 200.636719 232.488281 C 201.234375 231.914062 200.703125 231.390625 200.34375 230.960938 C 197.984375 228.117188 195.472656 225.398438 192.59375 223.09375 C 187.457031 218.980469 181.679688 215.847656 176.121094 212.367188 C 167.382812 206.894531 158.148438 202.667969 148.402344 199.445312 C 146.3125 198.753906 144.1875 198.363281 142.015625 198.109375 Z M 201.324219 243.734375 C 204.515625 239.453125 208.039062 235.441406 211.363281 231.261719 C 219.835938 220.601562 228.007812 209.714844 236.164062 198.8125 C 239.78125 193.988281 243.390625 189.15625 246.984375 184.3125 C 247.707031 183.335938 248.589844 182.722656 249.757812 182.324219 C 254.445312 180.71875 259.238281 179.375 264.105469 178.710938 C 271.847656 177.660156 279.554688 175.960938 287.460938 176.535156 C 291.085938 176.796875 294.621094 177.570312 298.195312 178.148438 C 304.082031 179.097656 309.96875 180.019531 315.625 181.992188 C 317.28125 182.570312 318.90625 183.234375 320.566406 183.808594 C 321.753906 184.222656 322.046875 184.621094 320.988281 185.65625 C 318.738281 187.855469 316.433594 190 314.238281 192.265625 C 307.515625 199.195312 301.324219 206.59375 295.089844 213.949219 C 290.984375 218.789062 286.492188 223.320312 282.898438 228.582031 C 280.429688 232.191406 278.152344 235.933594 275.375 239.332031 C 274.800781 240.035156 274.296875 240.242188 273.507812 240.019531 C 269.3125 238.851562 264.988281 238.8125 260.691406 238.472656 C 257.074219 238.1875 253.457031 237.710938 249.835938 237.777344 C 242.804688 237.910156 235.757812 237.398438 228.734375 238.375 C 224.941406 238.902344 221.074219 238.894531 217.300781 239.652344 C 211.976562 240.726562 206.847656 242.515625 201.636719 244.015625 C 201.53125 243.921875 201.429688 243.828125 201.324219 243.734375 Z M 230.289062 219.613281 C 230.824219 219.574219 231.148438 219.578125 231.460938 219.519531 C 236.226562 218.652344 240.820312 217.136719 245.453125 215.785156 C 246.96875 215.34375 248.570312 214.808594 249.566406 213.453125 C 252.660156 209.238281 255.886719 205.105469 258.433594 200.515625 C 259.480469 198.636719 259.175781 198.1875 257.136719 197.703125 C 254.566406 197.089844 252.167969 197.960938 249.746094 198.417969 C 245.304688 199.261719 241.097656 200.605469 238.34375 204.667969 C 237.117188 206.472656 235.613281 208.085938 234.25 209.796875 C 232.222656 212.34375 230.078125 214.792969 228.515625 217.6875 C 227.949219 218.738281 227.449219 219.472656 229.265625 219.378906 C 229.667969 219.359375 230.078125 219.5625 230.289062 219.613281 Z M 277.636719 193.21875 C 284.746094 193.542969 291.90625 193.597656 298.703125 196.222656 C 299.378906 196.484375 300.203125 196.742188 300.457031 195.851562 C 300.6875 195.042969 299.78125 194.9375 299.214844 194.703125 C 292.828125 192.046875 286.023438 191.789062 279.289062 191.5 C 273.449219 191.25 267.574219 191.347656 261.71875 191.933594 C 258.003906 192.308594 254.277344 192.539062 250.679688 193.589844 C 248.445312 194.246094 246.257812 195.082031 244.066406 195.882812 C 243.703125 196.015625 243.179688 196.289062 243.378906 196.804688 C 243.570312 197.308594 244.105469 197.101562 244.507812 197.042969 C 244.710938 197.011719 244.898438 196.875 245.101562 196.816406 C 249.183594 195.636719 253.226562 194.175781 257.496094 193.917969 C 264.195312 193.515625 270.882812 192.535156 277.636719 193.21875 Z M 278.292969 184.265625 C 274.671875 183.972656 271.570312 185.207031 268.347656 185.496094 C 262.25 186.042969 256.285156 187.363281 250.277344 188.453125 C 249.828125 188.535156 249.019531 188.589844 249.144531 189.28125 C 249.273438 189.976562 250.039062 189.753906 250.519531 189.679688 C 255.710938 188.859375 260.863281 187.777344 266.113281 187.324219 C 269.457031 187.039062 272.722656 185.980469 276.046875 185.929688 C 281.195312 185.851562 286.351562 185.15625 291.519531 186.140625 C 295.320312 186.863281 299.28125 186.640625 302.992188 188.003906 C 303.628906 188.238281 304.347656 188.273438 305.03125 188.34375 C 305.65625 188.410156 306.535156 188.535156 306.667969 187.816406 C 306.800781 187.101562 306.003906 186.859375 305.34375 186.734375 C 304.664062 186.609375 303.988281 186.464844 303.320312 186.296875 C 296.574219 184.574219 289.699219 183.980469 282.761719 183.96875 C 281.167969 183.96875 279.570312 184.175781 278.292969 184.265625 Z M 259.925781 222.164062 C 264.59375 222.117188 268.796875 222.972656 272.746094 224.675781 C 273.71875 225.097656 274.707031 225.53125 275.792969 225.492188 C 276.207031 225.476562 276.679688 225.335938 276.796875 224.835938 C 276.898438 224.402344 276.671875 224.121094 276.226562 224.050781 C 273.929688 223.703125 271.972656 222.417969 269.777344 221.761719 C 262.277344 219.523438 254.59375 220.523438 247.035156 220.738281 C 238.546875 220.976562 230.164062 222.734375 221.9375 225.007812 C 221.488281 225.132812 220.832031 225.09375 220.917969 225.730469 C 221.011719 226.425781 221.703125 226.371094 222.21875 226.28125 C 223.523438 226.058594 224.835938 225.832031 226.117188 225.503906 C 232.738281 223.816406 239.484375 222.917969 246.277344 222.417969 C 250.941406 222.074219 255.640625 222.519531 259.925781 222.164062 Z M 250.226562 228.273438 C 239.695312 228.214844 231.058594 229.4375 222.445312 230.882812 C 220.457031 231.214844 218.472656 231.554688 216.492188 231.9375 C 216.132812 232.007812 215.542969 232.042969 215.671875 232.679688 C 215.792969 233.296875 216.238281 233.308594 216.78125 233.222656 C 219.089844 232.863281 221.402344 232.519531 223.71875 232.210938 C 228.777344 231.53125 233.820312 230.632812 238.902344 230.269531 C 245.113281 229.824219 251.347656 229.605469 257.578125 230.46875 C 261.207031 230.972656 264.898438 231.023438 268.222656 232.898438 C 268.878906 233.265625 269.761719 233.253906 270.546875 233.371094 C 271.039062 233.445312 271.59375 233.382812 271.679688 232.78125 C 271.757812 232.226562 271.285156 231.804688 270.820312 231.816406 C 269.289062 231.847656 268.113281 230.929688 266.769531 230.464844 C 260.824219 228.410156 254.578125 228.824219 250.226562 228.273438 Z M 294.445312 201.664062 C 294.382812 201.234375 294.125 200.992188 293.746094 200.859375 C 292.898438 200.5625 292.066406 200.199219 291.199219 199.980469 C 287.226562 198.972656 283.191406 198.347656 279.09375 198.117188 C 273.914062 197.828125 268.765625 198.203125 263.632812 198.816406 C 263.207031 198.867188 262.207031 198.710938 262.335938 199.582031 C 262.433594 200.238281 263.21875 200.003906 263.71875 199.984375 C 266.757812 199.863281 269.796875 199.785156 272.828125 199.566406 C 276.734375 199.285156 280.597656 199.796875 284.449219 200.214844 C 287.335938 200.53125 290.207031 201.183594 292.945312 202.25 C 293.636719 202.519531 294.191406 202.484375 294.445312 201.664062 Z M 265.753906 205.101562 C 264.097656 205.101562 262.441406 205.101562 260.785156 205.101562 C 260.300781 205.105469 259.714844 205.097656 259.710938 205.746094 C 259.710938 206.363281 260.277344 206.417969 260.773438 206.449219 C 261.625 206.507812 262.476562 206.613281 263.328125 206.617188 C 268.878906 206.664062 274.402344 207.046875 279.882812 207.988281 C 282.132812 208.371094 284.390625 208.714844 286.566406 209.445312 C 287.113281 209.628906 287.824219 209.929688 288.097656 209.222656 C 288.410156 208.417969 287.660156 208.136719 287.050781 207.914062 C 286.457031 207.699219 285.851562 207.480469 285.234375 207.339844 C 278.820312 205.902344 272.332031 205.109375 265.753906 205.101562 Z M 261.371094 211.605469 C 260.226562 211.605469 258.46875 211.609375 256.707031 211.605469 C 256.152344 211.601562 255.523438 211.65625 255.464844 212.296875 C 255.394531 213.082031 256.113281 212.988281 256.625 213 C 258.652344 213.050781 260.683594 213.171875 262.707031 213.097656 C 268.628906 212.886719 274.308594 214.347656 280.042969 215.480469 C 280.792969 215.628906 281.867188 216.632812 282.25 215.476562 C 282.636719 214.3125 281.195312 214.320312 280.433594 213.96875 C 280.339844 213.921875 280.238281 213.871094 280.136719 213.851562 C 274.136719 212.703125 268.183594 211.175781 261.371094 211.605469 Z M 204.914062 246.753906 C 210.460938 246.117188 216.007812 246.308594 221.542969 246.695312 C 226.320312 247.03125 231.078125 247.632812 235.84375 248.140625 C 240.761719 248.667969 245.703125 248.957031 250.582031 249.871094 C 258.152344 251.289062 265.734375 252.613281 272.90625 255.570312 C 274.039062 256.035156 274.871094 255.71875 275.554688 254.800781 C 278.152344 251.328125 281.277344 248.3125 284.269531 245.214844 C 289.058594 240.261719 293.613281 235.089844 298.269531 230.023438 C 306.867188 220.664062 315.332031 211.183594 324.40625 202.277344 C 325.328125 201.375 324.941406 201.210938 324.042969 200.855469 C 320.082031 199.300781 315.941406 198.71875 311.738281 198.421875 C 311.296875 198.390625 310.914062 198.398438 310.585938 198.789062 C 308.652344 201.070312 306.292969 202.96875 304.503906 205.386719 C 300.144531 211.277344 295.007812 216.511719 290.332031 222.144531 C 287.394531 225.679688 284.449219 229.160156 281.957031 233.03125 C 280.601562 235.136719 279.097656 237.152344 277.621094 239.179688 C 276.121094 241.234375 274.382812 242.699219 271.632812 241.304688 C 271.355469 241.164062 271.015625 241.144531 270.703125 241.085938 C 266.179688 240.265625 261.574219 240.304688 257.015625 239.863281 C 249.726562 239.160156 242.386719 239.332031 235.078125 239.542969 C 230.132812 239.683594 225.199219 240.351562 220.273438 240.925781 C 214.375 241.617188 208.824219 243.742188 203.140625 245.304688 C 202.132812 245.582031 201.128906 245.96875 200.125 246.777344 C 201.839844 246.777344 203.394531 246.925781 204.914062 246.753906 Z M 127.804688 218.917969 C 132.816406 220.839844 137.761719 222.941406 142.832031 224.6875 C 154.589844 228.746094 166.175781 233.261719 177.601562 238.148438 C 184.074219 240.917969 190.449219 243.929688 196.992188 246.519531 C 196.582031 244.941406 195.726562 243.535156 194.558594 242.261719 C 191.804688 239.269531 188.933594 236.398438 185.820312 233.792969 C 183.773438 232.082031 181.671875 230.429688 179.359375 229.082031 C 173.464844 225.648438 167.359375 222.683594 161.03125 220.097656 C 153.40625 216.984375 145.882812 213.648438 137.957031 211.316406 C 133.949219 210.140625 130.011719 208.710938 125.917969 207.355469 C 125.917969 208.199219 125.925781 208.890625 125.917969 209.578125 C 125.90625 210.144531 126.125 210.511719 126.722656 210.558594 C 129.949219 210.816406 132.863281 212.164062 135.875 213.175781 C 142.667969 215.464844 149.4375 217.832031 156.046875 220.59375 C 159.910156 222.203125 163.699219 224.128906 167.597656 225.542969 C 173.039062 227.523438 177.835938 230.472656 182.667969 233.472656 C 184.976562 234.90625 186.65625 236.980469 188.644531 239.058594 C 187.554688 239.175781 187.085938 238.617188 186.597656 238.175781 C 182.5625 234.53125 177.789062 232.023438 173.097656 229.402344 C 170.542969 227.972656 167.585938 227.457031 165.007812 226.050781 C 161.171875 223.957031 157.035156 222.542969 153.007812 220.925781 C 146.015625 218.117188 138.84375 215.746094 131.753906 213.179688 C 129.882812 212.503906 127.980469 211.996094 126.132812 211.769531 C 125.320312 213.789062 126.382812 214.589844 127.976562 215.175781 C 129.421875 215.707031 130.828125 216.289062 132.386719 216.457031 C 135.238281 216.761719 137.632812 218.46875 140.351562 219.171875 C 144.125 220.140625 147.652344 221.75 151.269531 223.136719 C 155.042969 224.585938 158.597656 226.613281 162.371094 227.945312 C 167.050781 229.597656 171.527344 231.640625 176.074219 233.566406 C 177.910156 234.34375 179.613281 235.316406 181.152344 236.558594 C 182.226562 237.421875 183.277344 238.34375 183.863281 239.667969 C 181.21875 238.027344 178.714844 236.242188 175.851562 235.042969 C 172.957031 233.835938 170.082031 232.566406 167.234375 231.253906 C 164.582031 230.027344 161.675781 229.566406 159.042969 228.195312 C 153.285156 225.199219 147.1875 222.992188 141.085938 220.789062 C 136.160156 219.011719 131.078125 217.71875 126.023438 215.808594 C 125.742188 217.355469 126.34375 218.355469 127.804688 218.917969 Z M 279.5 269.335938 C 279.453125 268.175781 278.839844 267.101562 277.882812 266.828125 C 273.015625 265.417969 268.5625 263 263.828125 261.277344 C 258.402344 259.300781 252.789062 257.980469 247.234375 256.449219 C 246.84375 256.34375 246.382812 256.214844 246.539062 255.601562 C 247.722656 255.394531 248.867188 255.507812 250.003906 255.863281 C 251.722656 256.398438 253.429688 256.992188 255.175781 257.429688 C 260.15625 258.679688 265.113281 259.945312 269.796875 262.164062 C 272.082031 263.246094 274.414062 264.3125 276.914062 264.863281 C 276.964844 264.808594 277.019531 264.753906 277.070312 264.703125 C 276.980469 264.339844 276.871094 263.984375 276.804688 263.617188 C 276.53125 262.128906 275.808594 261.269531 274.171875 260.972656 C 271.832031 260.546875 269.546875 259.792969 267.234375 259.1875 C 260.820312 257.507812 254.421875 255.785156 247.917969 254.464844 C 243.964844 253.660156 239.964844 253.1875 235.972656 252.558594 C 236.152344 252 236.523438 251.980469 236.90625 251.984375 C 238.5625 251.996094 240.242188 251.824219 241.867188 252.046875 C 248.707031 252.976562 255.40625 254.605469 262.070312 256.394531 C 266.546875 257.597656 271.050781 258.710938 275.699219 259.90625 C 275.238281 258.476562 274.953125 257.207031 273.144531 257.308594 C 272.542969 257.339844 271.914062 257.015625 271.3125 256.8125 C 267.636719 255.582031 264.058594 254.0625 260.195312 253.414062 C 254.375 252.433594 248.632812 250.910156 242.738281 250.460938 C 235.667969 249.917969 228.660156 248.769531 221.589844 248.296875 C 216.25 247.941406 210.902344 247.753906 205.542969 248.355469 C 207.367188 248.875 209.195312 249.375 211.050781 249.722656 C 220.746094 251.539062 230.476562 253.1875 240.074219 255.496094 C 252.769531 258.546875 265.101562 262.644531 276.972656 268.109375 C 277.828125 268.5 278.453125 269.386719 279.519531 269.320312 Z M 280.445312 256.675781 C 284.484375 252.5625 288.5625 248.492188 292.601562 244.382812 C 296.871094 240.039062 301.265625 235.808594 305.320312 231.273438 C 310.589844 225.375 315.925781 219.53125 321.570312 214.011719 C 324.714844 210.933594 325.351562 207.398438 325.539062 203.253906 C 321.074219 207.914062 316.664062 212.394531 312.394531 217.003906 C 305.5 224.445312 298.707031 231.980469 291.855469 239.457031 C 289.585938 241.933594 287.464844 244.527344 285.046875 246.886719 C 282.648438 249.222656 280.449219 251.789062 278.140625 254.238281 C 275.890625 256.621094 275.972656 256.699219 277.738281 259.734375 C 278.6875 258.65625 279.519531 257.617188 280.445312 256.675781 Z M 222.921875 213.609375 C 223.90625 212.351562 224.886719 211.085938 225.875 209.832031 C 232.734375 201.105469 239.035156 191.953125 246.0625 183.355469 C 246.367188 182.980469 247.125 182.667969 246.546875 181.90625 C 243.847656 178.347656 241.074219 174.851562 238.035156 171.316406 C 236.660156 174.402344 235.382812 177.363281 234.019531 180.285156 C 233.601562 181.1875 233.769531 181.761719 234.535156 182.304688 C 235.902344 183.273438 237 184.511719 237.910156 185.90625 C 238.203125 186.351562 238.871094 186.878906 238.15625 187.410156 C 237.40625 187.964844 236.972656 187.226562 236.632812 186.738281 C 235.652344 185.332031 234.46875 184.140625 233.066406 182.976562 C 231.839844 186.503906 230.734375 189.953125 229.425781 193.320312 C 228.84375 194.8125 228.574219 196.015625 230.007812 197.121094 C 230.375 197.398438 230.714844 197.902344 230.296875 198.371094 C 229.824219 198.902344 229.457031 198.394531 229.085938 198.121094 C 228.757812 197.882812 228.613281 197.386719 227.996094 197.40625 C 226.230469 202.722656 224.457031 208.058594 222.683594 213.394531 C 222.761719 213.46875 222.839844 213.539062 222.921875 213.609375 Z M 315.105469 229.554688 C 309.839844 234.9375 304.621094 240.363281 299.285156 245.675781 C 293.238281 251.699219 288.003906 258.5 281.808594 264.402344 C 279.933594 266.1875 279.992188 266.246094 281.292969 268.53125 C 282.371094 270.425781 282.53125 270.390625 283.976562 268.671875 C 288.34375 263.480469 292.691406 258.273438 297.15625 253.171875 C 304.820312 244.414062 312.144531 235.339844 320.605469 227.296875 C 322.351562 225.636719 323.617188 223.644531 323.027344 220.789062 C 320.320312 223.800781 317.816406 226.78125 315.105469 229.554688 Z M 280.445312 263.75 C 283.449219 260.777344 286.183594 257.554688 289.089844 254.503906 C 293.835938 249.523438 298.269531 244.265625 303.292969 239.507812 C 309.839844 233.308594 315.808594 226.492188 322.019531 219.9375 C 323.6875 218.175781 324.265625 216.175781 323.851562 213.585938 C 322.828125 214.664062 321.832031 215.695312 320.855469 216.75 C 314.601562 223.484375 308.523438 230.382812 302.050781 236.914062 C 298.136719 240.859375 294.222656 244.8125 290.378906 248.820312 C 287.011719 252.328125 283.429688 255.617188 280.101562 259.164062 C 277.796875 261.617188 277.65625 261.480469 279 264.613281 C 279.019531 264.65625 279.070312 264.683594 279.410156 265.015625 C 279.777344 264.5625 280.074219 264.117188 280.445312 263.75 Z M 280.445312 263.75 " fill-opacity="1" fill-rule="nonzero"/></svg>