<svg xmlns="http://www.w3.org/2000/svg" xmlns:xlink="http://www.w3.org/1999/xlink" width="600" zoomAndPan="magnify" viewBox="0 0 450 412.499988" height="550" preserveAspectRatio="xMidYMid meet" version="1.0"><defs><g/><clipPath id="8da14ef11a"><path d="M 0.273438 0 L 449.726562 0 L 449.726562 412 L 0.273438 412 Z M 0.273438 0 " clip-rule="nonzero"/></clipPath><clipPath id="8f1def79ff"><path d="M 122.035156 90.628906 L 328 90.628906 L 328 232.957031 L 122.035156 232.957031 Z M 122.035156 90.628906 " clip-rule="nonzero"/></clipPath></defs><g clip-path="url(#8da14ef11a)"><path fill="#ffffff" d="M 0.273438 0 L 449.726562 0 L 449.726562 412 L 0.273438 412 Z M 0.273438 0 " fill-opacity="1" fill-rule="nonzero"/><path fill="#ffffff" d="M 0.273438 0 L 449.726562 0 L 449.726562 412 L 0.273438 412 Z M 0.273438 0 " fill-opacity="1" fill-rule="nonzero"/></g><g clip-path="url(#8f1def79ff)"><path fill="#1e3f48" d="M 326.804688 178.226562 C 325.605469 177.328125 324.40625 176.441406 322.949219 175.984375 C 322.472656 175.835938 321.992188 175.730469 322.113281 174.972656 C 322.40625 173.089844 322.566406 171.191406 322.847656 169.304688 C 323.378906 165.746094 324.070312 162.203125 324.203125 158.59375 C 324.253906 157.175781 323.632812 156.15625 322.253906 155.628906 C 321.003906 155.152344 319.761719 154.675781 318.453125 154.363281 C 315.664062 153.695312 312.867188 153.125 309.621094 153.078125 C 311.992188 150.5625 314.058594 148.285156 316.226562 146.101562 C 317.605469 144.710938 319.132812 143.460938 320.273438 141.847656 C 320.980469 140.84375 320.867188 140.078125 319.671875 139.511719 C 317.664062 138.558594 315.59375 137.792969 313.496094 137.078125 C 307.917969 135.171875 302.136719 134.21875 296.328125 133.335938 C 292.816406 132.800781 289.34375 132.054688 285.785156 131.800781 C 278.074219 131.25 270.554688 132.839844 263.011719 133.914062 C 258.351562 134.582031 253.726562 135.75 249.3125 137.515625 C 247.996094 138.042969 247.023438 138.046875 246.171875 136.601562 C 244.285156 133.390625 241.710938 130.671875 239.335938 127.824219 C 238.574219 126.90625 238.503906 126.269531 238.945312 125.261719 C 240.222656 122.34375 241.527344 119.429688 242.59375 116.433594 C 243.585938 113.65625 242.996094 111.445312 241.085938 110.558594 C 235.253906 107.867188 229.527344 104.921875 223.238281 103.328125 C 220.789062 102.707031 218.871094 103.1875 217.429688 105.273438 C 217.113281 105.730469 216.855469 105.949219 216.347656 105.503906 C 213.269531 102.820312 209.433594 101.453125 205.875 99.625 C 203.179688 98.242188 200.574219 96.660156 197.707031 95.609375 C 193.324219 94 188.984375 92.296875 184.46875 91.050781 C 182.917969 90.625 182.101562 90.742188 181.132812 92.050781 C 174.84375 100.542969 168.359375 108.886719 161.90625 117.253906 C 157.785156 122.597656 154.050781 128.210938 149.761719 133.453125 C 142.710938 142.066406 135.691406 150.71875 129.089844 159.691406 C 127.984375 161.195312 127.347656 162.714844 127.824219 164.5625 C 128.277344 166.335938 127.765625 167.789062 126.488281 169.046875 C 125.382812 170.140625 124.445312 171.382812 123.746094 172.773438 C 122.1875 175.871094 122.394531 177.34375 126 179.335938 C 126.359375 179.535156 126.757812 179.652344 127.136719 179.8125 C 130.3125 181.164062 133.800781 181.785156 136.832031 183.339844 C 140.613281 185.273438 144.46875 186.941406 148.472656 188.292969 C 153.84375 190.105469 158.820312 192.890625 164.261719 194.546875 C 169.566406 196.164062 174.976562 197.480469 180 199.976562 C 186.464844 203.191406 193.613281 204.675781 200.144531 207.75 C 200.972656 208.140625 201.890625 208.34375 202.777344 208.59375 C 207.722656 209.992188 212.773438 211.085938 217.582031 212.847656 C 222.183594 214.535156 226.855469 215.953125 231.550781 217.257812 C 238.140625 219.089844 244.828125 220.527344 251.285156 222.859375 C 258.96875 225.636719 267.128906 226.949219 274.644531 230.292969 C 276.230469 230.996094 277.917969 231.550781 279.609375 231.957031 C 283.730469 232.953125 284.582031 232.597656 286.089844 230.554688 C 287.867188 228.152344 289.660156 225.761719 291.542969 223.441406 C 294.796875 219.4375 298.378906 215.710938 301.621094 211.6875 C 305.121094 207.351562 308.511719 202.929688 312.40625 198.914062 C 317.851562 193.304688 322.167969 186.769531 327.117188 180.75 C 327.875 179.832031 327.785156 178.960938 326.804688 178.226562 Z M 326.804688 178.226562 " fill-opacity="1" fill-rule="nonzero"/></g><path fill="#e28b7a" d="M 229.8125 116.8125 C 229.675781 117.847656 229.773438 118.59375 231.519531 118.269531 C 232.769531 118.039062 233.445312 119.328125 233.820312 120.398438 C 234.199219 121.488281 233.550781 122.160156 232.523438 122.460938 C 231.199219 122.84375 230.691406 123.351562 231.691406 124.714844 C 232.5 125.8125 231.867188 126.96875 231.160156 127.972656 C 230.523438 128.867188 229.855469 129.871094 228.585938 129.554688 C 227.277344 129.226562 226.847656 129.8125 226.492188 130.898438 C 225.757812 133.140625 224.46875 134.03125 222.683594 133.664062 C 221.183594 133.359375 220.625 132.507812 220.925781 130.988281 C 221.230469 129.429688 221.125 129.328125 219.539062 129.628906 C 217.984375 129.921875 216.929688 129.261719 216.359375 127.648438 C 215.910156 126.375 216.386719 125.039062 217.882812 124.59375 C 219.84375 124.007812 219.277344 123.238281 218.46875 122.113281 C 217.277344 120.460938 217.417969 118.820312 218.742188 117.171875 C 220.113281 115.472656 221.078125 115.402344 222.691406 116.871094 C 223.0625 117.210938 223.367188 117.878906 223.859375 117.773438 C 224.511719 117.636719 224.15625 116.894531 224.253906 116.425781 C 224.863281 113.613281 226.613281 112.777344 228.902344 114.15625 C 229.902344 114.757812 229.863281 115.640625 229.8125 116.8125 Z M 221.722656 124.613281 C 221.722656 126.6875 222.753906 127.824219 224.609375 127.800781 C 226.632812 127.777344 228.871094 125.507812 228.878906 123.464844 C 228.886719 121.769531 226.628906 119.785156 224.742188 119.832031 C 223.191406 119.871094 221.71875 122.203125 221.722656 124.613281 Z M 210.480469 138.585938 C 207.417969 142.507812 206.882812 148.757812 209.335938 152.808594 C 210.464844 147.957031 211.453125 143.464844 210.480469 138.585938 Z M 217.003906 158.347656 C 221.207031 156.023438 223.011719 153.773438 223.890625 149.675781 C 220.636719 151.976562 218.160156 154.527344 217.003906 158.347656 Z M 217.003906 158.347656 " fill-opacity="1" fill-rule="nonzero"/><path fill="#b9bba3" d="M 241.289062 114.304688 C 241.292969 115.25 241.046875 116.136719 240.671875 116.992188 C 234.355469 131.28125 228.53125 145.757812 223.878906 160.6875 C 222.613281 164.746094 221.230469 168.78125 219.292969 172.609375 C 218.570312 174.039062 217.769531 174.476562 216.164062 174.082031 C 212.90625 173.285156 209.757812 172.140625 206.625 171.023438 C 203.363281 169.867188 200.054688 168.945312 196.710938 168.128906 C 195.203125 167.757812 194.648438 167.144531 195.019531 165.578125 C 195.722656 162.625 196.492188 159.71875 197.773438 156.941406 C 198.761719 154.800781 199.53125 152.554688 200.347656 150.339844 C 203.671875 141.320312 207.285156 132.425781 211.332031 123.703125 C 212.453125 121.285156 213.382812 118.769531 214.226562 116.238281 C 215.332031 112.910156 216.984375 109.828125 218.335938 106.613281 C 219.289062 104.359375 220.457031 103.9375 222.769531 104.585938 C 228.847656 106.289062 234.40625 109.242188 240.175781 111.695312 C 241.074219 112.078125 241.332031 112.785156 241.289062 114.304688 Z M 235.285156 120.941406 C 235.136719 119.554688 234.527344 118.289062 233.402344 117.6875 C 231.929688 116.902344 230.910156 116.042969 230.777344 114.292969 C 230.730469 113.722656 230.148438 113.382812 229.652344 113.085938 C 226.785156 111.351562 225 111.890625 223.480469 114.980469 C 223.238281 115.472656 223.148438 115.652344 222.574219 115.265625 C 221.878906 114.796875 221.101562 114.347656 220.136719 114.699219 C 217.816406 115.542969 215.15625 119.351562 217.15625 122.292969 C 217.773438 123.203125 217.519531 123.449219 216.738281 123.976562 C 214.230469 125.660156 214.488281 129.566406 217.3125 130.53125 C 218.835938 131.046875 219.503906 131.566406 219.992188 133.132812 C 220.347656 134.269531 220.746094 135.058594 219.984375 136.105469 C 219.703125 136.496094 219.636719 137.058594 219.53125 137.558594 C 218.949219 140.296875 217.882812 142.839844 216.457031 145.242188 C 215.796875 146.351562 215.355469 147.554688 214.886719 148.753906 C 213.492188 152.316406 212.816406 156.027344 212.382812 159.820312 C 212.082031 162.476562 210.886719 164.917969 210.117188 167.46875 C 209.984375 167.910156 209.683594 168.40625 210.300781 168.632812 C 210.867188 168.839844 211.117188 168.351562 211.265625 167.886719 C 212.09375 165.253906 213.328125 162.742188 213.6875 159.964844 C 214.164062 156.242188 214.761719 152.527344 216.269531 149.070312 C 218.109375 144.851562 220.472656 140.847656 221.320312 136.242188 C 221.375 135.949219 221.609375 135.691406 221.683594 135.394531 C 221.8125 134.914062 222.144531 134.929688 222.523438 134.949219 C 225.035156 135.078125 226.621094 134.152344 227.527344 131.859375 C 227.792969 131.195312 227.988281 130.894531 228.78125 130.871094 C 231.5625 130.792969 233.953125 127.332031 233.054688 124.632812 C 232.804688 123.878906 232.941406 123.699219 233.578125 123.453125 C 234.710938 123.011719 235.175781 122.066406 235.285156 120.941406 Z M 212.121094 142.585938 C 212.296875 140.753906 212.082031 138.996094 211.195312 137.359375 C 210.984375 136.964844 210.839844 136.453125 210.246094 136.488281 C 209.691406 136.519531 209.515625 136.980469 209.308594 137.390625 C 208.234375 139.488281 207.273438 141.648438 206.628906 143.902344 C 205.691406 147.179688 206.664062 150.261719 208.050781 153.222656 C 208.28125 153.71875 208.695312 154.21875 209.375 154.09375 C 209.976562 153.984375 210.074219 153.40625 210.246094 152.933594 C 211.457031 149.589844 212.058594 146.132812 212.121094 142.585938 Z M 215.863281 160.292969 C 221.863281 157.761719 224.511719 154.414062 225.558594 149.136719 C 225.65625 148.636719 225.683594 148.238281 225.285156 147.878906 C 224.800781 147.441406 224.414062 147.828125 224.039062 148.050781 C 221.191406 149.746094 218.878906 152.007812 217.222656 154.867188 C 216.273438 156.503906 215.726562 158.292969 215.863281 160.292969 Z M 231.457031 173.25 C 235.835938 172.339844 240.054688 170.84375 244.363281 169.683594 C 245.539062 169.367188 246.84375 168.988281 247.597656 167.980469 C 250.472656 164.152344 253.347656 160.320312 255.839844 156.222656 C 256.386719 155.320312 256.074219 155.105469 255.140625 155.027344 C 253.460938 154.886719 251.882812 155.351562 250.28125 155.683594 C 244.882812 156.800781 240.148438 158.957031 237.132812 163.910156 C 236.332031 165.222656 235.257812 166.367188 234.308594 167.585938 C 232.929688 169.359375 231.339844 170.992188 230.332031 173.320312 C 230.851562 173.289062 231.164062 173.3125 231.457031 173.25 Z M 225.023438 121.574219 C 223.847656 121.53125 223.019531 122.734375 223.03125 124.59375 C 223.035156 125.617188 223.429688 126.394531 224.640625 126.390625 C 225.917969 126.386719 227.308594 124.898438 227.328125 123.507812 C 227.34375 122.390625 226.433594 121.628906 225.023438 121.574219 Z M 225.023438 121.574219 " fill-opacity="1" fill-rule="nonzero"/><path fill="#106585" d="M 127.898438 169.660156 C 127.929688 170.152344 127.996094 170.398438 127.957031 170.625 C 127.457031 173.558594 128.886719 175.023438 131.554688 175.996094 C 141.070312 179.449219 150.566406 182.964844 160 186.628906 C 168.921875 190.089844 177.863281 193.519531 186.433594 197.796875 C 190.171875 199.664062 194.195312 200.789062 197.992188 202.527344 C 200.125 203.503906 202.863281 203.296875 205.277344 203.980469 C 212.867188 206.125 220.703125 207.074219 228.417969 208.613281 C 243.613281 211.644531 258.4375 215.855469 272.65625 222.070312 C 274.960938 223.074219 277.046875 224.527344 279.546875 225.144531 C 280.671875 225.421875 281.507812 225.4375 282.320312 224.546875 C 285.582031 220.960938 288.6875 217.238281 291.828125 213.546875 C 297.3125 207.101562 302.945312 200.785156 308.53125 194.425781 C 311.460938 191.089844 314.371094 187.734375 317.664062 184.734375 C 319.683594 182.894531 321.191406 180.714844 321.742188 177.992188 C 321.929688 177.070312 322.351562 177.117188 322.992188 177.46875 C 323.082031 177.515625 323.171875 177.570312 323.265625 177.613281 C 326.367188 179.121094 326.359375 179.207031 324.21875 181.8125 C 320.355469 186.519531 317.042969 191.671875 312.835938 196.097656 C 304.894531 204.449219 298.175781 213.839844 290.433594 222.363281 C 288.433594 224.5625 286.78125 227.082031 285.019531 229.496094 C 284.015625 230.871094 282.652344 231.394531 280.621094 230.738281 C 277.882812 229.855469 275.128906 228.96875 272.496094 227.824219 C 266.9375 225.410156 260.90625 224.550781 255.261719 222.5 C 244.746094 218.679688 233.679688 216.746094 223.132812 213.125 C 215.972656 210.664062 208.609375 208.9375 201.464844 206.5 C 195.339844 204.410156 189.234375 202.203125 183.3125 199.617188 C 177.300781 196.996094 171.171875 194.808594 164.875 193.035156 C 159.699219 191.578125 155.015625 188.882812 149.960938 187.101562 C 145.695312 185.59375 141.417969 184.113281 137.488281 181.761719 C 136.027344 180.886719 134.203125 180.609375 132.527344 180.105469 C 130.152344 179.394531 127.90625 178.375 125.671875 177.320312 C 124.484375 176.761719 123.988281 175.972656 124.515625 174.59375 C 125.222656 172.730469 126.402344 171.253906 127.898438 169.660156 Z M 127.898438 169.660156 " fill-opacity="1" fill-rule="nonzero"/><path fill="#e3d8d6" d="M 193.101562 166.449219 C 190.21875 164.5625 187.585938 162.488281 184.742188 160.714844 C 174.925781 154.589844 164.710938 149.28125 153.742188 145.492188 C 153.257812 145.324219 152.746094 145.226562 152.257812 145.070312 C 151.769531 144.914062 151.167969 144.570312 150.917969 145.242188 C 150.605469 146.085938 151.492188 146.074219 151.941406 146.257812 C 155.648438 147.792969 159.457031 149.109375 163.070312 150.835938 C 172.386719 155.277344 181.542969 160.019531 189.871094 166.195312 C 192.566406 168.195312 195.265625 170.191406 197.984375 172.160156 C 200.691406 174.117188 202.941406 176.507812 204.90625 179.1875 C 204.996094 179.3125 205.0625 179.457031 205.160156 179.578125 C 205.542969 180.039062 206.023438 180.472656 206.597656 180.023438 C 207.117188 179.621094 206.789062 179.109375 206.488281 178.65625 C 204.941406 176.320312 203.058594 174.277344 200.972656 172.417969 C 200.332031 171.84375 199.644531 171.320312 199.054688 170.625 C 205.507812 171.820312 211.363281 175.011719 218.042969 175.957031 C 211.832031 183.832031 205.566406 191.542969 199.320312 199.039062 C 194.113281 192.136719 187.753906 186.433594 180.195312 181.855469 C 171.625 176.660156 162.246094 173.339844 153.0625 169.617188 C 145.410156 166.511719 137.394531 164.308594 129.339844 161.640625 C 130.566406 160.050781 131.839844 158.511719 132.996094 156.894531 C 138.722656 148.875 145.164062 141.40625 151.351562 133.757812 C 155.515625 128.609375 159.117188 123.09375 163.136719 117.867188 C 169.484375 109.613281 175.9375 101.4375 181.972656 92.953125 C 182.546875 92.140625 182.980469 92.042969 183.921875 92.292969 C 188.453125 93.484375 192.792969 95.199219 197.15625 96.859375 C 199.625 97.796875 201.890625 99.136719 204.222656 100.332031 C 207.972656 102.25 211.957031 103.738281 215.386719 106.285156 C 216.292969 106.957031 216.410156 107.421875 215.917969 108.371094 C 214.507812 111.085938 213.25 113.875 212.359375 116.851562 C 204.132812 110.261719 194.851562 106.117188 185.265625 102.574219 C 184.800781 102.402344 183.9375 101.496094 183.605469 102.488281 C 183.316406 103.359375 184.40625 103.496094 185.039062 103.765625 C 189.960938 105.867188 194.902344 107.917969 199.609375 110.472656 C 203.101562 112.367188 206.609375 114.25 209.71875 116.753906 C 211.660156 118.316406 211.652344 118.328125 210.835938 120.578125 C 209.714844 123.679688 208.175781 126.597656 206.851562 129.609375 C 206.492188 130.425781 206.25 130.566406 205.515625 129.921875 C 202.953125 127.671875 200.15625 125.71875 197.421875 123.679688 C 191.703125 119.410156 185.1875 116.664062 178.707031 113.84375 C 178.054688 113.5625 177.375 113.347656 176.816406 112.839844 C 176.402344 112.46875 175.816406 112.441406 175.496094 113.015625 C 175.207031 113.539062 175.582031 113.917969 176.015625 114.128906 C 177.589844 114.898438 179.148438 115.707031 180.765625 116.363281 C 189.566406 119.925781 197.324219 125.152344 204.621094 131.132812 C 205.382812 131.761719 205.699219 132.320312 205.25 133.339844 C 204.035156 136.117188 202.921875 138.941406 201.808594 141.761719 C 201.46875 142.617188 201.203125 142.625 200.421875 142.105469 C 192.617188 136.890625 185.035156 131.328125 176.660156 127.011719 C 174.238281 125.757812 171.773438 124.585938 169.078125 124 C 168.523438 123.878906 167.960938 123.738281 167.785156 124.367188 C 167.601562 125.03125 168.222656 125.183594 168.730469 125.324219 C 172.335938 126.332031 175.597656 128.089844 178.820312 129.933594 C 185.859375 133.960938 192.386719 138.773438 199.195312 143.160156 C 200.304688 143.875 200.699219 144.496094 200.101562 145.847656 C 199.105469 148.101562 198.339844 150.457031 197.550781 152.789062 C 197.265625 153.632812 196.996094 153.558594 196.386719 153.089844 C 186.371094 145.351562 175.09375 140.015625 163.230469 135.796875 C 162.152344 135.414062 161.058594 135.160156 159.902344 135.207031 C 159.535156 135.222656 159.121094 135.230469 159.058594 135.6875 C 158.988281 136.214844 159.390625 136.351562 159.820312 136.472656 C 169.285156 139.164062 178.1875 143.132812 186.511719 148.351562 C 189.65625 150.324219 192.917969 152.136719 195.753906 154.566406 C 196.144531 154.902344 196.761719 155.089844 196.351562 155.902344 C 194.691406 159.183594 193.855469 162.734375 193.101562 166.449219 Z M 144.804688 154.175781 C 144.476562 154.140625 144.136719 154.21875 144.101562 154.585938 C 144.050781 155.078125 144.382812 155.277344 144.855469 155.378906 C 146.359375 155.699219 147.882812 155.980469 149.359375 156.421875 C 161.222656 159.96875 171.847656 166.097656 182.367188 172.410156 C 188.988281 176.382812 195.246094 180.84375 200.164062 186.917969 C 200.503906 187.339844 200.949219 187.917969 201.5625 187.332031 C 202.144531 186.777344 201.625 186.273438 201.28125 185.859375 C 198.996094 183.117188 196.5625 180.496094 193.773438 178.273438 C 188.800781 174.308594 183.207031 171.285156 177.828125 167.925781 C 169.367188 162.648438 160.425781 158.574219 150.988281 155.464844 C 148.96875 154.796875 146.90625 154.421875 144.804688 154.175781 Z M 202.226562 198.179688 C 205.320312 194.050781 208.730469 190.179688 211.949219 186.148438 C 220.152344 175.871094 228.066406 165.367188 235.964844 154.855469 C 239.464844 150.199219 242.960938 145.539062 246.4375 140.867188 C 247.136719 139.925781 247.996094 139.335938 249.125 138.949219 C 253.664062 137.402344 258.304688 136.105469 263.019531 135.46875 C 270.511719 134.453125 277.976562 132.8125 285.632812 133.367188 C 289.140625 133.621094 292.566406 134.367188 296.023438 134.921875 C 301.722656 135.839844 307.421875 136.726562 312.898438 138.632812 C 314.503906 139.1875 316.078125 139.832031 317.683594 140.382812 C 318.835938 140.78125 319.117188 141.164062 318.09375 142.164062 C 315.914062 144.289062 313.683594 146.351562 311.558594 148.539062 C 305.046875 155.226562 299.054688 162.359375 293.015625 169.453125 C 289.042969 174.121094 284.691406 178.492188 281.210938 183.566406 C 278.824219 187.046875 276.617188 190.65625 273.925781 193.933594 C 273.371094 194.613281 272.882812 194.808594 272.121094 194.597656 C 268.058594 193.472656 263.871094 193.433594 259.710938 193.105469 C 256.207031 192.828125 252.707031 192.367188 249.203125 192.433594 C 242.390625 192.5625 235.566406 192.070312 228.769531 193.007812 C 225.09375 193.519531 221.351562 193.511719 217.699219 194.242188 C 212.542969 195.277344 207.578125 197.003906 202.535156 198.453125 C 202.429688 198.359375 202.328125 198.269531 202.226562 198.179688 Z M 230.273438 174.917969 C 230.792969 174.878906 231.109375 174.882812 231.410156 174.828125 C 236.023438 173.988281 240.472656 172.527344 244.957031 171.222656 C 246.425781 170.796875 247.976562 170.28125 248.9375 168.972656 C 251.933594 164.90625 255.058594 160.925781 257.527344 156.5 C 258.539062 154.683594 258.246094 154.25 256.269531 153.78125 C 253.78125 153.191406 251.457031 154.03125 249.113281 154.476562 C 244.816406 155.285156 240.742188 156.585938 238.070312 160.5 C 236.886719 162.242188 235.429688 163.796875 234.109375 165.449219 C 232.148438 167.902344 230.070312 170.265625 228.558594 173.058594 C 228.011719 174.070312 227.523438 174.78125 229.285156 174.691406 C 229.671875 174.671875 230.070312 174.867188 230.273438 174.917969 Z M 276.121094 149.457031 C 283.003906 149.773438 289.9375 149.824219 296.515625 152.355469 C 297.167969 152.609375 297.96875 152.855469 298.214844 152 C 298.4375 151.21875 297.558594 151.117188 297.011719 150.890625 C 290.828125 148.328125 284.238281 148.078125 277.71875 147.800781 C 272.0625 147.558594 266.375 147.65625 260.707031 148.222656 C 257.109375 148.578125 253.5 148.804688 250.019531 149.816406 C 247.851562 150.449219 245.734375 151.257812 243.613281 152.027344 C 243.261719 152.15625 242.753906 152.421875 242.945312 152.917969 C 243.136719 153.402344 243.648438 153.203125 244.039062 153.148438 C 244.238281 153.117188 244.417969 152.984375 244.617188 152.929688 C 248.570312 151.792969 252.480469 150.378906 256.617188 150.132812 C 263.105469 149.746094 269.582031 148.800781 276.121094 149.457031 Z M 276.753906 140.824219 C 273.246094 140.539062 270.242188 141.734375 267.125 142.011719 C 261.21875 142.539062 255.445312 143.8125 249.628906 144.859375 C 249.191406 144.941406 248.40625 144.992188 248.53125 145.660156 C 248.65625 146.332031 249.398438 146.117188 249.859375 146.046875 C 254.886719 145.253906 259.878906 144.210938 264.960938 143.773438 C 268.195312 143.496094 271.363281 142.480469 274.582031 142.429688 C 279.566406 142.355469 284.558594 141.683594 289.5625 142.632812 C 293.238281 143.328125 297.074219 143.113281 300.667969 144.429688 C 301.285156 144.652344 301.980469 144.691406 302.644531 144.757812 C 303.246094 144.820312 304.097656 144.941406 304.226562 144.246094 C 304.359375 143.558594 303.585938 143.324219 302.945312 143.207031 C 302.289062 143.082031 301.632812 142.945312 300.984375 142.78125 C 294.453125 141.121094 287.796875 140.546875 281.082031 140.539062 C 279.535156 140.535156 277.992188 140.738281 276.753906 140.824219 Z M 258.972656 177.378906 C 263.492188 177.328125 267.558594 178.15625 271.382812 179.800781 C 272.324219 180.203125 273.28125 180.625 274.335938 180.585938 C 274.734375 180.574219 275.191406 180.433594 275.304688 179.949219 C 275.402344 179.535156 275.183594 179.261719 274.75 179.195312 C 272.53125 178.863281 270.632812 177.621094 268.507812 176.988281 C 261.246094 174.828125 253.804688 175.792969 246.492188 176 C 238.269531 176.230469 230.152344 177.925781 222.191406 180.121094 C 221.75 180.242188 221.117188 180.203125 221.203125 180.816406 C 221.292969 181.484375 221.960938 181.433594 222.460938 181.347656 C 223.722656 181.132812 224.992188 180.914062 226.234375 180.597656 C 232.644531 178.96875 239.179688 178.101562 245.753906 177.621094 C 250.273438 177.289062 254.820312 177.71875 258.972656 177.378906 Z M 249.578125 183.265625 C 239.382812 183.210938 231.019531 184.390625 222.679688 185.785156 C 220.753906 186.105469 218.832031 186.433594 216.917969 186.800781 C 216.566406 186.867188 215.996094 186.902344 216.121094 187.515625 C 216.238281 188.113281 216.671875 188.121094 217.195312 188.039062 C 219.429688 187.691406 221.667969 187.363281 223.914062 187.066406 C 228.808594 186.410156 233.695312 185.546875 238.613281 185.191406 C 244.628906 184.761719 250.664062 184.550781 256.695312 185.386719 C 260.210938 185.871094 263.78125 185.921875 267 187.726562 C 267.636719 188.085938 268.492188 188.074219 269.253906 188.183594 C 269.730469 188.253906 270.269531 188.195312 270.351562 187.617188 C 270.425781 187.082031 269.96875 186.675781 269.515625 186.683594 C 268.035156 186.714844 266.894531 185.828125 265.597656 185.382812 C 259.839844 183.398438 253.792969 183.796875 249.578125 183.265625 Z M 292.394531 157.605469 C 292.332031 157.191406 292.082031 156.957031 291.714844 156.828125 C 290.894531 156.539062 290.089844 156.191406 289.25 155.980469 C 285.402344 155.007812 281.496094 154.40625 277.527344 154.183594 C 272.511719 153.902344 267.53125 154.265625 262.558594 154.855469 C 262.144531 154.90625 261.175781 154.757812 261.300781 155.59375 C 261.398438 156.230469 262.15625 156 262.644531 155.984375 C 265.585938 155.867188 268.527344 155.792969 271.460938 155.582031 C 275.246094 155.308594 278.984375 155.800781 282.714844 156.207031 C 285.511719 156.511719 288.289062 157.140625 290.9375 158.167969 C 291.609375 158.429688 292.148438 158.394531 292.394531 157.605469 Z M 264.613281 160.921875 C 263.007812 160.921875 261.40625 160.917969 259.804688 160.921875 C 259.332031 160.921875 258.765625 160.917969 258.761719 161.539062 C 258.761719 162.136719 259.3125 162.1875 259.789062 162.21875 C 260.613281 162.277344 261.4375 162.375 262.261719 162.382812 C 267.640625 162.425781 272.988281 162.796875 278.292969 163.703125 C 280.472656 164.074219 282.65625 164.40625 284.761719 165.109375 C 285.292969 165.289062 285.980469 165.574219 286.25 164.894531 C 286.550781 164.117188 285.824219 163.847656 285.234375 163.632812 C 284.65625 163.425781 284.074219 163.214844 283.476562 163.078125 C 277.265625 161.691406 270.980469 160.925781 264.613281 160.921875 Z M 260.367188 167.191406 C 259.261719 167.191406 257.558594 167.195312 255.851562 167.191406 C 255.316406 167.191406 254.707031 167.242188 254.652344 167.855469 C 254.585938 168.617188 255.277344 168.527344 255.773438 168.539062 C 257.738281 168.585938 259.703125 168.703125 261.660156 168.632812 C 267.394531 168.425781 272.894531 169.839844 278.445312 170.929688 C 279.171875 171.070312 280.214844 172.039062 280.582031 170.925781 C 280.957031 169.800781 279.5625 169.8125 278.828125 169.46875 C 278.734375 169.425781 278.640625 169.375 278.539062 169.359375 C 272.730469 168.253906 266.964844 166.777344 260.367188 167.191406 Z M 205.707031 201.089844 C 211.074219 200.476562 216.449219 200.664062 221.808594 201.035156 C 226.433594 201.359375 231.039062 201.9375 235.652344 202.429688 C 240.414062 202.9375 245.199219 203.214844 249.921875 204.097656 C 257.25 205.464844 264.597656 206.742188 271.539062 209.59375 C 272.632812 210.042969 273.4375 209.738281 274.105469 208.855469 C 276.617188 205.503906 279.640625 202.59375 282.539062 199.605469 C 287.179688 194.828125 291.585938 189.84375 296.09375 184.957031 C 304.421875 175.929688 312.617188 166.785156 321.402344 158.195312 C 322.292969 157.324219 321.921875 157.167969 321.050781 156.824219 C 317.214844 155.324219 313.207031 154.761719 309.136719 154.476562 C 308.710938 154.445312 308.339844 154.457031 308.019531 154.828125 C 306.148438 157.03125 303.867188 158.863281 302.132812 161.191406 C 297.910156 166.875 292.9375 171.925781 288.410156 177.355469 C 285.566406 180.769531 282.714844 184.125 280.300781 187.855469 C 278.988281 189.890625 277.535156 191.832031 276.101562 193.785156 C 274.652344 195.769531 272.964844 197.183594 270.304688 195.835938 C 270.039062 195.703125 269.707031 195.683594 269.40625 195.625 C 265.023438 194.832031 260.566406 194.871094 256.152344 194.449219 C 249.09375 193.769531 241.988281 193.933594 234.910156 194.136719 C 230.125 194.273438 225.34375 194.917969 220.578125 195.472656 C 214.867188 196.136719 209.492188 198.1875 203.988281 199.695312 C 203.011719 199.960938 202.042969 200.332031 201.066406 201.113281 C 202.730469 201.117188 204.234375 201.257812 205.707031 201.089844 Z M 131.046875 174.246094 C 135.894531 176.097656 140.6875 178.125 145.59375 179.808594 C 156.980469 183.722656 168.199219 188.082031 179.261719 192.792969 C 185.527344 195.464844 191.699219 198.367188 198.035156 200.867188 C 197.640625 199.34375 196.8125 197.984375 195.675781 196.757812 C 193.011719 193.871094 190.234375 191.105469 187.214844 188.589844 C 185.238281 186.941406 183.203125 185.347656 180.960938 184.046875 C 175.253906 180.734375 169.34375 177.875 163.214844 175.382812 C 155.832031 172.378906 148.550781 169.160156 140.875 166.914062 C 136.992188 165.777344 133.183594 164.398438 129.21875 163.089844 C 129.21875 163.90625 129.226562 164.570312 129.21875 165.238281 C 129.207031 165.78125 129.417969 166.136719 129.996094 166.183594 C 133.121094 166.429688 135.945312 167.730469 138.859375 168.707031 C 145.4375 170.914062 151.988281 173.199219 158.390625 175.859375 C 162.128906 177.414062 165.796875 179.269531 169.574219 180.636719 C 174.84375 182.542969 179.488281 185.390625 184.167969 188.28125 C 186.402344 189.664062 188.027344 191.667969 189.953125 193.671875 C 188.898438 193.785156 188.441406 193.242188 187.96875 192.820312 C 184.0625 189.304688 179.441406 186.882812 174.902344 184.355469 C 172.425781 182.976562 169.5625 182.480469 167.066406 181.125 C 163.351562 179.105469 159.347656 177.742188 155.449219 176.179688 C 148.675781 173.472656 141.734375 171.1875 134.871094 168.710938 C 133.058594 168.058594 131.21875 167.570312 129.425781 167.351562 C 128.640625 169.300781 129.667969 170.070312 131.210938 170.632812 C 132.609375 171.148438 133.972656 171.707031 135.484375 171.871094 C 138.246094 172.164062 140.5625 173.8125 143.195312 174.488281 C 146.847656 175.425781 150.261719 176.976562 153.765625 178.3125 C 157.417969 179.710938 160.863281 181.664062 164.515625 182.949219 C 169.042969 184.542969 173.378906 186.515625 177.78125 188.371094 C 179.558594 189.121094 181.207031 190.058594 182.699219 191.257812 C 183.738281 192.09375 184.753906 192.980469 185.324219 194.257812 C 182.761719 192.675781 180.335938 190.953125 177.5625 189.796875 C 174.761719 188.632812 171.980469 187.410156 169.222656 186.140625 C 166.652344 184.957031 163.839844 184.515625 161.289062 183.195312 C 155.71875 180.304688 149.8125 178.175781 143.90625 176.050781 C 139.136719 174.332031 134.210938 173.089844 129.324219 171.246094 C 129.046875 172.734375 129.632812 173.703125 131.046875 174.246094 Z M 277.921875 222.871094 C 277.878906 221.753906 277.28125 220.71875 276.355469 220.449219 C 271.644531 219.09375 267.332031 216.757812 262.75 215.097656 C 257.492188 213.191406 252.058594 211.917969 246.679688 210.445312 C 246.304688 210.339844 245.855469 210.21875 246.007812 209.625 C 247.152344 209.425781 248.261719 209.535156 249.363281 209.878906 C 251.027344 210.394531 252.679688 210.964844 254.371094 211.386719 C 259.195312 212.59375 263.992188 213.816406 268.527344 215.953125 C 270.738281 216.996094 272.996094 218.027344 275.421875 218.558594 C 275.46875 218.503906 275.519531 218.453125 275.570312 218.402344 C 275.484375 218.054688 275.378906 217.707031 275.3125 217.355469 C 275.046875 215.921875 274.351562 215.089844 272.765625 214.804688 C 270.496094 214.394531 268.285156 213.667969 266.046875 213.082031 C 259.835938 211.464844 253.640625 209.804688 247.34375 208.527344 C 243.515625 207.753906 239.640625 207.296875 235.777344 206.6875 C 235.953125 206.148438 236.3125 206.132812 236.683594 206.136719 C 238.285156 206.144531 239.910156 205.984375 241.484375 206.195312 C 248.109375 207.09375 254.59375 208.664062 261.046875 210.390625 C 265.382812 211.550781 269.742188 212.625 274.242188 213.777344 C 273.796875 212.394531 273.519531 211.171875 271.769531 211.269531 C 271.1875 211.304688 270.578125 210.988281 269.996094 210.792969 C 266.433594 209.605469 262.96875 208.140625 259.230469 207.515625 C 253.59375 206.566406 248.035156 205.101562 242.328125 204.664062 C 235.480469 204.144531 228.699219 203.035156 221.851562 202.582031 C 216.679688 202.238281 211.503906 202.054688 206.3125 202.636719 C 208.078125 203.136719 209.847656 203.617188 211.644531 203.953125 C 221.035156 205.707031 230.453125 207.296875 239.75 209.523438 C 252.039062 212.464844 263.980469 216.417969 275.476562 221.6875 C 276.304688 222.066406 276.90625 222.917969 277.941406 222.855469 Z M 278.839844 210.660156 C 282.75 206.695312 286.699219 202.769531 290.609375 198.804688 C 294.742188 194.617188 298.996094 190.535156 302.921875 186.160156 C 308.023438 180.472656 313.191406 174.835938 318.65625 169.515625 C 321.703125 166.542969 322.316406 163.136719 322.5 159.136719 C 318.175781 163.632812 313.90625 167.953125 309.773438 172.398438 C 303.097656 179.578125 296.519531 186.84375 289.886719 194.054688 C 287.6875 196.441406 285.632812 198.945312 283.292969 201.21875 C 280.96875 203.472656 278.839844 205.949219 276.605469 208.308594 C 274.425781 210.609375 274.503906 210.683594 276.21875 213.609375 C 277.136719 212.570312 277.941406 211.570312 278.839844 210.660156 Z M 223.140625 169.125 C 224.09375 167.910156 225.046875 166.691406 226.003906 165.480469 C 232.640625 157.066406 238.742188 148.238281 245.546875 139.945312 C 245.84375 139.585938 246.578125 139.28125 246.015625 138.546875 C 243.402344 135.117188 240.71875 131.742188 237.773438 128.335938 C 236.445312 131.308594 235.203125 134.164062 233.886719 136.984375 C 233.480469 137.855469 233.644531 138.410156 234.386719 138.933594 C 235.710938 139.867188 236.773438 141.058594 237.65625 142.40625 C 237.9375 142.835938 238.582031 143.34375 237.894531 143.855469 C 237.167969 144.394531 236.746094 143.679688 236.417969 143.207031 C 235.46875 141.851562 234.320312 140.703125 232.964844 139.582031 C 231.777344 142.984375 230.707031 146.308594 229.4375 149.558594 C 228.875 150.996094 228.613281 152.15625 230.003906 153.222656 C 230.355469 153.492188 230.683594 153.976562 230.28125 154.429688 C 229.824219 154.941406 229.46875 154.449219 229.109375 154.1875 C 228.792969 153.957031 228.652344 153.480469 228.054688 153.5 C 226.34375 158.625 224.625 163.773438 222.910156 168.917969 C 222.988281 168.988281 223.0625 169.054688 223.140625 169.125 Z M 312.394531 184.503906 C 307.300781 189.695312 302.246094 194.925781 297.078125 200.054688 C 291.226562 205.859375 286.15625 212.421875 280.15625 218.113281 C 278.34375 219.835938 278.398438 219.890625 279.65625 222.09375 C 280.703125 223.921875 280.855469 223.890625 282.257812 222.230469 C 286.484375 217.222656 290.695312 212.203125 295.015625 207.28125 C 302.441406 198.832031 309.53125 190.082031 317.722656 182.324219 C 319.414062 180.726562 320.636719 178.804688 320.070312 176.050781 C 317.445312 178.953125 315.023438 181.828125 312.394531 184.503906 Z M 278.839844 217.484375 C 281.746094 214.617188 284.390625 211.507812 287.207031 208.566406 C 291.800781 203.761719 296.097656 198.691406 300.957031 194.105469 C 307.296875 188.125 313.078125 181.550781 319.089844 175.226562 C 320.707031 173.53125 321.265625 171.601562 320.867188 169.101562 C 319.875 170.140625 318.910156 171.136719 317.964844 172.152344 C 311.910156 178.648438 306.023438 185.304688 299.757812 191.601562 C 295.96875 195.410156 292.179688 199.21875 288.453125 203.085938 C 285.195312 206.46875 281.726562 209.640625 278.503906 213.0625 C 276.273438 215.425781 276.136719 215.296875 277.4375 218.316406 C 277.457031 218.355469 277.507812 218.386719 277.835938 218.703125 C 278.191406 218.269531 278.480469 217.839844 278.839844 217.484375 Z M 278.839844 217.484375 " fill-opacity="1" fill-rule="nonzero"/><g fill="#000000" fill-opacity="1"><g transform="translate(133.979264, 278.345927)"><g><path d="M 20.566406 -9.53125 C 21.003906 -9.636719 21.1875 -9.996094 21.160156 -10.308594 C 21.082031 -10.644531 20.875 -10.902344 20.359375 -10.800781 C 18.648438 -10.386719 17.09375 -10.179688 15.515625 -10.152344 C 15.308594 -12.042969 15.023438 -14.117188 14.554688 -15.902344 C 14.425781 -16.421875 14.011719 -16.601562 13.703125 -16.523438 C 13.363281 -16.421875 13.105469 -16.109375 13.234375 -15.617188 C 13.882812 -13.210938 14.167969 -10.542969 14.347656 -7.976562 L 14.402344 -6.421875 L 14.402344 -5.800781 C 13.777344 -5.699219 13.027344 -5.515625 12.277344 -5.285156 L 10.023438 -4.636719 C 9.375 -4.429688 8.910156 -4.273438 8.289062 -4.171875 C 7.667969 -4.039062 7.019531 -3.9375 6.164062 -3.910156 C 4.792969 -3.832031 4.585938 -4.117188 4.453125 -5.078125 C 4.351562 -5.671875 4.351562 -6.476562 4.429688 -7.484375 C 4.453125 -8.445312 4.53125 -9.582031 4.453125 -10.800781 C 4.378906 -11.527344 4.351562 -12.277344 4.273438 -13.105469 C 4.195312 -13.933594 4.117188 -14.867188 3.886719 -15.902344 C 3.601562 -17.09375 2.253906 -16.523438 2.460938 -15.644531 C 2.902344 -13.441406 3.003906 -11.886719 3.082031 -10.542969 C 3.082031 -9.53125 3.054688 -8.519531 3.03125 -7.511719 C 3.003906 -6.476562 2.980469 -5.4375 3.082031 -4.480469 C 3.1875 -3.054688 4.246094 -2.488281 5.984375 -2.5625 C 6.941406 -2.5625 7.691406 -2.695312 8.417969 -2.824219 C 9.144531 -3.003906 9.765625 -3.210938 10.515625 -3.417969 L 11.472656 -3.703125 L 12.40625 -4.015625 C 12.691406 -4.117188 13.027344 -4.222656 13.363281 -4.300781 L 14.453125 -4.53125 L 14.453125 -2.902344 C 14.425781 -2.511719 14.710938 -2.226562 15.046875 -2.203125 C 15.332031 -2.175781 15.667969 -2.304688 15.773438 -2.796875 C 15.800781 -2.953125 15.800781 -3.210938 15.800781 -3.601562 L 15.800781 -4.921875 C 15.773438 -5.929688 15.695312 -7.070312 15.667969 -8.082031 C 15.667969 -8.160156 15.644531 -8.3125 15.644531 -8.445312 C 15.617188 -8.496094 15.617188 -8.546875 15.617188 -8.625 L 15.617188 -8.832031 C 17.300781 -8.9375 18.882812 -9.144531 20.566406 -9.53125 Z M 20.566406 -9.53125 "/></g></g></g><g fill="#000000" fill-opacity="1"><g transform="translate(155.629468, 278.345927)"><g><path d="M 11.1875 -12.019531 C 11.527344 -13.441406 11.707031 -15.4375 11.8125 -17.171875 C 11.886719 -18.078125 11.757812 -18.699219 11.472656 -19.011719 C 11.164062 -19.347656 10.566406 -19.582031 9.660156 -19.710938 C 9.144531 -19.789062 8.160156 -19.839844 7.070312 -19.917969 C 5.90625 -19.996094 4.714844 -20.019531 3.730469 -20.046875 C 2.847656 -20.046875 2.382812 -19.867188 2.148438 -19.476562 C 1.890625 -19.089844 1.839844 -18.542969 1.8125 -17.921875 C 1.734375 -16.730469 1.683594 -15.667969 1.65625 -14.710938 C 1.632812 -13.753906 1.683594 -12.71875 1.761719 -11.550781 C 1.863281 -10.128906 2.203125 -9.324219 3.574219 -8.988281 C 4.636719 -8.675781 6.242188 -8.574219 7.511719 -8.574219 C 8.988281 -8.574219 9.789062 -8.832031 10.308594 -9.453125 C 10.773438 -10.050781 10.957031 -10.902344 11.1875 -12.019531 Z M 9.917969 -12.328125 C 9.765625 -11.472656 9.53125 -10.851562 9.21875 -10.464844 C 8.9375 -10.074219 8.289062 -9.894531 7.328125 -9.894531 C 7.097656 -9.894531 6.890625 -9.894531 6.628906 -9.917969 L 5.929688 -9.972656 C 5.4375 -10.050781 5 -10.074219 4.558594 -10.152344 C 3.367188 -10.28125 3.109375 -10.851562 3.082031 -11.863281 C 3.003906 -13.078125 3.003906 -13.933594 3.003906 -14.761719 C 3.003906 -15.617188 3.003906 -16.421875 3.082031 -17.484375 C 3.109375 -18.492188 3.367188 -18.828125 4.246094 -18.804688 C 4.894531 -18.777344 5.957031 -18.726562 6.96875 -18.648438 C 7.953125 -18.570312 8.960938 -18.519531 9.480469 -18.441406 C 9.867188 -18.363281 10.203125 -18.363281 10.386719 -18.15625 C 10.566406 -17.976562 10.59375 -17.664062 10.566406 -16.964844 C 10.464844 -15.203125 10.152344 -13.363281 9.917969 -12.328125 Z M 20.667969 -13.234375 C 21.109375 -13.261719 21.238281 -13.597656 21.238281 -13.910156 C 21.210938 -14.21875 21.003906 -14.503906 20.566406 -14.503906 C 19.710938 -14.425781 19.035156 -14.402344 18.3125 -14.324219 C 17.636719 -14.296875 16.992188 -14.269531 16.34375 -14.296875 C 16.238281 -15.644531 16.007812 -16.992188 15.332031 -18.882812 C 15.152344 -19.320312 14.738281 -19.425781 14.425781 -19.320312 C 14.0625 -19.21875 13.804688 -18.90625 13.984375 -18.492188 C 14.867188 -16.238281 15.046875 -14.140625 15.125 -12.820312 L 15.125 -11.007812 C 15.125 -10.464844 15.101562 -9.996094 15.101562 -9.480469 C 15.074219 -8.988281 15.359375 -8.78125 15.695312 -8.78125 C 16.007812 -8.78125 16.367188 -9.011719 16.394531 -9.429688 C 16.5 -10.566406 16.5 -11.601562 16.394531 -12.976562 C 17.769531 -12.898438 19.191406 -13.027344 20.667969 -13.234375 Z M 14.0625 -0.441406 C 15.902344 -0.671875 17.84375 -1.191406 19.917969 -2.203125 C 20.359375 -2.410156 20.433594 -2.769531 20.332031 -3.082031 C 20.203125 -3.367188 19.867188 -3.574219 19.347656 -3.367188 C 18.3125 -2.925781 17.457031 -2.589844 16.835938 -2.382812 C 16.1875 -2.203125 15.4375 -2.019531 14.660156 -1.839844 C 13.339844 -1.527344 13.078125 -1.761719 13.078125 -2.617188 C 13.054688 -3.523438 13.054688 -4.144531 13.132812 -4.792969 L 13.46875 -7.019531 C 13.546875 -7.511719 13.234375 -7.769531 12.925781 -7.769531 C 12.613281 -7.796875 12.277344 -7.5625 12.199219 -7.148438 C 11.863281 -5.515625 11.707031 -3.960938 11.785156 -2.410156 C 11.785156 -1.789062 11.785156 -1.242188 12.121094 -0.855469 C 12.40625 -0.441406 12.976562 -0.257812 14.0625 -0.441406 Z M 14.0625 -0.441406 "/></g></g></g><g fill="#000000" fill-opacity="1"><g transform="translate(177.279673, 278.345927)"><g><path d="M 6.835938 -14.503906 C 7.589844 -14.632812 8.105469 -14.582031 8.496094 -14.554688 C 9.582031 -14.453125 10.773438 -13.984375 10.773438 -13.078125 C 10.773438 -12.25 10.308594 -11.734375 9.660156 -11.320312 C 9.039062 -10.902344 8.238281 -10.644531 7.511719 -10.4375 C 6.835938 -10.230469 5.59375 -10.050781 4.84375 -10.050781 C 3.652344 -10.050781 3.289062 -10.488281 3.289062 -11.214844 C 3.289062 -11.914062 3.703125 -12.613281 4.429688 -13.234375 C 5.101562 -13.777344 5.984375 -14.296875 6.835938 -14.503906 Z M 5.777344 -15.515625 C 4.816406 -15.203125 3.832031 -14.554688 3.082031 -13.753906 C 2.355469 -13.003906 1.863281 -12.019531 1.863281 -11.109375 C 1.863281 -9.273438 3.082031 -8.675781 4.738281 -8.675781 C 5.59375 -8.675781 6.5 -8.804688 7.5625 -9.089844 C 8.652344 -9.324219 9.84375 -9.765625 10.695312 -10.410156 C 11.601562 -11.109375 12.199219 -11.964844 12.199219 -13.132812 C 12.199219 -13.910156 11.835938 -14.53125 11.136719 -14.996094 C 10.4375 -15.488281 9.636719 -15.773438 8.703125 -15.851562 C 8.160156 -15.878906 7.175781 -15.953125 5.777344 -15.515625 Z M 2.253906 -3.808594 C 4.636719 -3.417969 6.605469 -3.339844 8.3125 -3.339844 C 9.945312 -3.367188 11.394531 -3.546875 12.792969 -3.78125 C 13.234375 -3.859375 13.46875 -4.195312 13.417969 -4.507812 C 13.339844 -4.816406 13.105469 -5.050781 12.664062 -4.972656 C 10.980469 -4.6875 9.558594 -4.585938 7.953125 -4.609375 C 6.34375 -4.636719 4.585938 -4.765625 2.355469 -5.078125 C 1.8125 -5.152344 1.476562 -4.871094 1.449219 -4.558594 C 1.371094 -4.246094 1.605469 -3.886719 2.253906 -3.808594 Z M 17.09375 -14.6875 C 16.964844 -15.203125 16.578125 -15.308594 16.265625 -15.203125 C 15.953125 -15.101562 15.667969 -14.789062 15.773438 -14.453125 C 16.1875 -12.792969 16.265625 -10.828125 16.265625 -9.167969 C 16.265625 -7.589844 16.109375 -6.242188 16.085938 -5.90625 C 15.980469 -5.464844 16.292969 -5.179688 16.601562 -5.101562 C 16.9375 -5.078125 17.277344 -5.257812 17.378906 -5.800781 C 17.40625 -6.085938 17.585938 -7.511719 17.585938 -9.246094 C 17.585938 -11.007812 17.535156 -13.054688 17.09375 -14.6875 Z M 17.09375 -14.6875 "/></g></g></g><g fill="#000000" fill-opacity="1"><g transform="translate(198.929877, 278.345927)"><g/></g></g><g fill="#000000" fill-opacity="1"><g transform="translate(206.103451, 278.345927)"><g><path d="M 9.816406 -9.089844 C 9.582031 -10.128906 9.296875 -10.902344 8.988281 -11.628906 C 8.675781 -12.355469 8.390625 -13.027344 8.160156 -13.832031 C 8.546875 -14.554688 8.882812 -15.253906 9.195312 -16.109375 C 9.917969 -18.363281 8.960938 -19.011719 7.148438 -18.882812 C 5.929688 -18.804688 5.128906 -18.699219 4.351562 -18.597656 C 3.574219 -18.519531 2.746094 -18.441406 1.527344 -18.441406 C 1.011719 -18.441406 0.828125 -18.105469 0.828125 -17.792969 C 0.855469 -17.457031 1.113281 -17.121094 1.578125 -17.121094 C 2.769531 -17.121094 3.546875 -17.199219 4.300781 -17.300781 L 6.554688 -17.585938 C 8.160156 -17.691406 8.3125 -17.457031 7.667969 -16.007812 C 6.835938 -14.167969 5.335938 -12.042969 2.410156 -10.101562 C 1.96875 -9.789062 1.941406 -9.402344 2.175781 -9.117188 C 2.355469 -8.804688 2.746094 -8.703125 3.238281 -9.039062 C 4.765625 -10.050781 6.113281 -11.136719 7.148438 -12.457031 C 7.328125 -11.863281 7.613281 -11.371094 7.820312 -10.773438 C 8.027344 -10.152344 8.238281 -9.53125 8.445312 -8.78125 C 8.546875 -8.390625 8.9375 -8.261719 9.273438 -8.339844 C 9.609375 -8.417969 9.894531 -8.675781 9.816406 -9.089844 Z M 20.667969 -13.234375 C 21.109375 -13.261719 21.238281 -13.597656 21.238281 -13.910156 C 21.210938 -14.21875 21.003906 -14.503906 20.566406 -14.503906 C 19.710938 -14.425781 19.035156 -14.402344 18.3125 -14.324219 C 17.636719 -14.296875 16.992188 -14.269531 16.34375 -14.296875 C 16.238281 -15.644531 16.007812 -16.992188 15.332031 -18.882812 C 15.152344 -19.320312 14.738281 -19.425781 14.425781 -19.320312 C 14.0625 -19.21875 13.804688 -18.90625 13.984375 -18.492188 C 14.867188 -16.238281 15.046875 -14.140625 15.125 -12.820312 L 15.125 -11.007812 C 15.125 -10.464844 15.101562 -9.996094 15.101562 -9.480469 C 15.074219 -8.988281 15.359375 -8.78125 15.695312 -8.78125 C 16.007812 -8.78125 16.367188 -9.011719 16.394531 -9.429688 C 16.5 -10.566406 16.5 -11.601562 16.394531 -12.976562 C 17.769531 -12.898438 19.191406 -13.027344 20.667969 -13.234375 Z M 12.148438 -5.75 C 14.039062 -5.542969 15.566406 -5.75 16.707031 -6.035156 C 17.042969 -6.113281 17.222656 -6.164062 17.328125 -6.085938 C 17.40625 -6.007812 17.378906 -5.851562 17.351562 -5.4375 C 17.144531 -3.960938 17.144531 -1.035156 17.558594 0.285156 C 17.664062 0.777344 18.050781 0.984375 18.390625 0.90625 C 18.675781 0.878906 18.960938 0.597656 18.882812 0.179688 C 18.542969 -1.65625 18.390625 -4.09375 18.699219 -5.929688 C 18.855469 -6.835938 18.699219 -7.226562 18.414062 -7.355469 C 18.078125 -7.535156 17.691406 -7.433594 17.429688 -7.355469 C 16.757812 -7.175781 15.929688 -7.019531 14.945312 -6.890625 C 13.960938 -6.785156 13.105469 -6.8125 12.355469 -6.96875 C 11.707031 -7.046875 11.371094 -6.8125 11.292969 -6.5 C 11.265625 -6.164062 11.5 -5.828125 12.148438 -5.75 Z M 12.148438 -5.75 "/></g></g></g><g fill="#000000" fill-opacity="1"><g transform="translate(227.753656, 278.345927)"><g><path d="M 8.390625 -18.542969 C 7.433594 -18.234375 6.476562 -17.585938 5.722656 -16.785156 C 4.972656 -16.03125 4.507812 -15.046875 4.507812 -14.140625 C 4.507812 -12.300781 5.699219 -11.707031 7.328125 -11.707031 C 8.238281 -11.707031 9.144531 -11.835938 10.203125 -12.121094 C 11.292969 -12.40625 12.484375 -12.820312 13.339844 -13.46875 C 14.246094 -14.117188 14.839844 -14.996094 14.839844 -16.160156 C 14.839844 -16.9375 14.476562 -17.558594 13.777344 -18.027344 C 13.078125 -18.519531 12.277344 -18.804688 11.34375 -18.882812 C 10.722656 -18.90625 9.789062 -18.984375 8.390625 -18.542969 Z M 9.480469 -17.535156 C 10.230469 -17.664062 10.722656 -17.613281 11.136719 -17.585938 C 11.65625 -17.535156 12.171875 -17.378906 12.640625 -17.144531 C 13.15625 -16.914062 13.390625 -16.550781 13.390625 -16.109375 C 13.390625 -15.308594 12.949219 -14.761719 12.300781 -14.347656 C 11.65625 -13.933594 10.878906 -13.703125 10.152344 -13.496094 C 9.429688 -13.285156 8.210938 -13.078125 7.460938 -13.078125 C 6.292969 -13.078125 5.929688 -13.519531 5.929688 -14.246094 C 5.929688 -14.945312 6.34375 -15.644531 7.070312 -16.265625 C 7.71875 -16.859375 8.625 -17.328125 9.480469 -17.535156 Z M 19.660156 -8.726562 C 19.996094 -8.832031 20.125 -9.195312 20.046875 -9.503906 C 19.96875 -9.84375 19.734375 -10.101562 19.296875 -9.996094 C 18.128906 -9.660156 16.421875 -9.375 14.582031 -9.167969 C 12.71875 -8.988281 10.773438 -8.859375 9.144531 -8.832031 C 7.925781 -8.804688 6.5 -8.804688 5.308594 -8.832031 C 4.144531 -8.859375 3.132812 -8.910156 2.824219 -8.9375 C 1.578125 -8.9375 1.632812 -7.691406 2.746094 -7.5625 C 3.132812 -7.484375 4.324219 -7.460938 5.621094 -7.433594 L 7.613281 -7.433594 C 8.289062 -7.433594 8.859375 -7.433594 9.296875 -7.460938 C 12.664062 -7.5625 16.601562 -7.820312 19.660156 -8.726562 Z M 8.390625 2.5625 C 9.273438 2.539062 10.902344 2.332031 12.535156 2.019531 C 14.195312 1.710938 15.929688 1.320312 17.144531 0.878906 C 17.558594 0.75 17.691406 0.386719 17.585938 0.078125 C 17.457031 -0.234375 17.144531 -0.464844 16.601562 -0.285156 C 15.410156 0.128906 13.960938 0.414062 12.5625 0.648438 C 11.1875 0.878906 9.84375 1.035156 8.988281 1.140625 C 7.667969 1.320312 7.40625 1.191406 7.40625 0.335938 C 7.40625 -1.605469 7.535156 -3.546875 7.820312 -5.128906 C 7.898438 -5.621094 7.613281 -5.878906 7.277344 -5.90625 C 6.96875 -5.929688 6.578125 -5.75 6.5 -5.335938 C 6.34375 -4.480469 6.242188 -3.496094 6.191406 -2.382812 C 6.136719 -1.296875 6.113281 -0.3125 6.113281 0.542969 C 6.113281 1.140625 6.085938 1.632812 6.398438 2.019531 C 6.734375 2.410156 7.277344 2.640625 8.390625 2.5625 Z M 8.390625 2.5625 "/></g></g></g><g fill="#000000" fill-opacity="1"><g transform="translate(249.40386, 278.345927)"><g/></g></g><g fill="#000000" fill-opacity="1"><g transform="translate(256.577434, 278.345927)"><g><path d="M 10.929688 -6.5 C 8.859375 -7.613281 7.589844 -8.753906 6.191406 -10.488281 C 6.398438 -10.929688 6.65625 -11.371094 6.914062 -11.863281 C 7.148438 -12.300781 7.40625 -12.769531 7.613281 -13.285156 C 7.820312 -13.703125 7.589844 -14.089844 7.253906 -14.21875 C 6.914062 -14.324219 6.449219 -14.21875 6.242188 -13.777344 C 4.921875 -10.878906 3.316406 -8.210938 1.632812 -5.644531 C 1.296875 -5.128906 1.449219 -4.738281 1.761719 -4.558594 C 2.097656 -4.429688 2.539062 -4.453125 2.875 -4.972656 C 3.753906 -6.320312 4.660156 -7.746094 5.515625 -9.21875 C 6.890625 -7.5625 8.132812 -6.398438 10.257812 -5.285156 C 10.671875 -5.050781 11.007812 -5.257812 11.1875 -5.570312 C 11.320312 -5.878906 11.265625 -6.292969 10.929688 -6.5 Z M 16.757812 -3.625 C 16.652344 -3.1875 16.9375 -2.875 17.25 -2.796875 C 17.558594 -2.71875 17.949219 -2.875 18.078125 -3.367188 C 18.519531 -4.894531 18.570312 -7.40625 18.441406 -9.789062 C 18.261719 -12.148438 17.898438 -14.425781 17.558594 -15.460938 C 17.351562 -15.878906 16.992188 -16.007812 16.628906 -15.902344 C 16.316406 -15.800781 16.058594 -15.515625 16.214844 -15.101562 C 16.5 -14.195312 16.785156 -12.664062 16.992188 -11.007812 C 15.824219 -10.621094 14.761719 -10.515625 13.933594 -10.4375 C 13.078125 -10.410156 12.40625 -10.4375 12.070312 -10.4375 C 11.679688 -10.4375 11.394531 -10.128906 11.371094 -9.816406 C 11.34375 -9.503906 11.527344 -9.167969 12.019531 -9.144531 C 12.226562 -9.117188 12.949219 -9.039062 13.882812 -9.117188 C 14.839844 -9.144531 16.03125 -9.273438 17.144531 -9.582031 C 17.25 -7.589844 17.199219 -5.386719 16.757812 -3.625 Z M 16.757812 -3.625 "/></g></g></g><g fill="#000000" fill-opacity="1"><g transform="translate(278.227639, 278.345927)"><g><path d="M 11.085938 -3.679688 C 10.773438 -4.6875 10.4375 -5.414062 10.023438 -6.136719 C 9.6875 -6.863281 9.296875 -7.5625 8.988281 -8.574219 C 9.53125 -9.582031 9.84375 -10.644531 10.152344 -11.757812 C 10.671875 -14.039062 9.636719 -14.660156 7.820312 -14.347656 C 6.628906 -14.140625 5.699219 -13.984375 4.816406 -13.804688 C 3.859375 -13.675781 2.953125 -13.546875 1.761719 -13.441406 C 1.296875 -13.363281 1.113281 -13.003906 1.140625 -12.691406 C 1.21875 -12.355469 1.476562 -12.042969 1.917969 -12.121094 C 3.109375 -12.226562 4.09375 -12.328125 4.921875 -12.511719 C 5.75 -12.640625 6.5 -12.792969 7.40625 -12.976562 C 8.910156 -13.210938 9.144531 -13.027344 8.597656 -11.5 C 8.003906 -9.609375 6.605469 -6.605469 3.886719 -4.480469 C 3.496094 -4.171875 3.523438 -3.753906 3.730469 -3.46875 C 3.9375 -3.1875 4.378906 -3.082031 4.84375 -3.46875 C 6.113281 -4.480469 7.199219 -5.671875 8.105469 -7.046875 C 8.390625 -6.398438 8.625 -5.851562 8.9375 -5.257812 C 9.21875 -4.714844 9.480469 -4.066406 9.765625 -3.261719 C 9.867188 -2.875 10.308594 -2.796875 10.621094 -2.902344 C 10.929688 -3.003906 11.1875 -3.261719 11.085938 -3.679688 Z M 20.019531 -4.53125 C 20.125 -5.050781 20.253906 -5.957031 20.28125 -6.992188 C 20.304688 -8.054688 20.28125 -9.21875 20.253906 -10.335938 L 20.152344 -11.242188 L 20.097656 -12.355469 L 19.996094 -13.496094 C 19.96875 -13.882812 19.917969 -14.21875 19.867188 -14.503906 C 19.761719 -15.046875 19.347656 -15.203125 19.011719 -15.101562 C 18.597656 -14.996094 18.363281 -14.660156 18.46875 -14.246094 C 18.542969 -13.832031 18.621094 -13.027344 18.699219 -12.226562 C 18.777344 -11.394531 18.855469 -10.59375 18.882812 -10.152344 L 18.882812 -9.375 C 17.664062 -9.296875 16.292969 -9.429688 15.125 -9.636719 C 15.125 -10.257812 15.175781 -10.902344 15.203125 -11.550781 C 15.230469 -12.25 15.253906 -12.898438 15.332031 -13.625 C 15.332031 -14.140625 15.023438 -14.402344 14.660156 -14.402344 C 14.324219 -14.402344 13.984375 -14.167969 13.984375 -13.675781 C 13.882812 -12.121094 13.804688 -10.515625 13.777344 -8.832031 C 13.753906 -7.148438 13.777344 -5.644531 13.882812 -4.324219 C 13.910156 -3.808594 14.296875 -3.601562 14.632812 -3.625 C 14.996094 -3.652344 15.28125 -3.886719 15.28125 -4.378906 C 15.175781 -5.722656 15.125 -6.992188 15.125 -8.261719 C 15.667969 -8.160156 16.265625 -8.105469 16.886719 -8.082031 C 17.507812 -8.054688 18.128906 -8.054688 18.882812 -8.105469 C 18.882812 -6.785156 18.777344 -5.4375 18.648438 -4.792969 C 18.542969 -4.300781 18.804688 -3.988281 19.167969 -3.910156 C 19.476562 -3.832031 19.890625 -4.015625 20.019531 -4.53125 Z M 20.019531 -4.53125 "/></g></g></g><g fill="#000000" fill-opacity="1"><g transform="translate(299.877843, 278.345927)"><g><path d="M 4.09375 -1.839844 C 4.402344 -1.113281 4.273438 -0.386719 4.039062 0.15625 C 3.808594 0.699219 3.417969 1.191406 3.289062 1.398438 C 3.160156 1.683594 3.210938 1.96875 3.445312 2.148438 C 3.625 2.355469 3.910156 2.382812 4.246094 1.996094 C 5.515625 0.75 5.621094 -0.777344 5.414062 -2.460938 C 5.207031 -3.703125 4.378906 -4.53125 3.417969 -4.53125 C 2.617188 -4.53125 2.125 -4.273438 1.917969 -3.78125 C 1.734375 -3.289062 1.761719 -2.796875 1.96875 -2.304688 C 2.332031 -1.503906 2.980469 -1.035156 4.09375 -1.839844 Z M 4.09375 -1.839844 "/></g></g></g><g fill="#000000" fill-opacity="1"><g transform="translate(308.819075, 278.345927)"><g/></g></g><g fill="#000000" fill-opacity="1"><g transform="translate(183.793958, 313.826027)"><g><path d="M 8.652344 -8.675781 C 9.816406 -9.660156 10.410156 -11.371094 10.179688 -12.871094 C 9.867188 -14.347656 8.832031 -15.539062 6.65625 -15.644531 C 5.722656 -15.644531 4.429688 -15.515625 3.238281 -15.253906 C 2.148438 -15.074219 1.96875 -14.894531 1.863281 -13.804688 C 1.761719 -11.785156 1.789062 -9.53125 1.890625 -7.484375 C 1.96875 -5.4375 2.125 -3.546875 2.304688 -2.433594 C 2.410156 -1.476562 2.902344 -1.164062 3.679688 -1.164062 C 5.542969 -1.164062 7.640625 -1.371094 9.710938 -2.019531 C 11.628906 -2.5625 12.40625 -4.222656 12.199219 -5.75 C 11.964844 -7.253906 10.800781 -8.597656 8.652344 -8.675781 Z M 8.3125 -7.589844 C 10.359375 -7.175781 10.980469 -6.164062 10.878906 -5.179688 C 10.773438 -4.222656 9.972656 -3.289062 9.144531 -3.109375 C 8.675781 -2.980469 7.589844 -2.796875 6.5 -2.640625 C 5.414062 -2.460938 4.273438 -2.382812 3.625 -2.488281 C 3.574219 -2.902344 3.523438 -3.289062 3.496094 -3.652344 L 3.394531 -4.738281 C 3.367188 -5.414062 3.261719 -6.136719 3.238281 -6.96875 C 3.78125 -6.992188 4.84375 -7.175781 5.828125 -7.355469 C 6.835938 -7.5625 7.847656 -7.691406 8.3125 -7.589844 Z M 7.328125 -14.167969 C 8.832031 -13.625 9.011719 -12.355469 8.652344 -11.1875 C 8.339844 -10.023438 7.484375 -8.960938 6.835938 -8.859375 C 5.464844 -8.546875 3.9375 -8.339844 3.1875 -8.238281 C 3.1875 -8.804688 3.082031 -9.765625 3.054688 -10.828125 C 2.980469 -11.886719 3.003906 -13.003906 3.132812 -13.855469 C 3.652344 -13.960938 4.378906 -14.195312 5.128906 -14.296875 C 5.90625 -14.402344 6.683594 -14.402344 7.328125 -14.167969 Z M 7.328125 -14.167969 "/></g></g></g><g fill="#000000" fill-opacity="1"><g transform="translate(197.131104, 313.826027)"><g><path d="M 6.941406 -2.902344 C 5.230469 -2.902344 4.222656 -4.171875 3.601562 -5.699219 C 3.03125 -7.277344 2.875 -9.117188 3.082031 -10.386719 C 3.316406 -12.226562 4.09375 -13.363281 5.023438 -14.039062 C 5.90625 -14.6875 7.046875 -14.761719 8.027344 -14.425781 C 9.6875 -13.804688 10.621094 -12.40625 11.085938 -10.878906 C 11.550781 -9.324219 11.5 -7.589844 11.136719 -6.320312 C 10.359375 -4.039062 9.167969 -2.902344 6.941406 -2.902344 Z M 6.554688 -1.398438 C 9.660156 -0.984375 11.785156 -2.925781 12.613281 -5.851562 C 12.976562 -7.277344 13.105469 -9.375 12.535156 -11.34375 C 11.914062 -13.285156 10.671875 -15.125 8.390625 -15.953125 C 7.019531 -16.472656 5.492188 -16.214844 4.222656 -15.332031 C 2.953125 -14.476562 1.941406 -12.976562 1.65625 -11.007812 C 1.449219 -9.296875 1.398438 -7.070312 2.125 -5.152344 C 2.796875 -3.238281 4.171875 -1.683594 6.554688 -1.398438 Z M 6.554688 -1.398438 "/></g></g></g><g fill="#000000" fill-opacity="1"><g transform="translate(211.581838, 313.826027)"><g><path d="M 6.941406 -2.902344 C 5.230469 -2.902344 4.222656 -4.171875 3.601562 -5.699219 C 3.03125 -7.277344 2.875 -9.117188 3.082031 -10.386719 C 3.316406 -12.226562 4.09375 -13.363281 5.023438 -14.039062 C 5.90625 -14.6875 7.046875 -14.761719 8.027344 -14.425781 C 9.6875 -13.804688 10.621094 -12.40625 11.085938 -10.878906 C 11.550781 -9.324219 11.5 -7.589844 11.136719 -6.320312 C 10.359375 -4.039062 9.167969 -2.902344 6.941406 -2.902344 Z M 6.554688 -1.398438 C 9.660156 -0.984375 11.785156 -2.925781 12.613281 -5.851562 C 12.976562 -7.277344 13.105469 -9.375 12.535156 -11.34375 C 11.914062 -13.285156 10.671875 -15.125 8.390625 -15.953125 C 7.019531 -16.472656 5.492188 -16.214844 4.222656 -15.332031 C 2.953125 -14.476562 1.941406 -12.976562 1.65625 -11.007812 C 1.449219 -9.296875 1.398438 -7.070312 2.125 -5.152344 C 2.796875 -3.238281 4.171875 -1.683594 6.554688 -1.398438 Z M 6.554688 -1.398438 "/></g></g></g><g fill="#000000" fill-opacity="1"><g transform="translate(226.032572, 313.826027)"><g><path d="M 3.886719 -8.675781 C 3.988281 -9.636719 4.066406 -10.4375 4.09375 -11.265625 C 4.117188 -12.121094 4.144531 -13.003906 4.246094 -14.167969 C 4.273438 -14.761719 3.9375 -15.074219 3.546875 -15.074219 C 3.132812 -15.074219 2.796875 -14.761719 2.796875 -14.21875 C 2.769531 -12.585938 2.617188 -10.542969 2.433594 -8.519531 C 2.226562 -6.554688 1.96875 -4.585938 1.761719 -3.261719 C 1.65625 -2.640625 1.96875 -2.382812 2.332031 -2.304688 C 2.640625 -2.277344 3.054688 -2.460938 3.1875 -3.003906 L 3.546875 -5.101562 C 3.625 -5.75 3.679688 -6.34375 3.78125 -7.019531 C 4.792969 -6.8125 6.136719 -6.0625 7.277344 -5.207031 C 8.445312 -4.378906 9.351562 -3.445312 9.609375 -2.71875 C 9.816406 -2.148438 10.257812 -1.96875 10.644531 -2.175781 C 11.007812 -2.304688 11.265625 -2.746094 10.980469 -3.394531 C 10.644531 -4.066406 9.84375 -5.023438 8.882812 -5.90625 C 7.875 -6.785156 6.65625 -7.589844 5.515625 -8.003906 C 6.835938 -8.753906 8.183594 -9.6875 9.324219 -10.621094 C 10.488281 -11.527344 11.550781 -12.433594 12.300781 -13.105469 C 12.71875 -13.417969 12.820312 -13.910156 12.613281 -14.246094 C 12.40625 -14.53125 11.964844 -14.609375 11.394531 -14.167969 C 8.910156 -12.121094 6.242188 -9.867188 3.886719 -8.675781 Z M 3.886719 -8.675781 "/></g></g></g><g fill="#000000" fill-opacity="1"><g transform="translate(239.680485, 313.826027)"><g><path d="M 3.574219 -8.417969 C 3.808594 -9.609375 4.117188 -10.722656 4.507812 -11.886719 C 4.585938 -12.25 4.351562 -12.511719 4.066406 -12.613281 C 3.808594 -12.691406 3.445312 -12.5625 3.289062 -12.226562 C 2.980469 -11.601562 2.617188 -10.179688 2.304688 -8.753906 C 1.96875 -7.253906 1.734375 -5.75 1.65625 -4.871094 C 1.578125 -3.546875 1.632812 -2.382812 2.382812 -1.65625 C 3.109375 -0.933594 4.453125 -0.621094 6.835938 -1.0625 C 8.132812 -1.269531 9.503906 -1.683594 10.773438 -2.226562 C 11.109375 -2.355469 11.242188 -2.71875 11.164062 -3.003906 C 11.085938 -3.316406 10.851562 -3.574219 10.410156 -3.496094 L 8.574219 -2.925781 C 8.027344 -2.746094 7.433594 -2.539062 6.785156 -2.433594 C 4.453125 -2.097656 2.746094 -2.125 3.03125 -4.714844 C 3.054688 -5.464844 3.132812 -6.242188 3.238281 -6.96875 C 4.324219 -7.277344 5.90625 -7.613281 7.535156 -7.898438 C 9.167969 -8.210938 10.902344 -8.417969 12.300781 -8.519531 C 12.691406 -8.519531 12.898438 -8.9375 12.871094 -9.273438 C 12.871094 -9.609375 12.585938 -9.945312 12.148438 -9.945312 C 10.851562 -9.84375 9.324219 -9.6875 7.847656 -9.375 C 6.34375 -9.144531 4.84375 -8.78125 3.574219 -8.417969 Z M 12.148438 -15.125 C 12.664062 -15.125 12.898438 -15.4375 12.898438 -15.800781 C 12.898438 -16.109375 12.640625 -16.472656 12.199219 -16.472656 C 10.980469 -16.472656 9.296875 -16.472656 7.925781 -16.367188 C 5.4375 -16.160156 4.351562 -15.980469 2.460938 -15.695312 C 2.019531 -15.617188 1.789062 -15.253906 1.8125 -14.917969 C 1.839844 -14.554688 2.148438 -14.21875 2.695312 -14.324219 C 4.636719 -14.53125 5.800781 -14.738281 7.875 -14.96875 C 9.167969 -15.074219 10.644531 -15.125 12.148438 -15.125 Z M 12.148438 -15.125 "/></g></g></g><g fill="#000000" fill-opacity="1"><g transform="translate(254.364297, 313.826027)"><g><path d="M 7.511719 -7.433594 C 8.496094 -8.183594 9.429688 -9.558594 9.738281 -10.878906 C 10.050781 -12.25 9.765625 -13.570312 8.496094 -14.324219 C 7.71875 -14.738281 6.761719 -14.945312 5.851562 -15.023438 C 4.972656 -15.046875 4.171875 -14.996094 3.625 -14.917969 C 2.746094 -14.761719 2.148438 -14.710938 1.789062 -14.425781 C 1.476562 -14.140625 1.347656 -13.648438 1.425781 -12.640625 C 1.503906 -11.214844 1.554688 -9.089844 1.734375 -6.96875 C 1.863281 -4.84375 2.097656 -2.769531 2.410156 -1.449219 C 2.511719 -0.90625 2.925781 -0.671875 3.238281 -0.75 C 3.601562 -0.777344 3.886719 -1.113281 3.78125 -1.683594 C 3.679688 -2.253906 3.601562 -2.617188 3.523438 -3.160156 C 3.445312 -3.679688 3.367188 -4.273438 3.238281 -5.257812 C 4.53125 -5.621094 5.285156 -5.957031 6.449219 -6.683594 C 7.746094 -4.117188 9.273438 -2.980469 9.917969 -2.640625 C 10.4375 -2.433594 10.773438 -2.589844 10.957031 -2.847656 C 11.085938 -3.132812 11.058594 -3.496094 10.621094 -3.808594 C 9.867188 -4.273438 9.480469 -4.636719 9.039062 -5.179688 C 8.597656 -5.722656 8.238281 -6.371094 7.511719 -7.433594 Z M 2.695312 -13.417969 C 3.210938 -13.570312 4.066406 -13.703125 4.816406 -13.777344 C 5.59375 -13.804688 6.34375 -13.777344 6.890625 -13.648438 C 8.289062 -13.339844 8.703125 -12.40625 8.519531 -11.34375 C 8.390625 -10.28125 7.667969 -9.089844 6.835938 -8.417969 C 5.878906 -7.640625 4.945312 -7.199219 3.132812 -6.527344 C 2.925781 -8.546875 2.695312 -11.757812 2.695312 -13.417969 Z M 2.695312 -13.417969 "/></g></g></g></svg>