<svg xmlns="http://www.w3.org/2000/svg" xmlns:xlink="http://www.w3.org/1999/xlink" width="600" zoomAndPan="magnify" viewBox="0 0 450 412.499988" height="550" preserveAspectRatio="xMidYMid meet" version="1.0"><defs><g/><clipPath id="80e27d5ae2"><path d="M 0.273438 0 L 449.726562 0 L 449.726562 412 L 0.273438 412 Z M 0.273438 0 " clip-rule="nonzero"/></clipPath></defs><g clip-path="url(#80e27d5ae2)"><path fill="#ffffff" d="M 0.273438 0 L 449.726562 0 L 449.726562 412 L 0.273438 412 Z M 0.273438 0 " fill-opacity="1" fill-rule="nonzero"/><path fill="#ffffff" d="M 0.273438 0 L 449.726562 0 L 449.726562 412 L 0.273438 412 Z M 0.273438 0 " fill-opacity="1" fill-rule="nonzero"/></g><path fill="#1e3f48" d="M 320.835938 184.636719 C 319.710938 183.789062 318.578125 182.953125 317.207031 182.523438 C 316.757812 182.378906 316.308594 182.28125 316.417969 181.566406 C 316.695312 179.789062 316.847656 177.996094 317.113281 176.214844 C 317.613281 172.851562 318.265625 169.507812 318.386719 166.097656 C 318.4375 164.761719 317.851562 163.800781 316.550781 163.300781 C 315.375 162.847656 314.207031 162.402344 312.972656 162.105469 C 310.347656 161.472656 307.710938 160.9375 304.65625 160.890625 C 306.890625 158.515625 308.835938 156.367188 310.875 154.304688 C 312.175781 152.992188 313.613281 151.8125 314.6875 150.285156 C 315.355469 149.339844 315.246094 148.617188 314.121094 148.078125 C 312.230469 147.179688 310.28125 146.457031 308.304688 145.78125 C 303.050781 143.980469 297.605469 143.082031 292.136719 142.25 C 288.832031 141.742188 285.558594 141.035156 282.207031 140.796875 C 274.945312 140.277344 267.863281 141.777344 260.761719 142.796875 C 256.371094 143.425781 252.019531 144.527344 247.863281 146.195312 C 246.621094 146.695312 245.703125 146.695312 244.902344 145.332031 C 243.125 142.296875 240.703125 139.730469 238.464844 137.042969 C 237.746094 136.179688 237.683594 135.574219 238.097656 134.625 C 239.300781 131.871094 240.527344 129.117188 241.53125 126.285156 C 242.464844 123.664062 241.914062 121.574219 240.109375 120.738281 C 234.621094 118.195312 229.226562 115.417969 223.304688 113.910156 C 221 113.324219 219.191406 113.777344 217.832031 115.75 C 217.535156 116.179688 217.292969 116.382812 216.816406 115.96875 C 213.917969 113.433594 210.304688 112.140625 206.953125 110.414062 C 204.414062 109.109375 201.960938 107.613281 199.261719 106.621094 C 195.132812 105.101562 191.042969 103.496094 186.792969 102.316406 C 185.332031 101.914062 184.566406 102.027344 183.652344 103.261719 C 177.730469 111.28125 171.621094 119.160156 165.542969 127.0625 C 161.664062 132.105469 158.144531 137.40625 154.105469 142.359375 C 147.46875 150.492188 140.859375 158.664062 134.640625 167.136719 C 133.597656 168.554688 133 169.992188 133.445312 171.738281 C 133.875 173.410156 133.390625 174.78125 132.191406 175.972656 C 131.148438 177.003906 130.265625 178.175781 129.609375 179.488281 C 128.136719 182.414062 128.332031 183.804688 131.730469 185.6875 C 132.066406 185.875 132.445312 185.984375 132.800781 186.136719 C 135.789062 187.414062 139.078125 188 141.929688 189.464844 C 145.492188 191.296875 149.125 192.867188 152.890625 194.144531 C 157.953125 195.859375 162.636719 198.484375 167.761719 200.050781 C 172.761719 201.582031 177.851562 202.820312 182.585938 205.179688 C 188.671875 208.214844 195.40625 209.617188 201.554688 212.519531 C 202.335938 212.886719 203.199219 213.078125 204.035156 213.316406 C 208.691406 214.636719 213.449219 215.667969 217.976562 217.335938 C 222.308594 218.929688 226.710938 220.265625 231.132812 221.496094 C 237.339844 223.226562 243.636719 224.582031 249.71875 226.789062 C 256.953125 229.410156 264.636719 230.652344 271.714844 233.804688 C 273.210938 234.472656 274.796875 234.996094 276.390625 235.378906 C 280.273438 236.316406 281.074219 235.980469 282.496094 234.054688 C 284.167969 231.785156 285.855469 229.527344 287.628906 227.339844 C 290.695312 223.554688 294.070312 220.035156 297.125 216.238281 C 300.417969 212.144531 303.609375 207.964844 307.28125 204.175781 C 312.40625 198.878906 316.472656 192.707031 321.132812 187.023438 C 321.84375 186.152344 321.761719 185.332031 320.835938 184.636719 Z M 320.835938 184.636719 " fill-opacity="1" fill-rule="nonzero"/><path fill="#e28b7a" d="M 229.496094 126.644531 C 229.367188 127.621094 229.457031 128.328125 231.101562 128.019531 C 232.277344 127.800781 232.917969 129.019531 233.269531 130.03125 C 233.628906 131.058594 233.019531 131.695312 232.046875 131.976562 C 230.800781 132.339844 230.320312 132.820312 231.265625 134.109375 C 232.027344 135.144531 231.429688 136.238281 230.761719 137.183594 C 230.167969 138.03125 229.535156 138.976562 228.339844 138.675781 C 227.109375 138.367188 226.703125 138.921875 226.371094 139.945312 C 225.679688 142.0625 224.460938 142.902344 222.78125 142.558594 C 221.371094 142.269531 220.84375 141.464844 221.125 140.03125 C 221.414062 138.5625 221.3125 138.464844 219.820312 138.746094 C 218.359375 139.023438 217.363281 138.402344 216.824219 136.878906 C 216.402344 135.675781 216.851562 134.414062 218.261719 133.992188 C 220.105469 133.441406 219.574219 132.714844 218.8125 131.652344 C 217.691406 130.089844 217.824219 128.539062 219.070312 126.984375 C 220.359375 125.378906 221.269531 125.3125 222.789062 126.703125 C 223.136719 127.023438 223.425781 127.652344 223.886719 127.554688 C 224.503906 127.421875 224.167969 126.722656 224.261719 126.28125 C 224.835938 123.625 226.484375 122.832031 228.636719 124.136719 C 229.582031 124.707031 229.542969 125.539062 229.496094 126.644531 Z M 221.875 134.011719 C 221.878906 135.96875 222.847656 137.042969 224.59375 137.023438 C 226.5 137 228.605469 134.855469 228.617188 132.925781 C 228.625 131.324219 226.5 129.453125 224.722656 129.496094 C 223.261719 129.53125 221.875 131.734375 221.875 134.011719 Z M 211.289062 147.207031 C 208.40625 150.910156 207.898438 156.8125 210.214844 160.636719 C 211.273438 156.054688 212.207031 151.8125 211.289062 147.207031 Z M 217.433594 165.867188 C 221.390625 163.671875 223.089844 161.550781 223.917969 157.679688 C 220.855469 159.851562 218.519531 162.261719 217.433594 165.867188 Z M 217.433594 165.867188 " fill-opacity="1" fill-rule="nonzero"/><path fill="#b9bba3" d="M 240.304688 124.277344 C 240.304688 125.167969 240.074219 126.007812 239.722656 126.8125 C 233.773438 140.308594 228.289062 153.976562 223.90625 168.078125 C 222.714844 171.90625 221.410156 175.722656 219.589844 179.332031 C 218.90625 180.683594 218.152344 181.097656 216.640625 180.726562 C 213.574219 179.972656 210.609375 178.890625 207.65625 177.839844 C 204.585938 176.746094 201.472656 175.875 198.324219 175.101562 C 196.902344 174.753906 196.378906 174.171875 196.730469 172.695312 C 197.390625 169.90625 198.113281 167.160156 199.324219 164.539062 C 200.253906 162.515625 200.976562 160.398438 201.746094 158.304688 C 204.875 149.789062 208.28125 141.390625 212.089844 133.152344 C 213.148438 130.871094 214.023438 128.492188 214.816406 126.101562 C 215.855469 122.960938 217.414062 120.046875 218.6875 117.011719 C 219.582031 114.882812 220.683594 114.484375 222.863281 115.097656 C 228.585938 116.707031 233.824219 119.496094 239.253906 121.8125 C 240.101562 122.171875 240.34375 122.84375 240.304688 124.277344 Z M 234.648438 130.542969 C 234.511719 129.234375 233.9375 128.039062 232.878906 127.472656 C 231.488281 126.730469 230.527344 125.917969 230.402344 124.265625 C 230.363281 123.726562 229.808594 123.40625 229.347656 123.125 C 226.644531 121.488281 224.964844 121.996094 223.53125 124.917969 C 223.304688 125.378906 223.222656 125.550781 222.679688 125.183594 C 222.023438 124.742188 221.292969 124.316406 220.382812 124.648438 C 218.199219 125.445312 215.691406 129.042969 217.574219 131.820312 C 218.160156 132.679688 217.917969 132.914062 217.183594 133.410156 C 214.820312 135 215.0625 138.6875 217.722656 139.597656 C 219.160156 140.089844 219.785156 140.578125 220.246094 142.054688 C 220.582031 143.128906 220.957031 143.875 220.242188 144.863281 C 219.976562 145.230469 219.910156 145.765625 219.8125 146.234375 C 219.265625 148.820312 218.261719 151.222656 216.917969 153.492188 C 216.296875 154.539062 215.882812 155.675781 215.441406 156.804688 C 214.125 160.171875 213.488281 163.675781 213.082031 167.257812 C 212.796875 169.765625 211.671875 172.074219 210.949219 174.480469 C 210.824219 174.898438 210.539062 175.367188 211.117188 175.578125 C 211.65625 175.773438 211.890625 175.316406 212.027344 174.875 C 212.808594 172.390625 213.972656 170.015625 214.308594 167.394531 C 214.757812 163.878906 215.320312 160.371094 216.738281 157.105469 C 218.472656 153.121094 220.699219 149.34375 221.496094 144.992188 C 221.546875 144.714844 221.769531 144.46875 221.839844 144.191406 C 221.960938 143.738281 222.277344 143.753906 222.632812 143.773438 C 224.996094 143.894531 226.488281 143.015625 227.34375 140.851562 C 227.59375 140.226562 227.78125 139.941406 228.523438 139.921875 C 231.144531 139.84375 233.394531 136.578125 232.550781 134.027344 C 232.3125 133.316406 232.441406 133.148438 233.042969 132.914062 C 234.109375 132.5 234.546875 131.605469 234.648438 130.542969 Z M 212.835938 150.984375 C 213 149.253906 212.796875 147.589844 211.960938 146.046875 C 211.761719 145.675781 211.625 145.195312 211.070312 145.222656 C 210.546875 145.253906 210.382812 145.6875 210.183594 146.078125 C 209.175781 148.058594 208.269531 150.097656 207.660156 152.226562 C 206.777344 155.320312 207.695312 158.230469 209 161.027344 C 209.21875 161.496094 209.609375 161.96875 210.246094 161.851562 C 210.816406 161.75 210.910156 161.199219 211.070312 160.753906 C 212.210938 157.597656 212.773438 154.332031 212.835938 150.984375 Z M 216.359375 167.707031 C 222.011719 165.316406 224.503906 162.152344 225.488281 157.171875 C 225.582031 156.695312 225.609375 156.320312 225.234375 155.984375 C 224.777344 155.566406 224.414062 155.933594 224.058594 156.144531 C 221.375 157.746094 219.199219 159.878906 217.636719 162.582031 C 216.746094 164.125 216.230469 165.816406 216.359375 167.707031 Z M 231.046875 179.941406 C 235.167969 179.078125 239.140625 177.667969 243.199219 176.570312 C 244.304688 176.273438 245.535156 175.914062 246.246094 174.964844 C 248.953125 171.347656 251.660156 167.730469 254.007812 163.859375 C 254.523438 163.007812 254.226562 162.808594 253.347656 162.734375 C 251.765625 162.601562 250.28125 163.035156 248.773438 163.351562 C 243.691406 164.40625 239.230469 166.441406 236.386719 171.121094 C 235.636719 172.359375 234.625 173.4375 233.730469 174.589844 C 232.429688 176.265625 230.933594 177.808594 229.984375 180.007812 C 230.476562 179.976562 230.769531 179.996094 231.046875 179.941406 Z M 224.984375 131.140625 C 223.875 131.101562 223.097656 132.234375 223.109375 133.992188 C 223.113281 134.960938 223.484375 135.691406 224.625 135.691406 C 225.828125 135.6875 227.136719 134.28125 227.15625 132.96875 C 227.167969 131.914062 226.3125 131.191406 224.984375 131.140625 Z M 224.984375 131.140625 " fill-opacity="1" fill-rule="nonzero"/><path fill="#5f749f" d="M 133.515625 176.550781 C 133.546875 177.015625 133.609375 177.246094 133.570312 177.460938 C 133.101562 180.230469 134.449219 181.617188 136.960938 182.53125 C 145.921875 185.796875 154.863281 189.113281 163.75 192.574219 C 172.148438 195.84375 180.574219 199.078125 188.644531 203.121094 C 192.164062 204.882812 195.953125 205.945312 199.527344 207.585938 C 201.539062 208.511719 204.113281 208.316406 206.390625 208.960938 C 213.539062 210.984375 220.917969 211.882812 228.183594 213.335938 C 242.492188 216.195312 256.453125 220.175781 269.84375 226.042969 C 272.015625 226.992188 273.980469 228.363281 276.335938 228.945312 C 277.390625 229.207031 278.179688 229.222656 278.945312 228.378906 C 282.019531 224.992188 284.941406 221.480469 287.902344 217.992188 C 293.0625 211.90625 298.371094 205.941406 303.628906 199.9375 C 306.386719 196.785156 309.128906 193.617188 312.230469 190.785156 C 314.132812 189.050781 315.554688 186.988281 316.070312 184.421875 C 316.246094 183.546875 316.648438 183.589844 317.25 183.921875 C 317.332031 183.96875 317.417969 184.019531 317.503906 184.0625 C 320.425781 185.484375 320.417969 185.566406 318.402344 188.027344 C 314.765625 192.472656 311.644531 197.335938 307.683594 201.515625 C 300.203125 209.402344 293.878906 218.269531 286.585938 226.316406 C 284.703125 228.398438 283.144531 230.777344 281.488281 233.054688 C 280.539062 234.355469 279.257812 234.847656 277.34375 234.230469 C 274.765625 233.394531 272.171875 232.554688 269.691406 231.476562 C 264.457031 229.195312 258.777344 228.386719 253.464844 226.449219 C 243.558594 222.839844 233.140625 221.011719 223.207031 217.59375 C 216.460938 215.273438 209.527344 213.640625 202.796875 211.339844 C 197.03125 209.367188 191.28125 207.28125 185.703125 204.839844 C 180.042969 202.363281 174.273438 200.300781 168.339844 198.625 C 163.464844 197.246094 159.054688 194.703125 154.292969 193.019531 C 150.277344 191.597656 146.25 190.199219 142.546875 187.976562 C 141.171875 187.152344 139.453125 186.890625 137.878906 186.414062 C 135.640625 185.742188 133.523438 184.777344 131.421875 183.785156 C 130.300781 183.253906 129.835938 182.511719 130.328125 181.207031 C 130.996094 179.449219 132.105469 178.054688 133.515625 176.550781 Z M 133.515625 176.550781 " fill-opacity="1" fill-rule="nonzero"/><path fill="#e3d8d6" d="M 194.925781 173.515625 C 192.207031 171.738281 189.726562 169.777344 187.050781 168.105469 C 177.804688 162.316406 168.183594 157.304688 157.855469 153.726562 C 157.398438 153.570312 156.917969 153.476562 156.457031 153.328125 C 156 153.183594 155.429688 152.859375 155.195312 153.488281 C 154.902344 154.285156 155.738281 154.277344 156.160156 154.453125 C 159.652344 155.902344 163.238281 157.144531 166.640625 158.773438 C 175.414062 162.96875 184.039062 167.445312 191.878906 173.277344 C 194.417969 175.167969 196.960938 177.050781 199.523438 178.910156 C 202.070312 180.757812 204.191406 183.015625 206.039062 185.546875 C 206.125 185.664062 206.1875 185.804688 206.277344 185.914062 C 206.636719 186.351562 207.089844 186.757812 207.632812 186.339844 C 208.121094 185.957031 207.8125 185.472656 207.53125 185.046875 C 206.074219 182.839844 204.300781 180.910156 202.335938 179.152344 C 201.730469 178.613281 201.085938 178.117188 200.527344 177.460938 C 206.605469 178.589844 212.121094 181.605469 218.414062 182.496094 C 212.5625 189.933594 206.660156 197.214844 200.777344 204.292969 C 195.875 197.773438 189.886719 192.390625 182.769531 188.066406 C 174.699219 183.160156 165.863281 180.027344 157.214844 176.507812 C 150.011719 173.578125 142.460938 171.496094 134.875 168.976562 C 136.03125 167.472656 137.226562 166.023438 138.316406 164.496094 C 143.710938 156.921875 149.777344 149.871094 155.605469 142.644531 C 159.527344 137.785156 162.917969 132.574219 166.703125 127.640625 C 172.679688 119.847656 178.757812 112.125 184.441406 104.113281 C 184.984375 103.347656 185.390625 103.253906 186.277344 103.488281 C 190.546875 104.613281 194.628906 106.234375 198.742188 107.800781 C 201.066406 108.6875 203.199219 109.953125 205.394531 111.078125 C 208.929688 112.890625 212.679688 114.300781 215.910156 116.703125 C 216.761719 117.339844 216.875 117.777344 216.410156 118.671875 C 215.082031 121.238281 213.898438 123.871094 213.058594 126.683594 C 205.308594 120.460938 196.570312 116.546875 187.542969 113.199219 C 187.105469 113.039062 186.289062 112.179688 185.980469 113.117188 C 185.707031 113.9375 186.734375 114.070312 187.332031 114.324219 C 191.964844 116.308594 196.621094 118.246094 201.054688 120.65625 C 204.339844 122.445312 207.644531 124.226562 210.574219 126.589844 C 212.402344 128.066406 212.394531 128.078125 211.625 130.203125 C 210.566406 133.128906 209.117188 135.882812 207.871094 138.730469 C 207.535156 139.5 207.304688 139.632812 206.613281 139.023438 C 204.199219 136.898438 201.566406 135.054688 198.992188 133.128906 C 193.605469 129.097656 187.472656 126.503906 181.367188 123.84375 C 180.753906 123.574219 180.113281 123.371094 179.585938 122.894531 C 179.195312 122.542969 178.644531 122.519531 178.34375 123.058594 C 178.070312 123.554688 178.421875 123.910156 178.832031 124.109375 C 180.3125 124.835938 181.78125 125.597656 183.304688 126.21875 C 191.59375 129.585938 198.898438 134.523438 205.769531 140.167969 C 206.488281 140.761719 206.785156 141.289062 206.363281 142.253906 C 205.222656 144.875 204.171875 147.539062 203.121094 150.203125 C 202.804688 151.011719 202.550781 151.019531 201.816406 150.527344 C 194.464844 145.605469 187.324219 140.351562 179.441406 136.273438 C 177.15625 135.09375 174.839844 133.984375 172.296875 133.433594 C 171.777344 133.320312 171.246094 133.183594 171.082031 133.777344 C 170.90625 134.40625 171.492188 134.546875 171.972656 134.683594 C 175.367188 135.632812 178.4375 137.296875 181.472656 139.035156 C 188.101562 142.839844 194.25 147.382812 200.660156 151.523438 C 201.707031 152.199219 202.078125 152.789062 201.515625 154.066406 C 200.578125 156.191406 199.855469 158.414062 199.109375 160.621094 C 198.84375 161.414062 198.589844 161.347656 198.019531 160.902344 C 188.585938 153.59375 177.964844 148.554688 166.792969 144.570312 C 165.777344 144.207031 164.746094 143.972656 163.660156 144.015625 C 163.308594 144.03125 162.917969 144.035156 162.859375 144.46875 C 162.792969 144.964844 163.175781 145.09375 163.582031 145.210938 C 172.492188 147.753906 180.878906 151.5 188.71875 156.429688 C 191.675781 158.289062 194.75 160.003906 197.421875 162.296875 C 197.789062 162.613281 198.371094 162.792969 197.984375 163.558594 C 196.421875 166.65625 195.632812 170.011719 194.925781 173.515625 Z M 149.441406 161.929688 C 149.128906 161.894531 148.808594 161.96875 148.777344 162.316406 C 148.726562 162.78125 149.042969 162.96875 149.484375 163.0625 C 150.90625 163.367188 152.339844 163.632812 153.726562 164.046875 C 164.902344 167.398438 174.90625 173.183594 184.8125 179.144531 C 191.046875 182.898438 196.941406 187.109375 201.574219 192.847656 C 201.894531 193.246094 202.3125 193.789062 202.890625 193.238281 C 203.4375 192.714844 202.953125 192.238281 202.625 191.847656 C 200.472656 189.257812 198.183594 186.785156 195.558594 184.683594 C 190.875 180.9375 185.605469 178.082031 180.539062 174.914062 C 172.570312 169.929688 164.148438 166.082031 155.261719 163.144531 C 153.359375 162.515625 151.417969 162.160156 149.441406 161.929688 Z M 203.519531 203.480469 C 206.429688 199.582031 209.644531 195.925781 212.671875 192.121094 C 220.398438 182.414062 227.851562 172.496094 235.289062 162.570312 C 238.585938 158.171875 241.878906 153.773438 245.152344 149.359375 C 245.8125 148.472656 246.621094 147.914062 247.683594 147.550781 C 251.957031 146.085938 256.328125 144.863281 260.765625 144.261719 C 267.828125 143.300781 274.855469 141.753906 282.0625 142.277344 C 285.367188 142.519531 288.59375 143.222656 291.851562 143.746094 C 297.21875 144.613281 302.585938 145.449219 307.742188 147.25 C 309.253906 147.773438 310.738281 148.378906 312.25 148.90625 C 313.332031 149.28125 313.597656 149.640625 312.632812 150.585938 C 310.582031 152.589844 308.480469 154.539062 306.480469 156.605469 C 300.347656 162.917969 294.703125 169.65625 289.019531 176.355469 C 285.277344 180.761719 281.179688 184.890625 277.902344 189.679688 C 275.652344 192.96875 273.574219 196.375 271.042969 199.472656 C 270.515625 200.113281 270.058594 200.300781 269.339844 200.101562 C 265.515625 199.035156 261.570312 199 257.652344 198.691406 C 254.355469 198.429688 251.054688 197.996094 247.753906 198.058594 C 241.34375 198.179688 234.914062 197.710938 228.515625 198.597656 C 225.054688 199.078125 221.527344 199.070312 218.085938 199.765625 C 213.230469 200.742188 208.554688 202.371094 203.804688 203.738281 C 203.710938 203.652344 203.613281 203.566406 203.519531 203.480469 Z M 229.929688 181.511719 C 230.417969 181.476562 230.714844 181.480469 231 181.429688 C 235.34375 180.640625 239.53125 179.257812 243.757812 178.027344 C 245.140625 177.625 246.601562 177.136719 247.507812 175.902344 C 250.328125 172.0625 253.269531 168.300781 255.59375 164.121094 C 256.546875 162.410156 256.273438 162 254.410156 161.554688 C 252.070312 161 249.882812 161.792969 247.671875 162.210938 C 243.625 162.976562 239.789062 164.203125 237.273438 167.902344 C 236.15625 169.542969 234.785156 171.015625 233.542969 172.574219 C 231.695312 174.890625 229.738281 177.125 228.3125 179.757812 C 227.796875 180.714844 227.339844 181.386719 228.996094 181.300781 C 229.363281 181.28125 229.738281 181.464844 229.929688 181.511719 Z M 273.105469 157.472656 C 279.585938 157.769531 286.117188 157.816406 292.3125 160.210938 C 292.929688 160.449219 293.683594 160.679688 293.914062 159.871094 C 294.121094 159.136719 293.296875 159.039062 292.777344 158.824219 C 286.957031 156.40625 280.75 156.167969 274.613281 155.90625 C 269.285156 155.679688 263.929688 155.769531 258.589844 156.304688 C 255.203125 156.644531 251.804688 156.855469 248.527344 157.8125 C 246.484375 158.40625 244.492188 159.171875 242.492188 159.898438 C 242.164062 160.019531 241.683594 160.269531 241.863281 160.738281 C 242.042969 161.199219 242.527344 161.007812 242.894531 160.957031 C 243.082031 160.929688 243.25 160.804688 243.4375 160.75 C 247.160156 159.675781 250.84375 158.34375 254.738281 158.109375 C 260.847656 157.746094 266.949219 156.851562 273.105469 157.472656 Z M 273.703125 149.320312 C 270.402344 149.050781 267.570312 150.175781 264.632812 150.441406 C 259.074219 150.9375 253.632812 152.140625 248.15625 153.132812 C 247.746094 153.207031 247.007812 153.257812 247.125 153.886719 C 247.242188 154.519531 247.941406 154.320312 248.375 154.25 C 253.109375 153.5 257.8125 152.515625 262.597656 152.105469 C 265.644531 151.84375 268.625 150.882812 271.65625 150.835938 C 276.351562 150.765625 281.050781 150.128906 285.765625 151.027344 C 289.230469 151.683594 292.839844 151.480469 296.222656 152.722656 C 296.804688 152.9375 297.460938 152.96875 298.085938 153.035156 C 298.652344 153.09375 299.453125 153.207031 299.578125 152.550781 C 299.699219 151.902344 298.96875 151.683594 298.367188 151.570312 C 297.75 151.453125 297.132812 151.324219 296.523438 151.167969 C 290.371094 149.601562 284.101562 149.058594 277.777344 149.050781 C 276.324219 149.046875 274.867188 149.238281 273.703125 149.320312 Z M 256.957031 183.835938 C 261.210938 183.792969 265.042969 184.574219 268.644531 186.125 C 269.53125 186.507812 270.433594 186.902344 271.425781 186.867188 C 271.800781 186.855469 272.230469 186.722656 272.339844 186.269531 C 272.429688 185.875 272.222656 185.617188 271.816406 185.554688 C 269.726562 185.238281 267.9375 184.070312 265.9375 183.472656 C 259.097656 181.429688 252.089844 182.34375 245.203125 182.535156 C 237.460938 182.753906 229.816406 184.355469 222.316406 186.425781 C 221.902344 186.542969 221.308594 186.507812 221.386719 187.082031 C 221.472656 187.714844 222.101562 187.667969 222.570312 187.585938 C 223.761719 187.382812 224.957031 187.175781 226.128906 186.878906 C 232.164062 185.339844 238.316406 184.523438 244.507812 184.066406 C 248.765625 183.753906 253.046875 184.160156 256.957031 183.835938 Z M 248.109375 189.398438 C 238.507812 189.347656 230.632812 190.460938 222.777344 191.777344 C 220.964844 192.078125 219.15625 192.390625 217.351562 192.738281 C 217.019531 192.800781 216.484375 192.832031 216.601562 193.414062 C 216.710938 193.976562 217.117188 193.984375 217.613281 193.90625 C 219.71875 193.578125 221.828125 193.269531 223.9375 192.984375 C 228.550781 192.367188 233.152344 191.550781 237.785156 191.21875 C 243.449219 190.8125 249.132812 190.613281 254.8125 191.402344 C 258.121094 191.859375 261.488281 191.90625 264.519531 193.613281 C 265.117188 193.949219 265.921875 193.9375 266.640625 194.042969 C 267.089844 194.109375 267.59375 194.054688 267.671875 193.503906 C 267.746094 193 267.3125 192.617188 266.886719 192.628906 C 265.492188 192.65625 264.417969 191.820312 263.195312 191.398438 C 257.773438 189.523438 252.078125 189.902344 248.109375 189.398438 Z M 288.433594 165.164062 C 288.375 164.773438 288.136719 164.554688 287.792969 164.433594 C 287.019531 164.160156 286.261719 163.832031 285.472656 163.632812 C 281.847656 162.714844 278.171875 162.144531 274.433594 161.933594 C 269.710938 161.671875 265.015625 162.011719 260.335938 162.570312 C 259.945312 162.617188 259.035156 162.476562 259.152344 163.269531 C 259.242188 163.867188 259.957031 163.652344 260.414062 163.632812 C 263.183594 163.523438 265.957031 163.457031 268.71875 163.253906 C 272.28125 162.996094 275.804688 163.464844 279.316406 163.847656 C 281.949219 164.132812 284.566406 164.726562 287.0625 165.699219 C 287.695312 165.945312 288.199219 165.910156 288.433594 165.164062 Z M 262.269531 168.296875 C 260.757812 168.296875 259.25 168.296875 257.738281 168.296875 C 257.296875 168.296875 256.761719 168.292969 256.761719 168.882812 C 256.757812 169.445312 257.277344 169.496094 257.726562 169.523438 C 258.503906 169.578125 259.28125 169.671875 260.054688 169.675781 C 265.121094 169.71875 270.15625 170.070312 275.152344 170.925781 C 277.203125 171.273438 279.261719 171.585938 281.246094 172.253906 C 281.746094 172.421875 282.394531 172.691406 282.644531 172.046875 C 282.929688 171.316406 282.246094 171.0625 281.691406 170.859375 C 281.144531 170.660156 280.597656 170.460938 280.03125 170.335938 C 274.183594 169.027344 268.265625 168.304688 262.269531 168.296875 Z M 258.269531 174.21875 C 257.230469 174.21875 255.625 174.222656 254.019531 174.21875 C 253.511719 174.21875 252.9375 174.265625 252.886719 174.847656 C 252.824219 175.5625 253.476562 175.480469 253.945312 175.492188 C 255.792969 175.535156 257.644531 175.644531 259.488281 175.578125 C 264.890625 175.386719 270.070312 176.71875 275.296875 177.75 C 275.980469 177.882812 276.960938 178.796875 277.308594 177.746094 C 277.660156 176.683594 276.347656 176.695312 275.65625 176.371094 C 275.566406 176.328125 275.476562 176.28125 275.382812 176.265625 C 269.914062 175.222656 264.484375 173.828125 258.269531 174.21875 Z M 206.792969 206.230469 C 211.851562 205.652344 216.910156 205.828125 221.957031 206.179688 C 226.3125 206.484375 230.652344 207.03125 234.996094 207.496094 C 239.480469 207.976562 243.984375 208.238281 248.433594 209.070312 C 255.335938 210.363281 262.253906 211.570312 268.792969 214.257812 C 269.824219 214.683594 270.582031 214.398438 271.207031 213.5625 C 273.574219 210.398438 276.421875 207.648438 279.152344 204.828125 C 283.519531 200.320312 287.671875 195.609375 291.917969 190.996094 C 299.757812 182.472656 307.476562 173.835938 315.75 165.722656 C 316.589844 164.902344 316.242188 164.75 315.417969 164.429688 C 311.808594 163.011719 308.03125 162.484375 304.199219 162.210938 C 303.796875 162.183594 303.449219 162.191406 303.148438 162.546875 C 301.386719 164.625 299.234375 166.355469 297.605469 168.554688 C 293.628906 173.921875 288.941406 178.6875 284.679688 183.816406 C 282.003906 187.039062 279.316406 190.210938 277.042969 193.734375 C 275.808594 195.652344 274.4375 197.488281 273.089844 199.332031 C 271.722656 201.203125 270.136719 202.539062 267.628906 201.269531 C 267.378906 201.140625 267.066406 201.121094 266.78125 201.070312 C 262.65625 200.320312 258.457031 200.359375 254.300781 199.957031 C 247.652344 199.316406 240.960938 199.472656 234.296875 199.664062 C 229.789062 199.792969 225.289062 200.402344 220.796875 200.925781 C 215.421875 201.550781 210.359375 203.488281 205.175781 204.914062 C 204.257812 205.164062 203.34375 205.515625 202.425781 206.253906 C 203.992188 206.253906 205.410156 206.390625 206.792969 206.230469 Z M 136.480469 180.878906 C 141.050781 182.632812 145.558594 184.542969 150.179688 186.136719 C 160.90625 189.828125 171.46875 193.945312 181.890625 198.394531 C 187.789062 200.917969 193.601562 203.660156 199.566406 206.019531 C 199.195312 204.582031 198.417969 203.300781 197.347656 202.140625 C 194.839844 199.414062 192.222656 196.800781 189.378906 194.425781 C 187.515625 192.867188 185.601562 191.363281 183.488281 190.136719 C 178.113281 187.007812 172.546875 184.308594 166.777344 181.953125 C 159.824219 179.121094 152.964844 176.078125 145.738281 173.957031 C 142.082031 172.886719 138.492188 171.582031 134.761719 170.347656 C 134.761719 171.117188 134.769531 171.746094 134.757812 172.371094 C 134.75 172.886719 134.949219 173.222656 135.492188 173.265625 C 138.4375 173.5 141.09375 174.726562 143.839844 175.652344 C 150.035156 177.734375 156.207031 179.890625 162.234375 182.40625 C 165.753906 183.871094 169.210938 185.625 172.765625 186.914062 C 177.726562 188.714844 182.101562 191.402344 186.507812 194.136719 C 188.613281 195.441406 190.144531 197.332031 191.957031 199.222656 C 190.964844 199.332031 190.535156 198.820312 190.089844 198.417969 C 186.410156 195.101562 182.058594 192.816406 177.78125 190.425781 C 175.453125 189.125 172.753906 188.65625 170.402344 187.375 C 166.90625 185.46875 163.132812 184.179688 159.460938 182.707031 C 153.085938 180.148438 146.546875 177.992188 140.082031 175.652344 C 138.378906 175.039062 136.644531 174.578125 134.957031 174.371094 C 134.214844 176.210938 135.183594 176.9375 136.636719 177.46875 C 137.953125 177.953125 139.238281 178.484375 140.660156 178.636719 C 143.261719 178.914062 145.441406 180.472656 147.921875 181.109375 C 151.363281 181.992188 154.578125 183.460938 157.875 184.722656 C 161.316406 186.039062 164.5625 187.886719 168 189.101562 C 172.265625 190.605469 176.351562 192.464844 180.496094 194.21875 C 182.167969 194.925781 183.722656 195.8125 185.125 196.945312 C 186.105469 197.734375 187.0625 198.574219 187.597656 199.777344 C 185.1875 198.285156 182.902344 196.65625 180.289062 195.566406 C 177.652344 194.464844 175.03125 193.3125 172.433594 192.113281 C 170.015625 190.996094 167.367188 190.578125 164.964844 189.328125 C 159.714844 186.601562 154.15625 184.59375 148.589844 182.585938 C 144.101562 180.964844 139.464844 179.789062 134.859375 178.046875 C 134.601562 179.453125 135.148438 180.367188 136.480469 180.878906 Z M 274.804688 226.800781 C 274.761719 225.742188 274.199219 224.765625 273.328125 224.511719 C 268.890625 223.230469 264.828125 221.027344 260.515625 219.457031 C 255.566406 217.660156 250.445312 216.453125 245.382812 215.0625 C 245.027344 214.964844 244.605469 214.847656 244.746094 214.289062 C 245.828125 214.101562 246.871094 214.207031 247.90625 214.527344 C 249.476562 215.015625 251.03125 215.554688 252.621094 215.953125 C 257.164062 217.09375 261.683594 218.246094 265.957031 220.265625 C 268.039062 221.25 270.164062 222.222656 272.445312 222.726562 C 272.492188 222.675781 272.539062 222.628906 272.589844 222.578125 C 272.507812 222.25 272.40625 221.921875 272.34375 221.589844 C 272.09375 220.234375 271.4375 219.449219 269.945312 219.179688 C 267.808594 218.792969 265.726562 218.105469 263.621094 217.554688 C 257.773438 216.027344 251.9375 214.457031 246.003906 213.253906 C 242.398438 212.519531 238.753906 212.089844 235.113281 211.515625 C 235.277344 211.007812 235.617188 210.992188 235.964844 210.996094 C 237.472656 211.003906 239.003906 210.851562 240.488281 211.050781 C 246.726562 211.898438 252.835938 213.382812 258.910156 215.011719 C 262.992188 216.109375 267.097656 217.121094 271.339844 218.210938 C 270.917969 216.90625 270.65625 215.75 269.007812 215.84375 C 268.460938 215.875 267.886719 215.578125 267.335938 215.394531 C 263.984375 214.273438 260.722656 212.890625 257.199219 212.296875 C 251.890625 211.402344 246.65625 210.015625 241.28125 209.605469 C 234.832031 209.113281 228.445312 208.066406 221.996094 207.636719 C 217.128906 207.3125 212.253906 207.140625 207.367188 207.6875 C 209.027344 208.164062 210.695312 208.617188 212.386719 208.933594 C 221.230469 210.589844 230.101562 212.089844 238.855469 214.191406 C 250.429688 216.972656 261.675781 220.703125 272.5 225.679688 C 273.277344 226.039062 273.847656 226.84375 274.820312 226.785156 Z M 275.667969 215.265625 C 279.347656 211.523438 283.070312 207.816406 286.75 204.070312 C 290.644531 200.117188 294.652344 196.261719 298.347656 192.132812 C 303.152344 186.761719 308.019531 181.4375 313.164062 176.410156 C 316.035156 173.605469 316.613281 170.386719 316.785156 166.613281 C 312.710938 170.859375 308.691406 174.941406 304.796875 179.136719 C 298.511719 185.914062 292.320312 192.777344 286.070312 199.585938 C 284 201.839844 282.066406 204.203125 279.859375 206.351562 C 277.671875 208.480469 275.667969 210.816406 273.5625 213.046875 C 271.511719 215.21875 271.585938 215.289062 273.199219 218.054688 C 274.0625 217.070312 274.820312 216.125 275.667969 215.265625 Z M 223.210938 176.046875 C 224.109375 174.898438 225.003906 173.75 225.90625 172.601562 C 232.160156 164.65625 237.90625 156.320312 244.3125 148.492188 C 244.589844 148.148438 245.285156 147.863281 244.753906 147.167969 C 242.292969 143.929688 239.765625 140.746094 236.992188 137.523438 C 235.742188 140.335938 234.574219 143.03125 233.332031 145.695312 C 232.949219 146.515625 233.105469 147.039062 233.804688 147.535156 C 235.050781 148.414062 236.050781 149.542969 236.882812 150.8125 C 237.148438 151.21875 237.753906 151.699219 237.105469 152.183594 C 236.421875 152.691406 236.023438 152.015625 235.714844 151.570312 C 234.820312 150.289062 233.742188 149.203125 232.464844 148.144531 C 231.34375 151.359375 230.335938 154.5 229.140625 157.566406 C 228.613281 158.925781 228.367188 160.019531 229.675781 161.027344 C 230.007812 161.28125 230.316406 161.738281 229.9375 162.167969 C 229.507812 162.648438 229.171875 162.1875 228.832031 161.9375 C 228.535156 161.722656 228.402344 161.269531 227.839844 161.289062 C 226.230469 166.128906 224.613281 170.992188 222.996094 175.851562 C 223.066406 175.914062 223.140625 175.980469 223.210938 176.046875 Z M 307.269531 190.566406 C 302.46875 195.46875 297.710938 200.410156 292.84375 205.25 C 287.332031 210.734375 282.558594 216.929688 276.910156 222.304688 C 275.199219 223.929688 275.25 223.984375 276.4375 226.066406 C 277.421875 227.792969 277.566406 227.761719 278.886719 226.191406 C 282.867188 221.464844 286.832031 216.726562 290.902344 212.078125 C 297.894531 204.097656 304.570312 195.835938 312.285156 188.507812 C 313.875 187 315.03125 185.183594 314.496094 182.582031 C 312.023438 185.328125 309.742188 188.039062 307.269531 190.566406 Z M 275.667969 221.710938 C 278.40625 219.003906 280.894531 216.066406 283.546875 213.289062 C 287.875 208.753906 291.917969 203.964844 296.5 199.632812 C 302.46875 193.984375 307.910156 187.777344 313.574219 181.808594 C 315.097656 180.203125 315.621094 178.382812 315.246094 176.023438 C 314.3125 177.003906 313.402344 177.945312 312.511719 178.902344 C 306.808594 185.039062 301.269531 191.324219 295.367188 197.269531 C 291.796875 200.863281 288.230469 204.464844 284.722656 208.113281 C 281.652344 211.308594 278.386719 214.304688 275.351562 217.535156 C 273.25 219.769531 273.121094 219.644531 274.347656 222.496094 C 274.363281 222.535156 274.414062 222.5625 274.722656 222.863281 C 275.054688 222.453125 275.328125 222.046875 275.667969 221.710938 Z M 275.667969 221.710938 " fill-opacity="1" fill-rule="nonzero"/><g fill="#000000" fill-opacity="1"><g transform="translate(133.979264, 278.345927)"><g><path d="M 20.566406 -9.53125 C 21.003906 -9.636719 21.1875 -9.996094 21.160156 -10.308594 C 21.082031 -10.644531 20.875 -10.902344 20.359375 -10.800781 C 18.648438 -10.386719 17.09375 -10.179688 15.515625 -10.152344 C 15.308594 -12.042969 15.023438 -14.117188 14.554688 -15.902344 C 14.425781 -16.421875 14.011719 -16.601562 13.703125 -16.523438 C 13.363281 -16.421875 13.105469 -16.109375 13.234375 -15.617188 C 13.882812 -13.210938 14.167969 -10.542969 14.347656 -7.976562 L 14.402344 -6.421875 L 14.402344 -5.800781 C 13.777344 -5.699219 13.027344 -5.515625 12.277344 -5.285156 L 10.023438 -4.636719 C 9.375 -4.429688 8.910156 -4.273438 8.289062 -4.171875 C 7.667969 -4.039062 7.019531 -3.9375 6.164062 -3.910156 C 4.792969 -3.832031 4.585938 -4.117188 4.453125 -5.078125 C 4.351562 -5.671875 4.351562 -6.476562 4.429688 -7.484375 C 4.453125 -8.445312 4.53125 -9.582031 4.453125 -10.800781 C 4.378906 -11.527344 4.351562 -12.277344 4.273438 -13.105469 C 4.195312 -13.933594 4.117188 -14.867188 3.886719 -15.902344 C 3.601562 -17.09375 2.253906 -16.523438 2.460938 -15.644531 C 2.902344 -13.441406 3.003906 -11.886719 3.082031 -10.542969 C 3.082031 -9.53125 3.054688 -8.519531 3.03125 -7.511719 C 3.003906 -6.476562 2.980469 -5.4375 3.082031 -4.480469 C 3.1875 -3.054688 4.246094 -2.488281 5.984375 -2.5625 C 6.941406 -2.5625 7.691406 -2.695312 8.417969 -2.824219 C 9.144531 -3.003906 9.765625 -3.210938 10.515625 -3.417969 L 11.472656 -3.703125 L 12.40625 -4.015625 C 12.691406 -4.117188 13.027344 -4.222656 13.363281 -4.300781 L 14.453125 -4.53125 L 14.453125 -2.902344 C 14.425781 -2.511719 14.710938 -2.226562 15.046875 -2.203125 C 15.332031 -2.175781 15.667969 -2.304688 15.773438 -2.796875 C 15.800781 -2.953125 15.800781 -3.210938 15.800781 -3.601562 L 15.800781 -4.921875 C 15.773438 -5.929688 15.695312 -7.070312 15.667969 -8.082031 C 15.667969 -8.160156 15.644531 -8.3125 15.644531 -8.445312 C 15.617188 -8.496094 15.617188 -8.546875 15.617188 -8.625 L 15.617188 -8.832031 C 17.300781 -8.9375 18.882812 -9.144531 20.566406 -9.53125 Z M 20.566406 -9.53125 "/></g></g></g><g fill="#000000" fill-opacity="1"><g transform="translate(155.629468, 278.345927)"><g><path d="M 11.1875 -12.019531 C 11.527344 -13.441406 11.707031 -15.4375 11.8125 -17.171875 C 11.886719 -18.078125 11.757812 -18.699219 11.472656 -19.011719 C 11.164062 -19.347656 10.566406 -19.582031 9.660156 -19.710938 C 9.144531 -19.789062 8.160156 -19.839844 7.070312 -19.917969 C 5.90625 -19.996094 4.714844 -20.019531 3.730469 -20.046875 C 2.847656 -20.046875 2.382812 -19.867188 2.148438 -19.476562 C 1.890625 -19.089844 1.839844 -18.542969 1.8125 -17.921875 C 1.734375 -16.730469 1.683594 -15.667969 1.65625 -14.710938 C 1.632812 -13.753906 1.683594 -12.71875 1.761719 -11.550781 C 1.863281 -10.128906 2.203125 -9.324219 3.574219 -8.988281 C 4.636719 -8.675781 6.242188 -8.574219 7.511719 -8.574219 C 8.988281 -8.574219 9.789062 -8.832031 10.308594 -9.453125 C 10.773438 -10.050781 10.957031 -10.902344 11.1875 -12.019531 Z M 9.917969 -12.328125 C 9.765625 -11.472656 9.53125 -10.851562 9.21875 -10.464844 C 8.9375 -10.074219 8.289062 -9.894531 7.328125 -9.894531 C 7.097656 -9.894531 6.890625 -9.894531 6.628906 -9.917969 L 5.929688 -9.972656 C 5.4375 -10.050781 5 -10.074219 4.558594 -10.152344 C 3.367188 -10.28125 3.109375 -10.851562 3.082031 -11.863281 C 3.003906 -13.078125 3.003906 -13.933594 3.003906 -14.761719 C 3.003906 -15.617188 3.003906 -16.421875 3.082031 -17.484375 C 3.109375 -18.492188 3.367188 -18.828125 4.246094 -18.804688 C 4.894531 -18.777344 5.957031 -18.726562 6.96875 -18.648438 C 7.953125 -18.570312 8.960938 -18.519531 9.480469 -18.441406 C 9.867188 -18.363281 10.203125 -18.363281 10.386719 -18.15625 C 10.566406 -17.976562 10.59375 -17.664062 10.566406 -16.964844 C 10.464844 -15.203125 10.152344 -13.363281 9.917969 -12.328125 Z M 20.667969 -13.234375 C 21.109375 -13.261719 21.238281 -13.597656 21.238281 -13.910156 C 21.210938 -14.21875 21.003906 -14.503906 20.566406 -14.503906 C 19.710938 -14.425781 19.035156 -14.402344 18.3125 -14.324219 C 17.636719 -14.296875 16.992188 -14.269531 16.34375 -14.296875 C 16.238281 -15.644531 16.007812 -16.992188 15.332031 -18.882812 C 15.152344 -19.320312 14.738281 -19.425781 14.425781 -19.320312 C 14.0625 -19.21875 13.804688 -18.90625 13.984375 -18.492188 C 14.867188 -16.238281 15.046875 -14.140625 15.125 -12.820312 L 15.125 -11.007812 C 15.125 -10.464844 15.101562 -9.996094 15.101562 -9.480469 C 15.074219 -8.988281 15.359375 -8.78125 15.695312 -8.78125 C 16.007812 -8.78125 16.367188 -9.011719 16.394531 -9.429688 C 16.5 -10.566406 16.5 -11.601562 16.394531 -12.976562 C 17.769531 -12.898438 19.191406 -13.027344 20.667969 -13.234375 Z M 14.0625 -0.441406 C 15.902344 -0.671875 17.84375 -1.191406 19.917969 -2.203125 C 20.359375 -2.410156 20.433594 -2.769531 20.332031 -3.082031 C 20.203125 -3.367188 19.867188 -3.574219 19.347656 -3.367188 C 18.3125 -2.925781 17.457031 -2.589844 16.835938 -2.382812 C 16.1875 -2.203125 15.4375 -2.019531 14.660156 -1.839844 C 13.339844 -1.527344 13.078125 -1.761719 13.078125 -2.617188 C 13.054688 -3.523438 13.054688 -4.144531 13.132812 -4.792969 L 13.46875 -7.019531 C 13.546875 -7.511719 13.234375 -7.769531 12.925781 -7.769531 C 12.613281 -7.796875 12.277344 -7.5625 12.199219 -7.148438 C 11.863281 -5.515625 11.707031 -3.960938 11.785156 -2.410156 C 11.785156 -1.789062 11.785156 -1.242188 12.121094 -0.855469 C 12.40625 -0.441406 12.976562 -0.257812 14.0625 -0.441406 Z M 14.0625 -0.441406 "/></g></g></g><g fill="#000000" fill-opacity="1"><g transform="translate(177.279673, 278.345927)"><g><path d="M 6.835938 -14.503906 C 7.589844 -14.632812 8.105469 -14.582031 8.496094 -14.554688 C 9.582031 -14.453125 10.773438 -13.984375 10.773438 -13.078125 C 10.773438 -12.25 10.308594 -11.734375 9.660156 -11.320312 C 9.039062 -10.902344 8.238281 -10.644531 7.511719 -10.4375 C 6.835938 -10.230469 5.59375 -10.050781 4.84375 -10.050781 C 3.652344 -10.050781 3.289062 -10.488281 3.289062 -11.214844 C 3.289062 -11.914062 3.703125 -12.613281 4.429688 -13.234375 C 5.101562 -13.777344 5.984375 -14.296875 6.835938 -14.503906 Z M 5.777344 -15.515625 C 4.816406 -15.203125 3.832031 -14.554688 3.082031 -13.753906 C 2.355469 -13.003906 1.863281 -12.019531 1.863281 -11.109375 C 1.863281 -9.273438 3.082031 -8.675781 4.738281 -8.675781 C 5.59375 -8.675781 6.5 -8.804688 7.5625 -9.089844 C 8.652344 -9.324219 9.84375 -9.765625 10.695312 -10.410156 C 11.601562 -11.109375 12.199219 -11.964844 12.199219 -13.132812 C 12.199219 -13.910156 11.835938 -14.53125 11.136719 -14.996094 C 10.4375 -15.488281 9.636719 -15.773438 8.703125 -15.851562 C 8.160156 -15.878906 7.175781 -15.953125 5.777344 -15.515625 Z M 2.253906 -3.808594 C 4.636719 -3.417969 6.605469 -3.339844 8.3125 -3.339844 C 9.945312 -3.367188 11.394531 -3.546875 12.792969 -3.78125 C 13.234375 -3.859375 13.46875 -4.195312 13.417969 -4.507812 C 13.339844 -4.816406 13.105469 -5.050781 12.664062 -4.972656 C 10.980469 -4.6875 9.558594 -4.585938 7.953125 -4.609375 C 6.34375 -4.636719 4.585938 -4.765625 2.355469 -5.078125 C 1.8125 -5.152344 1.476562 -4.871094 1.449219 -4.558594 C 1.371094 -4.246094 1.605469 -3.886719 2.253906 -3.808594 Z M 17.09375 -14.6875 C 16.964844 -15.203125 16.578125 -15.308594 16.265625 -15.203125 C 15.953125 -15.101562 15.667969 -14.789062 15.773438 -14.453125 C 16.1875 -12.792969 16.265625 -10.828125 16.265625 -9.167969 C 16.265625 -7.589844 16.109375 -6.242188 16.085938 -5.90625 C 15.980469 -5.464844 16.292969 -5.179688 16.601562 -5.101562 C 16.9375 -5.078125 17.277344 -5.257812 17.378906 -5.800781 C 17.40625 -6.085938 17.585938 -7.511719 17.585938 -9.246094 C 17.585938 -11.007812 17.535156 -13.054688 17.09375 -14.6875 Z M 17.09375 -14.6875 "/></g></g></g><g fill="#000000" fill-opacity="1"><g transform="translate(198.929877, 278.345927)"><g/></g></g><g fill="#000000" fill-opacity="1"><g transform="translate(206.103451, 278.345927)"><g><path d="M 9.816406 -9.089844 C 9.582031 -10.128906 9.296875 -10.902344 8.988281 -11.628906 C 8.675781 -12.355469 8.390625 -13.027344 8.160156 -13.832031 C 8.546875 -14.554688 8.882812 -15.253906 9.195312 -16.109375 C 9.917969 -18.363281 8.960938 -19.011719 7.148438 -18.882812 C 5.929688 -18.804688 5.128906 -18.699219 4.351562 -18.597656 C 3.574219 -18.519531 2.746094 -18.441406 1.527344 -18.441406 C 1.011719 -18.441406 0.828125 -18.105469 0.828125 -17.792969 C 0.855469 -17.457031 1.113281 -17.121094 1.578125 -17.121094 C 2.769531 -17.121094 3.546875 -17.199219 4.300781 -17.300781 L 6.554688 -17.585938 C 8.160156 -17.691406 8.3125 -17.457031 7.667969 -16.007812 C 6.835938 -14.167969 5.335938 -12.042969 2.410156 -10.101562 C 1.96875 -9.789062 1.941406 -9.402344 2.175781 -9.117188 C 2.355469 -8.804688 2.746094 -8.703125 3.238281 -9.039062 C 4.765625 -10.050781 6.113281 -11.136719 7.148438 -12.457031 C 7.328125 -11.863281 7.613281 -11.371094 7.820312 -10.773438 C 8.027344 -10.152344 8.238281 -9.53125 8.445312 -8.78125 C 8.546875 -8.390625 8.9375 -8.261719 9.273438 -8.339844 C 9.609375 -8.417969 9.894531 -8.675781 9.816406 -9.089844 Z M 20.667969 -13.234375 C 21.109375 -13.261719 21.238281 -13.597656 21.238281 -13.910156 C 21.210938 -14.21875 21.003906 -14.503906 20.566406 -14.503906 C 19.710938 -14.425781 19.035156 -14.402344 18.3125 -14.324219 C 17.636719 -14.296875 16.992188 -14.269531 16.34375 -14.296875 C 16.238281 -15.644531 16.007812 -16.992188 15.332031 -18.882812 C 15.152344 -19.320312 14.738281 -19.425781 14.425781 -19.320312 C 14.0625 -19.21875 13.804688 -18.90625 13.984375 -18.492188 C 14.867188 -16.238281 15.046875 -14.140625 15.125 -12.820312 L 15.125 -11.007812 C 15.125 -10.464844 15.101562 -9.996094 15.101562 -9.480469 C 15.074219 -8.988281 15.359375 -8.78125 15.695312 -8.78125 C 16.007812 -8.78125 16.367188 -9.011719 16.394531 -9.429688 C 16.5 -10.566406 16.5 -11.601562 16.394531 -12.976562 C 17.769531 -12.898438 19.191406 -13.027344 20.667969 -13.234375 Z M 12.148438 -5.75 C 14.039062 -5.542969 15.566406 -5.75 16.707031 -6.035156 C 17.042969 -6.113281 17.222656 -6.164062 17.328125 -6.085938 C 17.40625 -6.007812 17.378906 -5.851562 17.351562 -5.4375 C 17.144531 -3.960938 17.144531 -1.035156 17.558594 0.285156 C 17.664062 0.777344 18.050781 0.984375 18.390625 0.90625 C 18.675781 0.878906 18.960938 0.597656 18.882812 0.179688 C 18.542969 -1.65625 18.390625 -4.09375 18.699219 -5.929688 C 18.855469 -6.835938 18.699219 -7.226562 18.414062 -7.355469 C 18.078125 -7.535156 17.691406 -7.433594 17.429688 -7.355469 C 16.757812 -7.175781 15.929688 -7.019531 14.945312 -6.890625 C 13.960938 -6.785156 13.105469 -6.8125 12.355469 -6.96875 C 11.707031 -7.046875 11.371094 -6.8125 11.292969 -6.5 C 11.265625 -6.164062 11.5 -5.828125 12.148438 -5.75 Z M 12.148438 -5.75 "/></g></g></g><g fill="#000000" fill-opacity="1"><g transform="translate(227.753656, 278.345927)"><g><path d="M 8.390625 -18.542969 C 7.433594 -18.234375 6.476562 -17.585938 5.722656 -16.785156 C 4.972656 -16.03125 4.507812 -15.046875 4.507812 -14.140625 C 4.507812 -12.300781 5.699219 -11.707031 7.328125 -11.707031 C 8.238281 -11.707031 9.144531 -11.835938 10.203125 -12.121094 C 11.292969 -12.40625 12.484375 -12.820312 13.339844 -13.46875 C 14.246094 -14.117188 14.839844 -14.996094 14.839844 -16.160156 C 14.839844 -16.9375 14.476562 -17.558594 13.777344 -18.027344 C 13.078125 -18.519531 12.277344 -18.804688 11.34375 -18.882812 C 10.722656 -18.90625 9.789062 -18.984375 8.390625 -18.542969 Z M 9.480469 -17.535156 C 10.230469 -17.664062 10.722656 -17.613281 11.136719 -17.585938 C 11.65625 -17.535156 12.171875 -17.378906 12.640625 -17.144531 C 13.15625 -16.914062 13.390625 -16.550781 13.390625 -16.109375 C 13.390625 -15.308594 12.949219 -14.761719 12.300781 -14.347656 C 11.65625 -13.933594 10.878906 -13.703125 10.152344 -13.496094 C 9.429688 -13.285156 8.210938 -13.078125 7.460938 -13.078125 C 6.292969 -13.078125 5.929688 -13.519531 5.929688 -14.246094 C 5.929688 -14.945312 6.34375 -15.644531 7.070312 -16.265625 C 7.71875 -16.859375 8.625 -17.328125 9.480469 -17.535156 Z M 19.660156 -8.726562 C 19.996094 -8.832031 20.125 -9.195312 20.046875 -9.503906 C 19.96875 -9.84375 19.734375 -10.101562 19.296875 -9.996094 C 18.128906 -9.660156 16.421875 -9.375 14.582031 -9.167969 C 12.71875 -8.988281 10.773438 -8.859375 9.144531 -8.832031 C 7.925781 -8.804688 6.5 -8.804688 5.308594 -8.832031 C 4.144531 -8.859375 3.132812 -8.910156 2.824219 -8.9375 C 1.578125 -8.9375 1.632812 -7.691406 2.746094 -7.5625 C 3.132812 -7.484375 4.324219 -7.460938 5.621094 -7.433594 L 7.613281 -7.433594 C 8.289062 -7.433594 8.859375 -7.433594 9.296875 -7.460938 C 12.664062 -7.5625 16.601562 -7.820312 19.660156 -8.726562 Z M 8.390625 2.5625 C 9.273438 2.539062 10.902344 2.332031 12.535156 2.019531 C 14.195312 1.710938 15.929688 1.320312 17.144531 0.878906 C 17.558594 0.75 17.691406 0.386719 17.585938 0.078125 C 17.457031 -0.234375 17.144531 -0.464844 16.601562 -0.285156 C 15.410156 0.128906 13.960938 0.414062 12.5625 0.648438 C 11.1875 0.878906 9.84375 1.035156 8.988281 1.140625 C 7.667969 1.320312 7.40625 1.191406 7.40625 0.335938 C 7.40625 -1.605469 7.535156 -3.546875 7.820312 -5.128906 C 7.898438 -5.621094 7.613281 -5.878906 7.277344 -5.90625 C 6.96875 -5.929688 6.578125 -5.75 6.5 -5.335938 C 6.34375 -4.480469 6.242188 -3.496094 6.191406 -2.382812 C 6.136719 -1.296875 6.113281 -0.3125 6.113281 0.542969 C 6.113281 1.140625 6.085938 1.632812 6.398438 2.019531 C 6.734375 2.410156 7.277344 2.640625 8.390625 2.5625 Z M 8.390625 2.5625 "/></g></g></g><g fill="#000000" fill-opacity="1"><g transform="translate(249.40386, 278.345927)"><g/></g></g><g fill="#000000" fill-opacity="1"><g transform="translate(256.577434, 278.345927)"><g><path d="M 10.929688 -6.5 C 8.859375 -7.613281 7.589844 -8.753906 6.191406 -10.488281 C 6.398438 -10.929688 6.65625 -11.371094 6.914062 -11.863281 C 7.148438 -12.300781 7.40625 -12.769531 7.613281 -13.285156 C 7.820312 -13.703125 7.589844 -14.089844 7.253906 -14.21875 C 6.914062 -14.324219 6.449219 -14.21875 6.242188 -13.777344 C 4.921875 -10.878906 3.316406 -8.210938 1.632812 -5.644531 C 1.296875 -5.128906 1.449219 -4.738281 1.761719 -4.558594 C 2.097656 -4.429688 2.539062 -4.453125 2.875 -4.972656 C 3.753906 -6.320312 4.660156 -7.746094 5.515625 -9.21875 C 6.890625 -7.5625 8.132812 -6.398438 10.257812 -5.285156 C 10.671875 -5.050781 11.007812 -5.257812 11.1875 -5.570312 C 11.320312 -5.878906 11.265625 -6.292969 10.929688 -6.5 Z M 16.757812 -3.625 C 16.652344 -3.1875 16.9375 -2.875 17.25 -2.796875 C 17.558594 -2.71875 17.949219 -2.875 18.078125 -3.367188 C 18.519531 -4.894531 18.570312 -7.40625 18.441406 -9.789062 C 18.261719 -12.148438 17.898438 -14.425781 17.558594 -15.460938 C 17.351562 -15.878906 16.992188 -16.007812 16.628906 -15.902344 C 16.316406 -15.800781 16.058594 -15.515625 16.214844 -15.101562 C 16.5 -14.195312 16.785156 -12.664062 16.992188 -11.007812 C 15.824219 -10.621094 14.761719 -10.515625 13.933594 -10.4375 C 13.078125 -10.410156 12.40625 -10.4375 12.070312 -10.4375 C 11.679688 -10.4375 11.394531 -10.128906 11.371094 -9.816406 C 11.34375 -9.503906 11.527344 -9.167969 12.019531 -9.144531 C 12.226562 -9.117188 12.949219 -9.039062 13.882812 -9.117188 C 14.839844 -9.144531 16.03125 -9.273438 17.144531 -9.582031 C 17.25 -7.589844 17.199219 -5.386719 16.757812 -3.625 Z M 16.757812 -3.625 "/></g></g></g><g fill="#000000" fill-opacity="1"><g transform="translate(278.227639, 278.345927)"><g><path d="M 11.085938 -3.679688 C 10.773438 -4.6875 10.4375 -5.414062 10.023438 -6.136719 C 9.6875 -6.863281 9.296875 -7.5625 8.988281 -8.574219 C 9.53125 -9.582031 9.84375 -10.644531 10.152344 -11.757812 C 10.671875 -14.039062 9.636719 -14.660156 7.820312 -14.347656 C 6.628906 -14.140625 5.699219 -13.984375 4.816406 -13.804688 C 3.859375 -13.675781 2.953125 -13.546875 1.761719 -13.441406 C 1.296875 -13.363281 1.113281 -13.003906 1.140625 -12.691406 C 1.21875 -12.355469 1.476562 -12.042969 1.917969 -12.121094 C 3.109375 -12.226562 4.09375 -12.328125 4.921875 -12.511719 C 5.75 -12.640625 6.5 -12.792969 7.40625 -12.976562 C 8.910156 -13.210938 9.144531 -13.027344 8.597656 -11.5 C 8.003906 -9.609375 6.605469 -6.605469 3.886719 -4.480469 C 3.496094 -4.171875 3.523438 -3.753906 3.730469 -3.46875 C 3.9375 -3.1875 4.378906 -3.082031 4.84375 -3.46875 C 6.113281 -4.480469 7.199219 -5.671875 8.105469 -7.046875 C 8.390625 -6.398438 8.625 -5.851562 8.9375 -5.257812 C 9.21875 -4.714844 9.480469 -4.066406 9.765625 -3.261719 C 9.867188 -2.875 10.308594 -2.796875 10.621094 -2.902344 C 10.929688 -3.003906 11.1875 -3.261719 11.085938 -3.679688 Z M 20.019531 -4.53125 C 20.125 -5.050781 20.253906 -5.957031 20.28125 -6.992188 C 20.304688 -8.054688 20.28125 -9.21875 20.253906 -10.335938 L 20.152344 -11.242188 L 20.097656 -12.355469 L 19.996094 -13.496094 C 19.96875 -13.882812 19.917969 -14.21875 19.867188 -14.503906 C 19.761719 -15.046875 19.347656 -15.203125 19.011719 -15.101562 C 18.597656 -14.996094 18.363281 -14.660156 18.46875 -14.246094 C 18.542969 -13.832031 18.621094 -13.027344 18.699219 -12.226562 C 18.777344 -11.394531 18.855469 -10.59375 18.882812 -10.152344 L 18.882812 -9.375 C 17.664062 -9.296875 16.292969 -9.429688 15.125 -9.636719 C 15.125 -10.257812 15.175781 -10.902344 15.203125 -11.550781 C 15.230469 -12.25 15.253906 -12.898438 15.332031 -13.625 C 15.332031 -14.140625 15.023438 -14.402344 14.660156 -14.402344 C 14.324219 -14.402344 13.984375 -14.167969 13.984375 -13.675781 C 13.882812 -12.121094 13.804688 -10.515625 13.777344 -8.832031 C 13.753906 -7.148438 13.777344 -5.644531 13.882812 -4.324219 C 13.910156 -3.808594 14.296875 -3.601562 14.632812 -3.625 C 14.996094 -3.652344 15.28125 -3.886719 15.28125 -4.378906 C 15.175781 -5.722656 15.125 -6.992188 15.125 -8.261719 C 15.667969 -8.160156 16.265625 -8.105469 16.886719 -8.082031 C 17.507812 -8.054688 18.128906 -8.054688 18.882812 -8.105469 C 18.882812 -6.785156 18.777344 -5.4375 18.648438 -4.792969 C 18.542969 -4.300781 18.804688 -3.988281 19.167969 -3.910156 C 19.476562 -3.832031 19.890625 -4.015625 20.019531 -4.53125 Z M 20.019531 -4.53125 "/></g></g></g><g fill="#000000" fill-opacity="1"><g transform="translate(299.877843, 278.345927)"><g><path d="M 4.09375 -1.839844 C 4.402344 -1.113281 4.273438 -0.386719 4.039062 0.15625 C 3.808594 0.699219 3.417969 1.191406 3.289062 1.398438 C 3.160156 1.683594 3.210938 1.96875 3.445312 2.148438 C 3.625 2.355469 3.910156 2.382812 4.246094 1.996094 C 5.515625 0.75 5.621094 -0.777344 5.414062 -2.460938 C 5.207031 -3.703125 4.378906 -4.53125 3.417969 -4.53125 C 2.617188 -4.53125 2.125 -4.273438 1.917969 -3.78125 C 1.734375 -3.289062 1.761719 -2.796875 1.96875 -2.304688 C 2.332031 -1.503906 2.980469 -1.035156 4.09375 -1.839844 Z M 4.09375 -1.839844 "/></g></g></g><g fill="#000000" fill-opacity="1"><g transform="translate(308.819075, 278.345927)"><g/></g></g><g fill="#000000" fill-opacity="1"><g transform="translate(183.793958, 313.826027)"><g><path d="M 8.652344 -8.675781 C 9.816406 -9.660156 10.410156 -11.371094 10.179688 -12.871094 C 9.867188 -14.347656 8.832031 -15.539062 6.65625 -15.644531 C 5.722656 -15.644531 4.429688 -15.515625 3.238281 -15.253906 C 2.148438 -15.074219 1.96875 -14.894531 1.863281 -13.804688 C 1.761719 -11.785156 1.789062 -9.53125 1.890625 -7.484375 C 1.96875 -5.4375 2.125 -3.546875 2.304688 -2.433594 C 2.410156 -1.476562 2.902344 -1.164062 3.679688 -1.164062 C 5.542969 -1.164062 7.640625 -1.371094 9.710938 -2.019531 C 11.628906 -2.5625 12.40625 -4.222656 12.199219 -5.75 C 11.964844 -7.253906 10.800781 -8.597656 8.652344 -8.675781 Z M 8.3125 -7.589844 C 10.359375 -7.175781 10.980469 -6.164062 10.878906 -5.179688 C 10.773438 -4.222656 9.972656 -3.289062 9.144531 -3.109375 C 8.675781 -2.980469 7.589844 -2.796875 6.5 -2.640625 C 5.414062 -2.460938 4.273438 -2.382812 3.625 -2.488281 C 3.574219 -2.902344 3.523438 -3.289062 3.496094 -3.652344 L 3.394531 -4.738281 C 3.367188 -5.414062 3.261719 -6.136719 3.238281 -6.96875 C 3.78125 -6.992188 4.84375 -7.175781 5.828125 -7.355469 C 6.835938 -7.5625 7.847656 -7.691406 8.3125 -7.589844 Z M 7.328125 -14.167969 C 8.832031 -13.625 9.011719 -12.355469 8.652344 -11.1875 C 8.339844 -10.023438 7.484375 -8.960938 6.835938 -8.859375 C 5.464844 -8.546875 3.9375 -8.339844 3.1875 -8.238281 C 3.1875 -8.804688 3.082031 -9.765625 3.054688 -10.828125 C 2.980469 -11.886719 3.003906 -13.003906 3.132812 -13.855469 C 3.652344 -13.960938 4.378906 -14.195312 5.128906 -14.296875 C 5.90625 -14.402344 6.683594 -14.402344 7.328125 -14.167969 Z M 7.328125 -14.167969 "/></g></g></g><g fill="#000000" fill-opacity="1"><g transform="translate(197.131104, 313.826027)"><g><path d="M 6.941406 -2.902344 C 5.230469 -2.902344 4.222656 -4.171875 3.601562 -5.699219 C 3.03125 -7.277344 2.875 -9.117188 3.082031 -10.386719 C 3.316406 -12.226562 4.09375 -13.363281 5.023438 -14.039062 C 5.90625 -14.6875 7.046875 -14.761719 8.027344 -14.425781 C 9.6875 -13.804688 10.621094 -12.40625 11.085938 -10.878906 C 11.550781 -9.324219 11.5 -7.589844 11.136719 -6.320312 C 10.359375 -4.039062 9.167969 -2.902344 6.941406 -2.902344 Z M 6.554688 -1.398438 C 9.660156 -0.984375 11.785156 -2.925781 12.613281 -5.851562 C 12.976562 -7.277344 13.105469 -9.375 12.535156 -11.34375 C 11.914062 -13.285156 10.671875 -15.125 8.390625 -15.953125 C 7.019531 -16.472656 5.492188 -16.214844 4.222656 -15.332031 C 2.953125 -14.476562 1.941406 -12.976562 1.65625 -11.007812 C 1.449219 -9.296875 1.398438 -7.070312 2.125 -5.152344 C 2.796875 -3.238281 4.171875 -1.683594 6.554688 -1.398438 Z M 6.554688 -1.398438 "/></g></g></g><g fill="#000000" fill-opacity="1"><g transform="translate(211.581838, 313.826027)"><g><path d="M 6.941406 -2.902344 C 5.230469 -2.902344 4.222656 -4.171875 3.601562 -5.699219 C 3.03125 -7.277344 2.875 -9.117188 3.082031 -10.386719 C 3.316406 -12.226562 4.09375 -13.363281 5.023438 -14.039062 C 5.90625 -14.6875 7.046875 -14.761719 8.027344 -14.425781 C 9.6875 -13.804688 10.621094 -12.40625 11.085938 -10.878906 C 11.550781 -9.324219 11.5 -7.589844 11.136719 -6.320312 C 10.359375 -4.039062 9.167969 -2.902344 6.941406 -2.902344 Z M 6.554688 -1.398438 C 9.660156 -0.984375 11.785156 -2.925781 12.613281 -5.851562 C 12.976562 -7.277344 13.105469 -9.375 12.535156 -11.34375 C 11.914062 -13.285156 10.671875 -15.125 8.390625 -15.953125 C 7.019531 -16.472656 5.492188 -16.214844 4.222656 -15.332031 C 2.953125 -14.476562 1.941406 -12.976562 1.65625 -11.007812 C 1.449219 -9.296875 1.398438 -7.070312 2.125 -5.152344 C 2.796875 -3.238281 4.171875 -1.683594 6.554688 -1.398438 Z M 6.554688 -1.398438 "/></g></g></g><g fill="#000000" fill-opacity="1"><g transform="translate(226.032572, 313.826027)"><g><path d="M 3.886719 -8.675781 C 3.988281 -9.636719 4.066406 -10.4375 4.09375 -11.265625 C 4.117188 -12.121094 4.144531 -13.003906 4.246094 -14.167969 C 4.273438 -14.761719 3.9375 -15.074219 3.546875 -15.074219 C 3.132812 -15.074219 2.796875 -14.761719 2.796875 -14.21875 C 2.769531 -12.585938 2.617188 -10.542969 2.433594 -8.519531 C 2.226562 -6.554688 1.96875 -4.585938 1.761719 -3.261719 C 1.65625 -2.640625 1.96875 -2.382812 2.332031 -2.304688 C 2.640625 -2.277344 3.054688 -2.460938 3.1875 -3.003906 L 3.546875 -5.101562 C 3.625 -5.75 3.679688 -6.34375 3.78125 -7.019531 C 4.792969 -6.8125 6.136719 -6.0625 7.277344 -5.207031 C 8.445312 -4.378906 9.351562 -3.445312 9.609375 -2.71875 C 9.816406 -2.148438 10.257812 -1.96875 10.644531 -2.175781 C 11.007812 -2.304688 11.265625 -2.746094 10.980469 -3.394531 C 10.644531 -4.066406 9.84375 -5.023438 8.882812 -5.90625 C 7.875 -6.785156 6.65625 -7.589844 5.515625 -8.003906 C 6.835938 -8.753906 8.183594 -9.6875 9.324219 -10.621094 C 10.488281 -11.527344 11.550781 -12.433594 12.300781 -13.105469 C 12.71875 -13.417969 12.820312 -13.910156 12.613281 -14.246094 C 12.40625 -14.53125 11.964844 -14.609375 11.394531 -14.167969 C 8.910156 -12.121094 6.242188 -9.867188 3.886719 -8.675781 Z M 3.886719 -8.675781 "/></g></g></g><g fill="#000000" fill-opacity="1"><g transform="translate(239.680485, 313.826027)"><g><path d="M 3.574219 -8.417969 C 3.808594 -9.609375 4.117188 -10.722656 4.507812 -11.886719 C 4.585938 -12.25 4.351562 -12.511719 4.066406 -12.613281 C 3.808594 -12.691406 3.445312 -12.5625 3.289062 -12.226562 C 2.980469 -11.601562 2.617188 -10.179688 2.304688 -8.753906 C 1.96875 -7.253906 1.734375 -5.75 1.65625 -4.871094 C 1.578125 -3.546875 1.632812 -2.382812 2.382812 -1.65625 C 3.109375 -0.933594 4.453125 -0.621094 6.835938 -1.0625 C 8.132812 -1.269531 9.503906 -1.683594 10.773438 -2.226562 C 11.109375 -2.355469 11.242188 -2.71875 11.164062 -3.003906 C 11.085938 -3.316406 10.851562 -3.574219 10.410156 -3.496094 L 8.574219 -2.925781 C 8.027344 -2.746094 7.433594 -2.539062 6.785156 -2.433594 C 4.453125 -2.097656 2.746094 -2.125 3.03125 -4.714844 C 3.054688 -5.464844 3.132812 -6.242188 3.238281 -6.96875 C 4.324219 -7.277344 5.90625 -7.613281 7.535156 -7.898438 C 9.167969 -8.210938 10.902344 -8.417969 12.300781 -8.519531 C 12.691406 -8.519531 12.898438 -8.9375 12.871094 -9.273438 C 12.871094 -9.609375 12.585938 -9.945312 12.148438 -9.945312 C 10.851562 -9.84375 9.324219 -9.6875 7.847656 -9.375 C 6.34375 -9.144531 4.84375 -8.78125 3.574219 -8.417969 Z M 12.148438 -15.125 C 12.664062 -15.125 12.898438 -15.4375 12.898438 -15.800781 C 12.898438 -16.109375 12.640625 -16.472656 12.199219 -16.472656 C 10.980469 -16.472656 9.296875 -16.472656 7.925781 -16.367188 C 5.4375 -16.160156 4.351562 -15.980469 2.460938 -15.695312 C 2.019531 -15.617188 1.789062 -15.253906 1.8125 -14.917969 C 1.839844 -14.554688 2.148438 -14.21875 2.695312 -14.324219 C 4.636719 -14.53125 5.800781 -14.738281 7.875 -14.96875 C 9.167969 -15.074219 10.644531 -15.125 12.148438 -15.125 Z M 12.148438 -15.125 "/></g></g></g><g fill="#000000" fill-opacity="1"><g transform="translate(254.364297, 313.826027)"><g><path d="M 7.511719 -7.433594 C 8.496094 -8.183594 9.429688 -9.558594 9.738281 -10.878906 C 10.050781 -12.25 9.765625 -13.570312 8.496094 -14.324219 C 7.71875 -14.738281 6.761719 -14.945312 5.851562 -15.023438 C 4.972656 -15.046875 4.171875 -14.996094 3.625 -14.917969 C 2.746094 -14.761719 2.148438 -14.710938 1.789062 -14.425781 C 1.476562 -14.140625 1.347656 -13.648438 1.425781 -12.640625 C 1.503906 -11.214844 1.554688 -9.089844 1.734375 -6.96875 C 1.863281 -4.84375 2.097656 -2.769531 2.410156 -1.449219 C 2.511719 -0.90625 2.925781 -0.671875 3.238281 -0.75 C 3.601562 -0.777344 3.886719 -1.113281 3.78125 -1.683594 C 3.679688 -2.253906 3.601562 -2.617188 3.523438 -3.160156 C 3.445312 -3.679688 3.367188 -4.273438 3.238281 -5.257812 C 4.53125 -5.621094 5.285156 -5.957031 6.449219 -6.683594 C 7.746094 -4.117188 9.273438 -2.980469 9.917969 -2.640625 C 10.4375 -2.433594 10.773438 -2.589844 10.957031 -2.847656 C 11.085938 -3.132812 11.058594 -3.496094 10.621094 -3.808594 C 9.867188 -4.273438 9.480469 -4.636719 9.039062 -5.179688 C 8.597656 -5.722656 8.238281 -6.371094 7.511719 -7.433594 Z M 2.695312 -13.417969 C 3.210938 -13.570312 4.066406 -13.703125 4.816406 -13.777344 C 5.59375 -13.804688 6.34375 -13.777344 6.890625 -13.648438 C 8.289062 -13.339844 8.703125 -12.40625 8.519531 -11.34375 C 8.390625 -10.28125 7.667969 -9.089844 6.835938 -8.417969 C 5.878906 -7.640625 4.945312 -7.199219 3.132812 -6.527344 C 2.925781 -8.546875 2.695312 -11.757812 2.695312 -13.417969 Z M 2.695312 -13.417969 "/></g></g></g></svg>